<svg width="500" height="500" viewBox="0 0 500 500" fill="none" xmlns="http://www.w3.org/2000/svg">
<path d="M129.948 34.08H33.8984V120.01H129.948V34.08Z" fill="#FAFAFA"/>
<path d="M130.002 120C130.002 120 130.002 119.45 130.002 118.4C130.002 117.35 130.002 115.81 130.002 113.8C130.002 109.8 130.002 103.87 129.942 96.36C129.942 81.36 129.882 59.89 129.832 34.06L130.052 34.28H34.0519L34.3019 34.02C34.3019 65.29 34.3019 94.71 34.3019 119.96L34.0819 119.73L103.552 119.85L123.002 120H128.192H129.532H128.202H123.062L103.512 120.06L33.9019 120.17H33.6719V120C33.6719 94.75 33.6719 65.33 33.6719 34.06V33.81H33.9419H129.942H130.162V34.02C130.162 59.9 130.072 81.41 130.052 96.45C130.052 103.94 130.002 109.82 129.992 113.85C129.992 115.85 129.992 117.37 129.992 118.41C129.992 119.45 130.002 120 130.002 120Z" fill="#E0E0E0"/>
<path d="M70.7306 49.35C70.7306 49.5 65.6706 49.61 59.4406 49.61C53.2106 49.61 48.1406 49.5 48.1406 49.35C48.1406 49.2 53.2006 49.1 59.4406 49.1C65.6806 49.1 70.7306 49.21 70.7306 49.35Z" fill="#E0E0E0"/>
<path d="M111.43 55.81C111.43 55.95 97.5397 56.06 80.4297 56.06C63.3197 56.06 49.4297 55.95 49.4297 55.81C49.4297 55.67 63.3097 55.55 80.4297 55.55C97.5497 55.55 111.43 55.66 111.43 55.81Z" fill="#E0E0E0"/>
<path d="M52.3625 66.74H48.3125V70.79H52.3625V66.74Z" fill="#E0E0E0"/>
<path d="M62.3234 66.74H58.2734V70.79H62.3234V66.74Z" fill="#E0E0E0"/>
<path d="M72.4719 66.55H68.4219V70.6H72.4719V66.55Z" fill="#E0E0E0"/>
<path d="M82.2375 66.74H78.1875V70.79H82.2375V66.74Z" fill="#E0E0E0"/>
<path d="M92.1984 66.74H88.1484V70.79H92.1984V66.74Z" fill="#E0E0E0"/>
<path d="M102.175 66.74H98.125V70.79H102.175V66.74Z" fill="#E0E0E0"/>
<path d="M112.128 66.74H108.078V70.79H112.128V66.74Z" fill="#EBEBEB"/>
<path d="M52.3625 75.34H48.3125V79.39H52.3625V75.34Z" fill="#EBEBEB"/>
<path d="M62.3234 75.34H58.2734V79.39H62.3234V75.34Z" fill="#E0E0E0"/>
<path d="M72.2844 75.34H68.2344V79.39H72.2844V75.34Z" fill="#EBEBEB"/>
<path d="M82.2375 75.34H78.1875V79.39H82.2375V75.34Z" fill="#E0E0E0"/>
<path d="M92.1984 75.34H88.1484V79.39H92.1984V75.34Z" fill="#E0E0E0"/>
<path d="M102.355 75.15H98.3047V79.2H102.355V75.15Z" fill="#E0E0E0"/>
<path d="M112.128 75.34H108.078V79.39H112.128V75.34Z" fill="#E0E0E0"/>
<path d="M52.3625 83.94H48.3125V87.99H52.3625V83.94Z" fill="#E0E0E0"/>
<path d="M62.5109 83.76H58.4609V87.81H62.5109V83.76Z" fill="#E0E0E0"/>
<path d="M72.2844 83.94H68.2344V87.99H72.2844V83.94Z" fill="#E0E0E0"/>
<path d="M82.2375 83.94H78.1875V87.99H82.2375V83.94Z" fill="#EBEBEB"/>
<path d="M92.1984 83.94H88.1484V87.99H92.1984V83.94Z" fill="#E0E0E0"/>
<path d="M102.175 83.94H98.125V87.99H102.175V83.94Z" fill="#E0E0E0"/>
<path d="M112.128 83.94H108.078V87.99H112.128V83.94Z" fill="#E0E0E0"/>
<path d="M52.3625 92.54H48.3125V96.59H52.3625V92.54Z" fill="#E0E0E0"/>
<path d="M62.3234 92.54H58.2734V96.59H62.3234V92.54Z" fill="#E0E0E0"/>
<path d="M72.2844 92.54H68.2344V96.59H72.2844V92.54Z" fill="#E0E0E0"/>
<path d="M82.4328 92.36H78.3828V96.41H82.4328V92.36Z" fill="#E0E0E0"/>
<path d="M92.1984 92.54H88.1484V96.59H92.1984V92.54Z" fill="#E0E0E0"/>
<path d="M102.175 92.54H98.125V96.59H102.175V92.54Z" fill="#EBEBEB"/>
<path d="M112.128 92.54H108.078V96.59H112.128V92.54Z" fill="#E0E0E0"/>
<path d="M52.3625 101.15H48.3125V105.2H52.3625V101.15Z" fill="#E0E0E0"/>
<path d="M62.3234 101.15H58.2734V105.2H62.3234V101.15Z" fill="#EBEBEB"/>
<path d="M72.2844 101.15H68.2344V105.2H72.2844V101.15Z" fill="#E0E0E0"/>
<path d="M82.2375 101.15H78.1875V105.2H82.2375V101.15Z" fill="#E0E0E0"/>
<path d="M92.1984 101.15H88.1484V105.2H92.1984V101.15Z" fill="#E0E0E0"/>
<path d="M102.355 100.96H98.3047V105.01H102.355V100.96Z" fill="#E0E0E0"/>
<path d="M112.128 101.15H108.078V105.2H112.128V101.15Z" fill="#E0E0E0"/>
<path d="M470.501 35.83H402.461V103.87H470.501V35.83Z" fill="white"/>
<path d="M470.499 103.88C470.499 103.88 470.499 103.76 470.499 103.55C470.499 103.34 470.499 103.01 470.499 102.55C470.499 101.71 470.499 100.48 470.499 98.89C470.499 95.67 470.499 90.99 470.439 85.04C470.439 73.13 470.369 56.15 470.319 35.78L470.549 36.01H402.549L402.809 35.75C402.809 60.67 402.809 84.02 402.809 103.8L402.589 103.57L451.839 103.69L465.689 103.75H469.359H470.299H470.629H469.409H465.779L451.989 103.81L402.589 103.92H402.359V103.7C402.359 83.92 402.359 60.57 402.359 35.7V35.44H402.619H470.619H470.849V35.66C470.799 56.09 470.759 73.12 470.729 85.06C470.729 90.99 470.729 95.66 470.669 98.86C470.669 100.44 470.669 101.65 470.669 102.48C470.669 102.88 470.669 103.18 470.669 103.4C470.669 103.62 470.499 103.88 470.499 103.88Z" fill="#E0E0E0"/>
<path d="M470.211 53.25C470.211 53.39 455.041 53.51 436.331 53.51C417.621 53.51 402.461 53.39 402.461 53.25C402.461 53.11 417.621 53 436.331 53C455.041 53 470.211 53.11 470.211 53.25Z" fill="#E0E0E0"/>
<path d="M409.078 46.12C410.144 46.12 411.008 45.2559 411.008 44.19C411.008 43.1241 410.144 42.26 409.078 42.26C408.013 42.26 407.148 43.1241 407.148 44.19C407.148 45.2559 408.013 46.12 409.078 46.12Z" fill="#E0E0E0"/>
<path d="M414.961 46.12C416.027 46.12 416.891 45.2559 416.891 44.19C416.891 43.1241 416.027 42.26 414.961 42.26C413.895 42.26 413.031 43.1241 413.031 44.19C413.031 45.2559 413.895 46.12 414.961 46.12Z" fill="#E0E0E0"/>
<path d="M422.774 44.19C422.774 44.5717 422.661 44.9449 422.449 45.2623C422.237 45.5796 421.935 45.827 421.583 45.9731C421.23 46.1192 420.842 46.1574 420.468 46.0829C420.093 46.0085 419.749 45.8246 419.479 45.5547C419.209 45.2848 419.026 44.9409 418.951 44.5665C418.877 44.1921 418.915 43.8041 419.061 43.4514C419.207 43.0988 419.454 42.7973 419.772 42.5853C420.089 42.3732 420.462 42.26 420.844 42.26C421.098 42.2587 421.349 42.3077 421.584 42.4042C421.819 42.5007 422.032 42.6429 422.212 42.8223C422.391 43.0018 422.533 43.2151 422.63 43.4499C422.726 43.6846 422.775 43.9362 422.774 44.19Z" fill="#E0E0E0"/>
<path d="M416.241 73.26C419.295 73.26 421.771 70.7841 421.771 67.73C421.771 64.6759 419.295 62.2 416.241 62.2C413.187 62.2 410.711 64.6759 410.711 67.73C410.711 70.7841 413.187 73.26 416.241 73.26Z" fill="#EBEBEB"/>
<path d="M421.771 88C421.771 89.0937 421.447 90.1629 420.839 91.0723C420.231 91.9817 419.368 92.6905 418.357 93.1091C417.347 93.5276 416.235 93.6371 415.162 93.4237C414.089 93.2104 413.104 92.6837 412.331 91.9103C411.557 91.1369 411.031 90.1516 410.817 89.0788C410.604 88.0061 410.713 86.8942 411.132 85.8838C411.55 84.8733 412.259 84.0096 413.169 83.402C414.078 82.7943 415.147 82.47 416.241 82.47C417.708 82.47 419.114 83.0526 420.151 84.0897C421.188 85.1268 421.771 86.5334 421.771 88Z" fill="#EBEBEB"/>
<path d="M460.342 67.28C460.342 67.42 452.783 67.54 443.453 67.54C434.123 67.54 426.562 67.42 426.562 67.28C426.562 67.14 434.123 67.02 443.453 67.02C452.783 67.02 460.342 67.13 460.342 67.28Z" fill="#E0E0E0"/>
<path d="M438.734 87.93C434.742 88.2761 430.727 88.2761 426.734 87.93C430.727 87.5839 434.742 87.5839 438.734 87.93Z" fill="#E0E0E0"/>
<path d="M460.341 114.22C472.187 114.22 481.791 104.617 481.791 92.77C481.791 80.9235 472.187 71.32 460.341 71.32C448.494 71.32 438.891 80.9235 438.891 92.77C438.891 104.617 448.494 114.22 460.341 114.22Z" fill="#E0E0E0"/>
<path d="M462.359 84.63H460.359V100.55H462.359V84.63Z" fill="white"/>
<path d="M469.318 91.59H453.398V93.59H469.318V91.59Z" fill="white"/>
<path d="M59.6934 273.07C70.603 268.452 75.7038 255.865 71.0864 244.955C66.4691 234.046 53.882 228.945 42.9723 233.562C32.0627 238.18 26.9619 250.767 31.5793 261.676C36.1966 272.586 48.7837 277.687 59.6934 273.07Z" fill="#E0E0E0"/>
<path d="M53.3516 245.18H51.3516V261.1H53.3516V245.18Z" fill="white"/>
<path d="M60.3106 252.14H44.3906V254.14H60.3106V252.14Z" fill="white"/>
<path d="M311.422 348.53H165.742V415.71H311.422V348.53Z" fill="#F5F5F5"/>
<path d="M308 412.55H169.07V352.06H308V412.55ZM170 411.64H307V353H170V411.64Z" fill="#E0E0E0"/>
<path d="M347.012 348.53H311.422V415.71H347.012V348.53Z" fill="#E0E0E0"/>
<path d="M169.532 370.78H307.532C307.579 370.78 307.625 370.761 307.659 370.727C307.693 370.694 307.712 370.648 307.712 370.6C307.712 370.552 307.693 370.506 307.659 370.473C307.625 370.439 307.579 370.42 307.532 370.42H169.532C169.484 370.42 169.438 370.439 169.404 370.473C169.371 370.506 169.352 370.552 169.352 370.6C169.352 370.648 169.371 370.694 169.404 370.727C169.438 370.761 169.484 370.78 169.532 370.78Z" fill="#E0E0E0"/>
<path d="M239.003 370.6C239.373 364.522 239.373 358.428 239.003 352.35C238.993 352.308 238.97 352.271 238.936 352.244C238.903 352.218 238.861 352.203 238.818 352.203C238.775 352.203 238.734 352.218 238.7 352.244C238.666 352.271 238.643 352.308 238.633 352.35C238.268 358.428 238.268 364.522 238.633 370.6C238.633 370.637 238.648 370.673 238.674 370.699C238.7 370.725 238.736 370.74 238.773 370.74C238.81 370.74 238.846 370.725 238.872 370.699C238.898 370.673 238.913 370.637 238.913 370.6H239.003Z" fill="#E0E0E0"/>
<path d="M276.104 361.47C276.104 361.842 275.993 362.205 275.787 362.514C275.58 362.824 275.287 363.065 274.943 363.207C274.6 363.349 274.222 363.386 273.857 363.314C273.492 363.241 273.157 363.062 272.894 362.799C272.631 362.536 272.452 362.201 272.38 361.837C272.307 361.472 272.345 361.094 272.487 360.751C272.629 360.407 272.87 360.113 273.179 359.907C273.488 359.7 273.852 359.59 274.224 359.59C274.722 359.59 275.201 359.788 275.553 360.141C275.906 360.493 276.104 360.971 276.104 361.47Z" fill="#E0E0E0"/>
<path d="M203.69 361.47C203.69 361.842 203.579 362.205 203.373 362.514C203.166 362.824 202.873 363.065 202.529 363.207C202.186 363.349 201.808 363.386 201.443 363.314C201.078 363.241 200.743 363.062 200.48 362.799C200.217 362.536 200.038 362.201 199.966 361.837C199.893 361.472 199.93 361.094 200.073 360.751C200.215 360.407 200.456 360.113 200.765 359.907C201.074 359.7 201.438 359.59 201.81 359.59C202.308 359.59 202.786 359.788 203.139 360.141C203.492 360.493 203.69 360.971 203.69 361.47Z" fill="#E0E0E0"/>
<path d="M240.393 382.31C240.393 382.682 240.283 383.045 240.076 383.354C239.869 383.664 239.576 383.905 239.232 384.047C238.889 384.189 238.511 384.226 238.146 384.154C237.781 384.081 237.446 383.902 237.183 383.639C236.921 383.376 236.741 383.041 236.669 382.677C236.596 382.312 236.634 381.934 236.776 381.591C236.918 381.247 237.159 380.953 237.468 380.747C237.778 380.54 238.141 380.43 238.513 380.43C239.011 380.43 239.49 380.628 239.842 380.981C240.195 381.333 240.393 381.811 240.393 382.31Z" fill="#E0E0E0"/>
<path d="M183.164 415.71L175.664 457.89H179.884L193.704 415.71H183.164Z" fill="#E0E0E0"/>
<path d="M301.112 415.71L307.383 457.96H303.163L290.562 415.71H301.112Z" fill="#E0E0E0"/>
<path d="M329.269 415.71L336.379 457.96H332.159L318.719 415.71H329.269Z" fill="#E0E0E0"/>
<path d="M240.26 401.32C240.26 401.692 240.149 402.056 239.942 402.366C239.735 402.675 239.441 402.916 239.097 403.058C238.753 403.2 238.374 403.236 238.01 403.163C237.645 403.09 237.31 402.91 237.047 402.646C236.785 402.382 236.606 402.046 236.535 401.681C236.464 401.315 236.502 400.937 236.646 400.594C236.79 400.25 237.032 399.957 237.343 399.752C237.653 399.547 238.018 399.438 238.39 399.44C238.887 399.443 239.362 399.642 239.713 399.994C240.063 400.346 240.26 400.823 240.26 401.32Z" fill="#E0E0E0"/>
<path d="M169.53 391.59H307.53C307.571 391.58 307.608 391.557 307.635 391.523C307.662 391.489 307.676 391.448 307.676 391.405C307.676 391.362 307.662 391.321 307.635 391.287C307.608 391.253 307.571 391.23 307.53 391.22H169.53C169.488 391.23 169.451 391.253 169.424 391.287C169.397 391.321 169.383 391.362 169.383 391.405C169.383 391.448 169.397 391.489 169.424 391.523C169.451 391.557 169.488 391.58 169.53 391.59Z" fill="#E0E0E0"/>
<path d="M461.43 458.08C461.43 458.22 363.63 458.34 243.01 458.34C122.39 458.34 24.5703 458.22 24.5703 458.08C24.5703 457.94 122.35 457.82 243.01 457.82C363.67 457.82 461.43 457.93 461.43 458.08Z" fill="#263238"/>
<path d="M394.89 69H95V333.22H394.89V69Z" fill="white"/>
<path d="M386.351 229.59H86.4609V274.23H386.351V229.59Z" fill="white"/>
<path d="M386.351 178.52H86.4609V229.6H386.351V178.52Z" fill="#F5F5F5"/>
<path d="M386.351 281.53H86.4609V332.61H386.351V281.53Z" fill="#F5F5F5"/>
<path d="M267.531 194.42C267.531 194.57 232.161 194.69 188.531 194.69C144.901 194.69 109.531 194.57 109.531 194.42C109.531 194.27 144.891 194.16 188.531 194.16C232.171 194.16 267.531 194.28 267.531 194.42Z" fill="#263238"/>
<path d="M176.242 208.64C176.242 208.78 161.242 208.9 142.672 208.9C124.102 208.9 109.102 208.78 109.102 208.64C109.102 208.5 124.102 208.38 142.672 208.38C161.242 208.38 176.242 208.5 176.242 208.64Z" fill="#263238"/>
<path d="M267.531 244.81C267.531 244.95 232.161 245.07 188.531 245.07C144.901 245.07 109.531 244.95 109.531 244.81C109.531 244.67 144.891 244.55 188.531 244.55C232.171 244.55 267.531 244.66 267.531 244.81Z" fill="#263238"/>
<path d="M176.242 259C176.242 259.15 161.242 259.26 142.672 259.26C124.102 259.26 109.102 259.15 109.102 259C109.102 258.85 124.102 258.74 142.672 258.74C161.242 258.74 176.242 258.88 176.242 259Z" fill="#263238"/>
<path d="M267.531 295.19C267.531 295.33 232.161 295.45 188.531 295.45C144.901 295.45 109.531 295.33 109.531 295.19C109.531 295.05 144.891 294.93 188.531 294.93C232.171 294.93 267.531 295 267.531 295.19Z" fill="#263238"/>
<path d="M176.242 309.4C176.242 309.55 161.242 309.66 142.672 309.66C124.102 309.66 109.102 309.55 109.102 309.4C109.102 309.25 124.102 309.14 142.672 309.14C161.242 309.14 176.242 309.26 176.242 309.4Z" fill="#263238"/>
<path d="M386.351 68.39H86.4609V93.6H386.351V68.39Z" fill="#E0E0E0"/>
<path d="M386.351 91.21H86.4609V116.42H386.351V91.21Z" fill="#F5F5F5"/>
<path d="M104.512 80.2C104.506 80.8261 104.315 81.4364 103.962 81.9539C103.61 82.4715 103.112 82.8731 102.532 83.1081C101.952 83.3432 101.315 83.4011 100.701 83.2746C100.088 83.1481 99.5262 82.8429 99.0863 82.3974C98.6464 81.9519 98.3482 81.3861 98.2294 80.7713C98.1107 80.1566 98.1766 79.5204 98.4189 78.9431C98.6612 78.3658 99.0691 77.8732 99.591 77.5274C100.113 77.1815 100.726 76.998 101.352 77C101.77 77 102.184 77.083 102.57 77.2443C102.956 77.4056 103.306 77.6419 103.6 77.9396C103.894 78.2373 104.126 78.5904 104.283 78.9784C104.439 79.3664 104.517 79.7817 104.512 80.2Z" fill="#263238"/>
<path d="M116.129 80.2C116.123 80.8274 115.931 81.4388 115.577 81.957C115.224 82.4751 114.724 82.8767 114.142 83.1108C113.56 83.3449 112.921 83.401 112.307 83.2721C111.693 83.1431 111.132 82.8349 110.693 82.3864C110.254 81.9379 109.958 81.3693 109.843 80.7526C109.728 80.1359 109.798 79.4989 110.045 78.9221C110.292 78.3454 110.704 77.8549 111.23 77.5127C111.756 77.1706 112.372 76.9921 112.999 77C113.838 77.0106 114.639 77.3533 115.225 77.9532C115.812 78.553 116.137 79.361 116.129 80.2Z" fill="#263238"/>
<path d="M127.738 80.2C127.732 80.8257 127.541 81.4356 127.19 81.9529C126.838 82.4703 126.341 82.8719 125.761 83.1072C125.181 83.3426 124.545 83.4011 123.932 83.2754C123.319 83.1497 122.757 82.8455 122.316 82.4009C121.876 81.9564 121.577 81.3916 121.457 80.7775C121.337 80.1634 121.402 79.5276 121.643 78.9501C121.883 78.3726 122.29 77.8792 122.81 77.5322C123.331 77.1852 123.943 77 124.568 77C124.987 77 125.402 77.083 125.788 77.2441C126.175 77.4053 126.526 77.6415 126.821 77.9391C127.115 78.2366 127.348 78.5896 127.506 78.9777C127.663 79.3657 127.742 79.7812 127.738 80.2Z" fill="#263238"/>
<path d="M386.41 333C386.41 331.32 386.35 230 386.26 68.44L386.41 68.64L86.67 68.7L86.85 68.44C86.85 162.35 86.85 251.79 86.85 333L86.68 332.76L386.44 333L86.68 333.24H86.5V333C86.5 251.79 86.5 162.35 86.5 68.44V68.18H86.71L386.45 68.23H386.6V68.44C386.46 230 386.41 331.27 386.41 333Z" fill="#263238"/>
<path d="M326.847 131H251.153C247.755 131 245 133.592 245 136.789V153.211C245 156.408 247.755 159 251.153 159H326.847C330.245 159 333 156.408 333 153.211V136.789C333 133.592 330.245 131 326.847 131Z" fill="#8ABD97"/>
<path d="M260 144.73H257.165V148H255.851V144.73H253V143.289H255.851V140H257.165V143.289H260V144.73Z" fill="white"/>
<path d="M119.562 142.87H116.562V141.11H124.702V142.87H121.702V150.45H119.543L119.562 142.87Z" fill="#263238"/>
<path d="M131.552 148.45H127.212L126.392 150.45H124.172L128.332 141.11H130.472L134.642 150.45H132.382L131.552 148.45ZM130.872 146.81L129.392 143.23L127.912 146.81H130.872Z" fill="#263238"/>
<path d="M134.883 149.53L135.623 147.9C136.526 148.535 137.599 148.883 138.703 148.9C139.983 148.9 140.503 148.47 140.503 147.9C140.503 146.16 135.073 147.36 135.073 143.9C135.073 142.31 136.353 140.99 139.003 140.99C140.138 140.965 141.259 141.252 142.243 141.82L141.583 143.46C140.796 142.998 139.905 142.747 138.993 142.73C137.713 142.73 137.223 143.21 137.223 143.79C137.223 145.51 142.643 144.33 142.643 147.79C142.643 149.35 141.353 150.69 138.643 150.69C137.301 150.691 135.991 150.287 134.883 149.53Z" fill="#263238"/>
<path d="M147.517 146.78L146.267 148.09V150.45H144.117V141.11H146.267V145.47L150.407 141.11H152.807L148.937 145.27L153.027 150.45H150.507L147.517 146.78Z" fill="#263238"/>
<path d="M153.062 149.53L153.792 147.9C154.696 148.533 155.769 148.881 156.872 148.9C158.152 148.9 158.673 148.47 158.673 147.9C158.673 146.16 153.253 147.36 153.253 143.9C153.253 142.31 154.532 140.99 157.182 140.99C158.318 140.967 159.438 141.254 160.423 141.82L159.753 143.46C158.97 142.999 158.081 142.747 157.173 142.73C155.893 142.73 155.393 143.21 155.393 143.79C155.393 145.51 160.823 144.33 160.823 147.79C160.823 149.35 159.533 150.69 156.823 150.69C155.481 150.692 154.17 150.288 153.062 149.53Z" fill="#263238"/>
<path d="M360.012 198.09H316.202C311.314 198.09 307.352 202.052 307.352 206.94V206.95C307.352 211.838 311.314 215.8 316.202 215.8H360.012C364.899 215.8 368.862 211.838 368.862 206.95V206.94C368.862 202.052 364.899 198.09 360.012 198.09Z" fill="#E0E0E0"/>
<path d="M360.002 266.93H316.202C315.039 266.93 313.889 266.701 312.815 266.256C311.741 265.812 310.765 265.16 309.944 264.338C309.122 263.516 308.47 262.54 308.025 261.467C307.58 260.393 307.352 259.242 307.352 258.08C307.352 255.733 308.284 253.482 309.944 251.822C311.603 250.162 313.854 249.23 316.202 249.23H360.002C361.164 249.23 362.315 249.459 363.388 249.904C364.462 250.348 365.438 251 366.259 251.822C367.081 252.644 367.733 253.62 368.178 254.693C368.623 255.767 368.852 256.918 368.852 258.08C368.852 259.242 368.623 260.393 368.178 261.467C367.733 262.54 367.081 263.516 366.259 264.338C365.438 265.16 364.462 265.812 363.388 266.256C362.315 266.701 361.164 266.93 360.002 266.93Z" fill="#EBEBEB"/>
<path d="M360.012 299.32H316.202C311.314 299.32 307.352 303.282 307.352 308.17V308.18C307.352 313.068 311.314 317.03 316.202 317.03H360.012C364.899 317.03 368.862 313.068 368.862 308.18V308.17C368.862 303.282 364.899 299.32 360.012 299.32Z" fill="#E0E0E0"/>
<path d="M271.868 147.14H268.22L267.548 149H266.396L269.42 140.684H270.68L273.692 149H272.54L271.868 147.14ZM271.556 146.252L270.044 142.028L268.532 146.252H271.556ZM274.602 145.688C274.602 145.016 274.738 144.428 275.01 143.924C275.282 143.412 275.654 143.016 276.126 142.736C276.606 142.456 277.142 142.316 277.734 142.316C278.246 142.316 278.722 142.436 279.162 142.676C279.602 142.908 279.938 143.216 280.17 143.6V140.12H281.274V149H280.17V147.764C279.954 148.156 279.634 148.48 279.21 148.736C278.786 148.984 278.29 149.108 277.722 149.108C277.138 149.108 276.606 148.964 276.126 148.676C275.654 148.388 275.282 147.984 275.01 147.464C274.738 146.944 274.602 146.352 274.602 145.688ZM280.17 145.7C280.17 145.204 280.07 144.772 279.87 144.404C279.67 144.036 279.398 143.756 279.054 143.564C278.718 143.364 278.346 143.264 277.938 143.264C277.53 143.264 277.158 143.36 276.822 143.552C276.486 143.744 276.218 144.024 276.018 144.392C275.818 144.76 275.718 145.192 275.718 145.688C275.718 146.192 275.818 146.632 276.018 147.008C276.218 147.376 276.486 147.66 276.822 147.86C277.158 148.052 277.53 148.148 277.938 148.148C278.346 148.148 278.718 148.052 279.054 147.86C279.398 147.66 279.67 147.376 279.87 147.008C280.07 146.632 280.17 146.196 280.17 145.7ZM282.711 145.688C282.711 145.016 282.847 144.428 283.119 143.924C283.391 143.412 283.763 143.016 284.235 142.736C284.715 142.456 285.251 142.316 285.843 142.316C286.355 142.316 286.831 142.436 287.271 142.676C287.711 142.908 288.047 143.216 288.279 143.6V140.12H289.383V149H288.279V147.764C288.063 148.156 287.743 148.48 287.319 148.736C286.895 148.984 286.399 149.108 285.831 149.108C285.247 149.108 284.715 148.964 284.235 148.676C283.763 148.388 283.391 147.984 283.119 147.464C282.847 146.944 282.711 146.352 282.711 145.688ZM288.279 145.7C288.279 145.204 288.179 144.772 287.979 144.404C287.779 144.036 287.507 143.756 287.163 143.564C286.827 143.364 286.455 143.264 286.047 143.264C285.639 143.264 285.267 143.36 284.931 143.552C284.595 143.744 284.327 144.024 284.127 144.392C283.927 144.76 283.827 145.192 283.827 145.688C283.827 146.192 283.927 146.632 284.127 147.008C284.327 147.376 284.595 147.66 284.931 147.86C285.267 148.052 285.639 148.148 286.047 148.148C286.455 148.148 286.827 148.052 287.163 147.86C287.507 147.66 287.779 147.376 287.979 147.008C288.179 146.632 288.279 146.196 288.279 145.7ZM296.756 149.108C296.252 149.108 295.8 149.024 295.4 148.856C295 148.68 294.684 148.44 294.452 148.136C294.22 147.824 294.092 147.468 294.068 147.068H295.196C295.228 147.396 295.38 147.664 295.652 147.872C295.932 148.08 296.296 148.184 296.744 148.184C297.16 148.184 297.488 148.092 297.728 147.908C297.968 147.724 298.088 147.492 298.088 147.212C298.088 146.924 297.96 146.712 297.704 146.576C297.448 146.432 297.052 146.292 296.516 146.156C296.028 146.028 295.628 145.9 295.316 145.772C295.012 145.636 294.748 145.44 294.524 145.184C294.308 144.92 294.2 144.576 294.2 144.152C294.2 143.816 294.3 143.508 294.5 143.228C294.7 142.948 294.984 142.728 295.352 142.568C295.72 142.4 296.14 142.316 296.612 142.316C297.34 142.316 297.928 142.5 298.376 142.868C298.824 143.236 299.064 143.74 299.096 144.38H298.004C297.98 144.036 297.84 143.76 297.584 143.552C297.336 143.344 297 143.24 296.576 143.24C296.184 143.24 295.872 143.324 295.64 143.492C295.408 143.66 295.292 143.88 295.292 144.152C295.292 144.368 295.36 144.548 295.496 144.692C295.64 144.828 295.816 144.94 296.024 145.028C296.24 145.108 296.536 145.2 296.912 145.304C297.384 145.432 297.768 145.56 298.064 145.688C298.36 145.808 298.612 145.992 298.82 146.24C299.036 146.488 299.148 146.812 299.156 147.212C299.156 147.572 299.056 147.896 298.856 148.184C298.656 148.472 298.372 148.7 298.004 148.868C297.644 149.028 297.228 149.108 296.756 149.108ZM301.789 143.636C302.005 143.26 302.325 142.948 302.749 142.7C303.181 142.444 303.681 142.316 304.249 142.316C304.833 142.316 305.361 142.456 305.833 142.736C306.313 143.016 306.689 143.412 306.961 143.924C307.233 144.428 307.369 145.016 307.369 145.688C307.369 146.352 307.233 146.944 306.961 147.464C306.689 147.984 306.313 148.388 305.833 148.676C305.361 148.964 304.833 149.108 304.249 149.108C303.689 149.108 303.193 148.984 302.761 148.736C302.337 148.48 302.013 148.164 301.789 147.788V152.12H300.697V142.424H301.789V143.636ZM306.253 145.688C306.253 145.192 306.153 144.76 305.953 144.392C305.753 144.024 305.481 143.744 305.137 143.552C304.801 143.36 304.429 143.264 304.021 143.264C303.621 143.264 303.249 143.364 302.905 143.564C302.569 143.756 302.297 144.04 302.089 144.416C301.889 144.784 301.789 145.212 301.789 145.7C301.789 146.196 301.889 146.632 302.089 147.008C302.297 147.376 302.569 147.66 302.905 147.86C303.249 148.052 303.621 148.148 304.021 148.148C304.429 148.148 304.801 148.052 305.137 147.86C305.481 147.66 305.753 147.376 305.953 147.008C306.153 146.632 306.253 146.192 306.253 145.688ZM311.675 149.108C311.059 149.108 310.499 148.968 309.995 148.688C309.499 148.408 309.107 148.012 308.819 147.5C308.539 146.98 308.399 146.38 308.399 145.7C308.399 145.028 308.543 144.436 308.831 143.924C309.127 143.404 309.527 143.008 310.031 142.736C310.535 142.456 311.099 142.316 311.723 142.316C312.347 142.316 312.911 142.456 313.415 142.736C313.919 143.008 314.315 143.4 314.603 143.912C314.899 144.424 315.047 145.02 315.047 145.7C315.047 146.38 314.895 146.98 314.591 147.5C314.295 148.012 313.891 148.408 313.379 148.688C312.867 148.968 312.299 149.108 311.675 149.108ZM311.675 148.148C312.067 148.148 312.435 148.056 312.779 147.872C313.123 147.688 313.399 147.412 313.607 147.044C313.823 146.676 313.931 146.228 313.931 145.7C313.931 145.172 313.827 144.724 313.619 144.356C313.411 143.988 313.139 143.716 312.803 143.54C312.467 143.356 312.103 143.264 311.711 143.264C311.311 143.264 310.943 143.356 310.607 143.54C310.279 143.716 310.015 143.988 309.815 144.356C309.615 144.724 309.515 145.172 309.515 145.7C309.515 146.236 309.611 146.688 309.803 147.056C310.003 147.424 310.267 147.7 310.595 147.884C310.923 148.06 311.283 148.148 311.675 148.148ZM317.815 143.324V147.2C317.815 147.52 317.883 147.748 318.019 147.884C318.155 148.012 318.391 148.076 318.727 148.076H319.531V149H318.547C317.939 149 317.483 148.86 317.179 148.58C316.875 148.3 316.723 147.84 316.723 147.2V143.324H315.871V142.424H316.723V140.768H317.815V142.424H319.531V143.324H317.815ZM323.182 149.108C322.678 149.108 322.226 149.024 321.826 148.856C321.426 148.68 321.11 148.44 320.878 148.136C320.646 147.824 320.518 147.468 320.494 147.068H321.622C321.654 147.396 321.806 147.664 322.078 147.872C322.358 148.08 322.722 148.184 323.17 148.184C323.586 148.184 323.914 148.092 324.154 147.908C324.394 147.724 324.514 147.492 324.514 147.212C324.514 146.924 324.386 146.712 324.13 146.576C323.874 146.432 323.478 146.292 322.942 146.156C322.454 146.028 322.054 145.9 321.742 145.772C321.438 145.636 321.174 145.44 320.95 145.184C320.734 144.92 320.626 144.576 320.626 144.152C320.626 143.816 320.726 143.508 320.926 143.228C321.126 142.948 321.41 142.728 321.778 142.568C322.146 142.4 322.566 142.316 323.038 142.316C323.766 142.316 324.354 142.5 324.802 142.868C325.25 143.236 325.49 143.74 325.522 144.38H324.43C324.406 144.036 324.266 143.76 324.01 143.552C323.762 143.344 323.426 143.24 323.002 143.24C322.61 143.24 322.298 143.324 322.066 143.492C321.834 143.66 321.718 143.88 321.718 144.152C321.718 144.368 321.786 144.548 321.922 144.692C322.066 144.828 322.242 144.94 322.45 145.028C322.666 145.108 322.962 145.2 323.338 145.304C323.81 145.432 324.194 145.56 324.49 145.688C324.786 145.808 325.038 145.992 325.246 146.24C325.462 146.488 325.574 146.812 325.582 147.212C325.582 147.572 325.482 147.896 325.282 148.184C325.082 148.472 324.798 148.7 324.43 148.868C324.07 149.028 323.654 149.108 323.182 149.108Z" fill="white"/>
<path d="M78.9997 385.16C70.9997 387.97 60.4597 385.46 53.5797 380.43C46.6997 375.4 41.7497 368.21 37.3697 360.91C35.4897 357.79 33.6697 354.55 33.0697 350.91C32.4697 347.27 33.3497 343.29 36.1297 340.91C40.4597 337.27 47.1297 339.11 51.9897 341.91C59.6508 346.378 66.1112 352.64 70.8146 360.159C75.5181 367.677 78.3236 376.226 78.9897 385.07" fill="#8ABD97"/>
<path d="M70.3535 404.41C65.5235 410.78 57.2235 413.62 49.2435 413.99C41.2635 414.36 33.3635 412.15 25.8935 409.28C23.1835 408.28 20.2235 406.82 19.2935 404.07C19.0004 403.008 18.9767 401.889 19.2247 400.815C19.4726 399.741 19.9843 398.746 20.7135 397.92C22.1914 396.284 24.0396 395.026 26.1035 394.25C33.4435 391.12 41.8635 390.97 49.5935 392.98C57.3235 394.99 64.0835 399.46 70.3535 404.41Z" fill="#8ABD97"/>
<path d="M79.1014 350.7C72.4514 350.84 67.4114 345.01 64.3914 339.07C60.1976 330.771 58.7948 321.34 60.3914 312.18C61.0014 308.77 62.2814 305.11 65.3314 303.47C68.3814 301.83 72.4514 302.9 75.0414 305.27C77.6314 307.64 79.0414 311.02 80.0414 314.37C83.6214 325.94 82.8514 339.23 79.0414 350.7" fill="#8ABD97"/>
<path d="M101.003 387.53C89.653 368.21 87.763 344.53 94.463 323.19C95.553 319.73 97.603 315.76 101.233 315.53C105.233 315.27 107.773 319.75 108.883 323.62C112.773 337.2 111.943 351.62 111.083 365.71C110.553 374.4 107.573 381.82 101.003 387.53Z" fill="#8ABD97"/>
<path d="M112.781 395.47C114.892 388.85 118.463 382.789 123.229 377.733C127.996 372.678 133.837 368.757 140.321 366.26C143.321 365.13 147.171 364.48 149.411 366.79C151.651 369.1 150.941 372.79 149.531 375.66C147.241 380.22 143.531 383.88 139.831 387.4C136.471 390.6 132.981 393.81 128.731 395.67C124.481 397.53 116.661 398.01 112.781 395.47Z" fill="#8ABD97"/>
<path d="M42.4062 345.84C42.4645 345.909 42.5318 345.969 42.6062 346.02L43.2162 346.49L45.5962 348.27L47.3262 349.55C47.9462 350.03 48.5962 350.55 49.3262 351.16C50.7262 352.33 52.3862 353.6 54.0562 355.16L56.7362 357.6C57.6562 358.45 58.5562 359.41 59.5162 360.36C61.4662 362.24 63.3562 364.43 65.3962 366.69C69.6771 371.734 73.5873 377.081 77.0962 382.69C80.5307 388.336 83.5551 394.221 86.1462 400.3C87.2562 403.13 88.3762 405.8 89.1462 408.39C89.5662 409.68 90.0263 410.9 90.3763 412.11L91.3763 415.59C92.0463 417.8 92.4362 419.85 92.8562 421.59C93.0562 422.48 93.2663 423.31 93.4163 424.08C93.5663 424.85 93.6762 425.56 93.7862 426.19C94.0062 427.43 94.1862 428.41 94.3162 429.12L94.4662 429.88C94.4725 429.967 94.4963 430.052 94.5362 430.13C94.5476 430.044 94.5476 429.956 94.5362 429.87C94.5362 429.67 94.4762 429.41 94.4362 429.1C94.3362 428.39 94.1962 427.4 94.0062 426.16C93.9162 425.52 93.8062 424.81 93.6862 424.03C93.5662 423.25 93.3562 422.43 93.1762 421.53C92.7762 419.74 92.4163 417.67 91.7663 415.46C91.4563 414.34 91.1463 413.17 90.7663 411.95C90.3863 410.73 89.9763 409.5 89.5563 408.21C88.7663 405.61 87.6663 402.92 86.5563 400.07C84.0011 393.954 80.9927 388.038 77.5563 382.37C74.0324 376.749 70.0914 371.401 65.7663 366.37C63.7663 364.11 61.7662 361.92 59.8262 360.05C58.8262 359.1 57.9562 358.14 57.0162 357.3L54.3062 354.88C52.6162 353.31 50.9362 352.06 49.5062 350.88C48.7862 350.32 48.1262 349.77 47.5062 349.3L45.7463 348.06L43.3062 346.36L42.6662 345.93C42.4862 345.88 42.4162 345.83 42.4062 345.84Z" fill="#263238"/>
<path d="M27.375 399.39C27.6391 399.377 27.9008 399.333 28.155 399.26C28.665 399.17 29.395 398.98 30.365 398.82C33.0798 398.305 35.8259 397.971 38.585 397.82C47.7053 397.306 56.825 398.84 65.275 402.31C73.695 405.856 81.2127 411.245 87.275 418.08C89.1099 420.146 90.8069 422.331 92.355 424.62C92.915 425.42 93.295 426.08 93.595 426.5C93.7326 426.725 93.8829 426.942 94.045 427.15C93.9483 426.905 93.8277 426.671 93.685 426.45C93.415 426 93.065 425.32 92.525 424.5C91.0241 422.157 89.3529 419.928 87.525 417.83C81.5151 410.843 73.9534 405.36 65.4448 401.82C56.9363 398.279 47.7171 396.779 38.525 397.44C35.7562 397.629 33.0053 398.023 30.295 398.62C29.295 398.81 28.605 399.04 28.095 399.17C27.585 399.3 27.375 399.38 27.375 399.39Z" fill="#263238"/>
<path d="M69.2899 311.18C69.2784 311.28 69.2784 311.38 69.2899 311.48L69.4699 312.35C69.6399 313.15 69.8899 314.26 70.2099 315.68C70.8699 318.56 71.8599 322.73 73.1199 327.87C75.6199 338.15 79.2499 352.31 83.0399 368C84.9199 375.86 86.6199 383.36 88.0399 390.19C89.4599 397.02 90.7099 403.19 91.6199 408.43C92.1099 411.02 92.4799 413.43 92.8299 415.43C93.1799 417.43 93.4599 419.29 93.6699 420.75C93.8799 422.21 94.0699 423.31 94.1999 424.12C94.2599 424.48 94.3099 424.77 94.3499 424.99C94.3565 425.093 94.3802 425.195 94.4199 425.29C94.431 425.19 94.431 425.09 94.4199 424.99C94.4199 424.76 94.3599 424.47 94.3199 424.1L93.9999 420.75C93.8199 419.28 93.5699 417.49 93.2399 415.41C92.9099 413.33 92.5799 410.97 92.1099 408.36C91.2499 403.14 90.1099 396.95 88.6399 390.09C87.1699 383.23 85.5099 375.74 83.6399 367.88C79.8499 352.18 76.1599 338.04 73.5599 327.78C72.2699 322.68 71.2299 318.53 70.4899 315.63C70.1399 314.22 69.8499 313.12 69.6499 312.33C69.5599 311.97 69.4799 311.69 69.4199 311.47C69.386 311.369 69.3424 311.272 69.2899 311.18Z" fill="#263238"/>
<path d="M95.3662 423.76C95.3971 423.686 95.4205 423.609 95.4362 423.53C95.4362 423.34 95.5262 423.11 95.5962 422.83C95.7262 422.18 95.9162 421.28 96.1562 420.14C96.6362 417.81 97.2662 414.42 97.9962 410.21C99.4562 401.81 101.176 390.13 102.236 377.15C102.756 370.66 103.036 364.46 103.166 358.82C103.296 353.18 103.166 348.09 103.036 343.82C103.036 341.69 102.836 339.76 102.746 338.07C102.656 336.38 102.546 334.92 102.436 333.73C102.326 332.54 102.246 331.67 102.176 331C102.176 330.71 102.176 330.48 102.096 330.29C102.107 330.21 102.107 330.13 102.096 330.05C102.085 330.13 102.085 330.21 102.096 330.29C102.096 330.49 102.096 330.72 102.096 331.01C102.096 331.68 102.176 332.59 102.246 333.75C102.316 334.91 102.406 336.39 102.466 338.09C102.526 339.79 102.646 341.7 102.676 343.83C102.806 348.09 102.816 353.17 102.676 358.83C102.536 364.49 102.216 370.65 101.676 377.13C100.616 390.13 98.9562 401.76 97.5962 410.13C96.9162 414.34 96.3362 417.74 95.9162 420.13C95.7262 421.27 95.5662 422.13 95.4562 422.83C95.4562 423.12 95.3762 423.35 95.3462 423.54C95.3396 423.614 95.3464 423.688 95.3662 423.76Z" fill="#263238"/>
<path d="M94.5234 426.22C94.6366 426.004 94.7336 425.78 94.8134 425.55L95.5634 423.61L96.0934 422.2C96.3234 421.7 96.5634 421.15 96.8234 420.57C97.0834 419.99 97.3634 419.36 97.6534 418.69C97.9434 418.02 98.3334 417.36 98.6534 416.64L99.8134 414.38L101.193 412.01C102.103 410.35 103.283 408.69 104.413 406.89C107.07 403.102 109.938 399.466 113.003 396C116.104 392.561 119.378 389.284 122.813 386.18C124.453 384.8 125.943 383.43 127.453 382.27L129.603 380.56L131.603 379.06C132.883 378.06 134.103 377.26 135.163 376.55C136.223 375.84 137.163 375.21 137.913 374.75L139.673 373.63C139.887 373.511 140.088 373.37 140.273 373.21C140.046 373.298 139.828 373.408 139.623 373.54L137.813 374.54C137.013 374.98 136.073 375.54 135.003 376.27C133.933 377 132.683 377.76 131.383 378.72L129.313 380.2L127.133 381.9C125.613 383.04 124.133 384.41 122.453 385.78C118.981 388.875 115.68 392.157 112.563 395.61C109.495 399.101 106.639 402.775 104.013 406.61C102.873 408.43 101.703 410.1 100.803 411.79L99.4434 414.19L98.3134 416.47C97.9634 417.2 97.5934 417.88 97.3134 418.55C97.0334 419.22 96.7634 419.86 96.5134 420.45C96.2634 421.04 96.0334 421.6 95.8234 422.11C95.6134 422.62 95.4734 423.11 95.3234 423.54C95.0534 424.35 94.8434 425.01 94.6734 425.54C94.6006 425.761 94.5504 425.989 94.5234 426.22Z" fill="#263238"/>
<path d="M46.6172 368.25C46.6172 368.33 47.9972 368.33 50.2072 368.46C53.0822 368.611 55.9447 368.945 58.7772 369.46C61.6041 370.008 64.3931 370.736 67.1272 371.64C68.2443 372.071 69.3824 372.444 70.5372 372.76C70.2782 372.565 69.9917 372.41 69.6872 372.3C69.1272 372.03 68.2972 371.68 67.2472 371.3C64.5267 370.3 61.7268 369.53 58.8772 369C56.0212 368.456 53.124 368.159 50.2172 368.11C49.1072 368.11 48.2172 368.11 47.5772 368.16C47.2545 368.141 46.9307 368.171 46.6172 368.25Z" fill="#263238"/>
<path d="M38.0547 410.07C39.2975 407.52 40.8674 405.144 42.7247 403C45.9047 399.53 49.5047 398 49.4047 397.82C48.5926 398.037 47.8174 398.374 47.1047 398.82C45.3352 399.843 43.7277 401.124 42.3347 402.62C40.9463 404.105 39.7899 405.79 38.9047 407.62C38.4845 408.383 38.1971 409.211 38.0547 410.07Z" fill="#263238"/>
<path d="M67.2541 326.87C67.1441 326.98 69.2541 329.05 71.5141 331.87C73.7741 334.69 75.4141 337.13 75.5141 337.05C74.5792 335.045 73.3599 333.186 71.8941 331.53C70.5799 329.761 69.0171 328.192 67.2541 326.87Z" fill="#263238"/>
<path d="M74.1103 315C73.239 317.945 72.722 320.983 72.5703 324.05C73.0693 322.599 73.4047 321.096 73.5703 319.57C73.9246 318.072 74.1058 316.539 74.1103 315Z" fill="#263238"/>
<path d="M95.3438 352.19C96.2921 354.595 97.4013 356.934 98.6638 359.19C99.7751 361.521 101.045 363.773 102.464 365.93C101.518 363.524 100.409 361.185 99.1438 358.93C98.0324 356.599 96.7628 354.347 95.3438 352.19Z" fill="#263238"/>
<path d="M108.002 339.57C106.911 341.168 105.967 342.862 105.182 344.63C104.242 346.317 103.461 348.088 102.852 349.92C103.943 348.328 104.884 346.637 105.662 344.87C106.605 343.18 107.389 341.406 108.002 339.57Z" fill="#263238"/>
<path d="M126.555 382.72C126.555 382.87 128.845 382.44 131.655 382.24C134.465 382.04 136.765 382.15 136.775 382C135.089 381.596 133.345 381.498 131.625 381.71C129.889 381.751 128.173 382.092 126.555 382.72Z" fill="#263238"/>
<path d="M113.877 420.87L107.557 454.1C107.354 455.166 106.786 456.128 105.949 456.82C105.113 457.512 104.062 457.89 102.977 457.89H84.3166C83.2134 457.891 82.1458 457.501 81.3035 456.788C80.4611 456.076 79.8988 455.088 79.7166 454L74.2266 420.87H113.877Z" fill="#263238"/>
<path d="M111.827 431.67H76.1166L74.2266 420.87H113.877L111.827 431.67Z" fill="#455A64"/>
<path d="M111.827 431.67L111.077 435.61H76.6672L76.1172 431.67H111.827Z" fill="#FAFAFA"/>
<path d="M387.174 427.82L387.964 447.18C387.964 447.18 368.544 454.49 368.344 458.08L405.944 457.9V427.68L387.174 427.82Z" fill="#263238"/>
<path d="M399.583 445.5C399.945 445.609 400.254 445.848 400.452 446.171C400.649 446.494 400.721 446.878 400.653 447.25C400.554 447.614 400.32 447.928 399.999 448.126C399.678 448.325 399.293 448.394 398.923 448.32C398.54 448.206 398.213 447.953 398.006 447.611C397.799 447.269 397.727 446.862 397.803 446.47C397.939 446.096 398.216 445.79 398.575 445.618C398.934 445.446 399.346 445.421 399.723 445.55" fill="#E0E0E0"/>
<path d="M405.943 457.9L405.823 454.9L369.823 456.21C369.823 456.21 368.153 456.95 368.343 458.13L405.943 457.9Z" fill="#455A64"/>
<path d="M387.353 447C387.353 447.18 388.273 447.26 389.183 447.84C390.093 448.42 390.573 449.2 390.743 449.13C390.913 449.06 390.633 447.99 389.523 447.3C388.413 446.61 387.313 446.83 387.353 447Z" fill="white"/>
<path d="M383.414 448.64C383.414 448.82 384.174 449.13 384.804 449.9C385.434 450.67 385.614 451.5 385.804 451.49C385.994 451.48 386.094 450.44 385.304 449.49C384.514 448.54 383.424 448.47 383.414 448.64Z" fill="white"/>
<path d="M381.199 453.37C381.359 453.37 381.609 452.49 381.139 451.49C380.669 450.49 379.799 450.09 379.719 450.25C379.639 450.41 380.179 450.93 380.559 451.76C380.939 452.59 380.999 453.36 381.199 453.37Z" fill="white"/>
<path d="M387.662 442.56C387.742 442.73 388.582 442.47 389.662 442.56C390.742 442.65 391.502 442.95 391.602 442.79C391.702 442.63 390.912 441.98 389.692 441.92C388.472 441.86 387.572 442.42 387.662 442.56Z" fill="white"/>
<path d="M445 432.33L449.88 455.26L448.51 474.51C448.487 474.838 448.531 475.168 448.641 475.478C448.75 475.789 448.922 476.073 449.146 476.314C449.371 476.555 449.642 476.748 449.944 476.879C450.245 477.011 450.571 477.079 450.9 477.08C451.281 477.08 451.657 476.989 451.996 476.816C452.335 476.642 452.628 476.389 452.85 476.08C455.73 472.08 466.25 457.15 465.85 455.49C465.32 453.57 462.31 430.96 462.31 430.96L445 432.33Z" fill="#263238"/>
<path d="M450.891 477.08L465.491 453.93L465.681 454.93C465.843 455.773 465.698 456.646 465.271 457.39C464.131 459.39 460.871 464.83 452.911 476.09C452.683 476.406 452.383 476.663 452.034 476.837C451.686 477.011 451.3 477.098 450.911 477.09L450.891 477.08Z" fill="#455A64"/>
<g opacity="0.6">
<path d="M459.361 447.39C459.123 447.657 458.992 448.002 458.992 448.36C458.992 448.718 459.123 449.063 459.361 449.33C459.613 449.586 459.955 449.735 460.314 449.746C460.673 449.757 461.023 449.63 461.291 449.39C461.545 449.107 461.686 448.74 461.686 448.36C461.686 447.98 461.545 447.613 461.291 447.33C460.999 447.097 460.629 446.985 460.257 447.017C459.885 447.048 459.539 447.221 459.291 447.5" fill="white"/>
</g>
<path d="M454.251 466C453.558 465.387 452.758 464.909 451.891 464.59C450.982 464.423 450.05 464.423 449.141 464.59C449.141 464.54 449.371 464.31 449.901 464.13C450.596 463.926 451.335 463.926 452.031 464.13C452.731 464.323 453.363 464.711 453.851 465.25C454.201 465.66 454.301 466 454.251 466Z" fill="white"/>
<path d="M453.194 469.41C452.462 469.169 451.718 468.969 450.964 468.81C450.196 468.814 449.428 468.857 448.664 468.94C449.343 468.442 450.182 468.214 451.02 468.301C451.857 468.388 452.632 468.783 453.194 469.41Z" fill="white"/>
<path d="M456.565 461.49C454.43 460.381 452.018 459.923 449.625 460.17C450.788 459.707 452.058 459.586 453.287 459.82C454.516 460.053 455.653 460.633 456.565 461.49Z" fill="white"/>
<path d="M455.666 454.39C455.666 454.54 454.256 454.25 452.586 454.51C450.916 454.77 449.686 455.4 449.586 455.27C450.424 454.593 451.429 454.154 452.495 453.999C453.562 453.844 454.65 453.979 455.646 454.39H455.666Z" fill="white"/>
<path d="M454.401 447.63C453.337 447.48 452.256 447.48 451.191 447.63C450.165 447.943 449.186 448.393 448.281 448.97C448.281 448.97 448.431 448.59 448.901 448.19C449.532 447.667 450.28 447.303 451.081 447.13C451.877 446.942 452.706 446.942 453.501 447.13C454.101 447.35 454.421 447.57 454.401 447.63Z" fill="white"/>
<path d="M451.003 446.36C450.873 446.092 450.805 445.798 450.803 445.5C450.73 444.684 450.819 443.862 451.063 443.08C451.197 442.498 451.516 441.975 451.973 441.59C452.137 441.48 452.33 441.422 452.528 441.422C452.725 441.422 452.918 441.48 453.083 441.59C453.391 441.839 453.592 442.197 453.643 442.59C453.736 443.373 453.553 444.163 453.126 444.826C452.699 445.488 452.054 445.981 451.303 446.22C450.556 446.444 449.759 446.439 449.014 446.208C448.27 445.976 447.611 445.528 447.123 444.92C446.999 444.766 446.911 444.587 446.862 444.395C446.814 444.204 446.807 444.004 446.843 443.81C446.907 443.624 447.025 443.461 447.182 443.342C447.338 443.223 447.526 443.153 447.723 443.14C448.314 443.154 448.891 443.327 449.393 443.64C450.111 444.022 450.758 444.526 451.303 445.13C451.52 445.336 451.694 445.585 451.813 445.86C451.047 445.107 450.179 444.468 449.233 443.96C448.781 443.714 448.277 443.577 447.763 443.56C447.654 443.562 447.548 443.599 447.462 443.666C447.375 443.733 447.313 443.825 447.283 443.93C447.269 444.058 447.283 444.187 447.323 444.309C447.362 444.432 447.427 444.544 447.513 444.64C447.95 445.153 448.526 445.529 449.172 445.722C449.818 445.915 450.505 445.918 451.153 445.73C451.777 445.512 452.311 445.093 452.673 444.54C453.034 443.986 453.203 443.329 453.153 442.67C453.117 442.403 452.986 442.157 452.783 441.98C452.695 441.914 452.588 441.879 452.478 441.879C452.368 441.879 452.261 441.914 452.173 441.98C451.787 442.305 451.511 442.742 451.383 443.23C451.078 444.244 450.949 445.303 451.003 446.36Z" fill="white"/>
<path d="M373.329 270.37C373.329 270.37 373.169 280.57 373.849 293.74C374.109 298.84 384.849 440.6 384.849 440.6L408.029 441.18L404.839 308.69L408.839 309.69C408.839 309.69 421.049 353.87 423.709 363.98C426.869 375.98 443.879 444.2 443.879 444.2L465.069 444.98L451.129 365.07L439.099 289L436.689 266.88L373.329 270.37Z" fill="#455A64"/>
<path d="M408.846 295.29C408.534 295.502 408.198 295.677 407.846 295.81C406.928 296.246 405.956 296.559 404.956 296.74C404.248 296.868 403.523 296.868 402.816 296.74C401.986 296.584 401.218 296.191 400.606 295.61C399.975 294.935 399.531 294.108 399.316 293.21C399.066 292.3 398.936 291.36 398.766 290.41C398.116 286.57 397.706 283.07 397.476 280.53C397.366 279.26 397.296 278.23 397.256 277.53C397.217 277.161 397.217 276.789 397.256 276.42C397.364 276.774 397.428 277.14 397.446 277.51C397.546 278.32 397.676 279.32 397.826 280.51C398.136 283.04 398.606 286.51 399.246 290.34C399.576 292.24 399.786 294.16 400.926 295.34C401.465 295.817 402.104 296.167 402.796 296.366C403.488 296.565 404.215 296.607 404.926 296.49C405.908 296.34 406.87 296.082 407.796 295.72C408.127 295.535 408.48 295.391 408.846 295.29Z" fill="#263238"/>
<path d="M402.314 277.16C402.314 277.16 402.464 277.05 402.794 277.03C403.259 277.036 403.708 277.194 404.074 277.48C404.359 277.692 404.592 277.966 404.755 278.281C404.918 278.597 405.007 278.945 405.014 279.3C404.976 279.747 404.809 280.172 404.533 280.526C404.258 280.879 403.885 281.144 403.461 281.29C403.037 281.435 402.58 281.453 402.146 281.343C401.711 281.233 401.318 280.999 401.014 280.67C400.803 280.388 400.658 280.061 400.59 279.715C400.523 279.368 400.534 279.011 400.624 278.67C400.728 278.212 400.99 277.804 401.364 277.52C401.624 277.32 401.804 277.3 401.814 277.32C401.386 277.69 401.087 278.188 400.964 278.74C400.907 279.026 400.914 279.321 400.983 279.604C401.052 279.888 401.182 280.152 401.364 280.38C401.605 280.632 401.916 280.805 402.256 280.878C402.597 280.951 402.951 280.921 403.274 280.79C403.608 280.694 403.905 280.5 404.127 280.232C404.348 279.964 404.483 279.636 404.514 279.29C404.517 278.998 404.456 278.708 404.335 278.442C404.214 278.176 404.036 277.94 403.814 277.75C403.387 277.403 402.863 277.197 402.314 277.16Z" fill="#263238"/>
<path d="M438.814 287.63C438.559 287.711 438.291 287.748 438.024 287.74C437.298 287.788 436.57 287.788 435.844 287.74C431.022 287.318 426.491 285.257 423.004 281.9C422.478 281.397 421.99 280.855 421.544 280.28C421.364 280.082 421.212 279.86 421.094 279.62C421.164 279.57 421.884 280.44 423.244 281.62C425.012 283.179 427 284.469 429.144 285.45C431.297 286.414 433.582 287.051 435.924 287.34C437.684 287.58 438.814 287.54 438.814 287.63Z" fill="#263238"/>
<path d="M382.685 277.1C382.457 277.902 382.149 278.68 381.765 279.42C380.947 281.152 379.94 282.788 378.765 284.3C377.689 285.706 376.439 286.969 375.045 288.06C374.527 288.514 373.939 288.882 373.305 289.15C373.814 288.659 374.352 288.199 374.915 287.77C376.241 286.615 377.453 285.336 378.535 283.95C379.666 282.464 380.67 280.885 381.535 279.23C382.255 277.92 382.635 277.06 382.685 277.1Z" fill="#263238"/>
<path d="M396.004 130.59C396.355 126.08 398.392 121.868 401.709 118.792C405.026 115.716 409.38 114.001 413.904 113.99H414.834C424.884 114.55 430.024 123.4 429.184 133.43L427.004 164.62L409.094 183.24L404.514 172.11V164.7C404.514 164.7 394.854 163.22 394.704 153.57C394.684 148.9 395.324 139.28 396.004 130.59Z" fill="#FFBE9D"/>
<path d="M404.484 164.69C408.967 164.693 413.356 163.412 417.134 161C417.134 161 414.134 168 404.534 167.11L404.484 164.69Z" fill="#EB996E"/>
<path d="M398.586 138.64C398.586 138.997 398.724 139.341 398.972 139.599C399.22 139.856 399.559 140.007 399.916 140.02C400.091 140.034 400.267 140.012 400.434 139.957C400.6 139.902 400.754 139.814 400.886 139.698C401.019 139.583 401.126 139.442 401.204 139.284C401.281 139.127 401.326 138.955 401.336 138.78C401.341 138.42 401.205 138.072 400.956 137.812C400.707 137.552 400.366 137.4 400.006 137.39C399.83 137.376 399.653 137.398 399.486 137.454C399.319 137.51 399.164 137.599 399.032 137.715C398.9 137.832 398.792 137.974 398.715 138.132C398.639 138.291 398.595 138.464 398.586 138.64Z" fill="#263238"/>
<path d="M398.083 135.31C398.263 135.49 399.303 134.71 400.783 134.71C402.263 134.71 403.363 135.45 403.523 135.27C403.683 135.09 403.423 134.86 402.953 134.52C402.312 134.072 401.545 133.837 400.763 133.85C399.99 133.848 399.237 134.094 398.613 134.55C398.153 134.9 398.003 135.23 398.083 135.31Z" fill="#263238"/>
<path d="M412 139C412 139.36 412.139 139.706 412.389 139.966C412.639 140.225 412.98 140.377 413.34 140.39C413.516 140.402 413.692 140.379 413.858 140.323C414.025 140.267 414.179 140.178 414.311 140.061C414.443 139.945 414.551 139.804 414.628 139.646C414.705 139.488 414.75 139.316 414.76 139.14C414.76 138.78 414.621 138.434 414.371 138.174C414.121 137.915 413.78 137.763 413.42 137.75C413.244 137.736 413.067 137.758 412.9 137.814C412.733 137.87 412.579 137.959 412.446 138.075C412.314 138.192 412.206 138.334 412.129 138.492C412.053 138.651 412.009 138.824 412 139Z" fill="#263238"/>
<path d="M412.676 135.54C412.856 135.72 413.896 134.95 415.376 134.95C416.856 134.95 417.956 135.68 418.116 135.5C418.276 135.32 418.016 135.1 417.546 134.75C416.901 134.31 416.136 134.08 415.356 134.09C414.583 134.086 413.829 134.331 413.206 134.79C412.756 135.14 412.596 135.46 412.676 135.54Z" fill="#263238"/>
<path d="M407.32 146.57C406.539 146.32 405.728 146.175 404.91 146.14C404.53 146.14 404.17 146.02 404.1 145.77C404.07 145.377 404.157 144.984 404.35 144.64L405.47 141.75C407.01 137.64 408.13 134.26 407.96 134.2C407.79 134.14 406.41 137.42 404.86 141.53C404.49 142.53 404.14 143.53 403.8 144.44C403.562 144.898 403.494 145.426 403.61 145.93C403.664 146.063 403.748 146.182 403.856 146.277C403.963 146.372 404.091 146.442 404.23 146.48C404.439 146.535 404.653 146.566 404.87 146.57C405.683 146.671 406.506 146.671 407.32 146.57Z" fill="#263238"/>
<path d="M411.689 147.58C411.449 147.58 411.449 149.18 410.069 150.32C408.689 151.46 406.979 151.32 406.969 151.53C406.959 151.74 407.349 151.84 408.079 151.85C409.024 151.869 409.944 151.546 410.669 150.94C411.37 150.366 411.819 149.54 411.919 148.64C411.999 148 411.799 147.57 411.689 147.58Z" fill="#263238"/>
<path d="M412.283 129.73C412.423 130.13 413.903 129.93 415.653 130.14C417.403 130.35 418.803 130.82 419.033 130.45C419.133 130.28 418.883 129.9 418.323 129.51C417.563 129.033 416.704 128.735 415.811 128.64C414.919 128.544 414.017 128.654 413.173 128.96C412.533 129.22 412.213 129.54 412.283 129.73Z" fill="#263238"/>
<path d="M398.619 131C398.879 131.34 399.899 131 401.129 131C402.359 131 403.399 131.22 403.639 130.87C403.749 130.7 403.579 130.36 403.119 130.04C402.522 129.662 401.825 129.473 401.119 129.5C400.397 129.511 399.698 129.749 399.119 130.18C398.639 130.5 398.499 130.84 398.619 131Z" fill="#263238"/>
<path d="M392.422 122.14C392.495 121.697 392.727 121.296 393.075 121.012C393.424 120.728 393.863 120.582 394.312 120.6C393.843 120.481 393.399 120.278 393.002 120C392.802 119.845 392.65 119.638 392.562 119.401C392.473 119.164 392.453 118.908 392.502 118.66C392.732 117.91 393.682 117.73 394.432 117.49C395.419 117.181 396.284 116.569 396.902 115.74C397.792 114.56 398.102 113.04 398.852 111.74C399.345 110.914 400.016 110.21 400.817 109.679C401.619 109.147 402.529 108.803 403.481 108.67C404.433 108.538 405.403 108.621 406.319 108.913C407.235 109.206 408.073 109.7 408.772 110.36C409.491 109.577 410.387 108.977 411.385 108.609C412.383 108.242 413.454 108.118 414.509 108.249C415.565 108.379 416.574 108.759 417.452 109.357C418.331 109.956 419.055 110.756 419.562 111.69C420.835 111.115 422.238 110.894 423.626 111.048C425.014 111.203 426.334 111.728 427.449 112.569C428.564 113.409 429.432 114.535 429.962 115.826C430.492 117.118 430.665 118.529 430.462 119.91L424.562 123.76C424.498 123.31 424.341 122.878 424.1 122.492C423.859 122.106 423.539 121.775 423.162 121.521C422.785 121.266 422.359 121.094 421.911 121.014C421.463 120.935 421.004 120.951 420.562 121.06C418.762 121.64 417.662 123.77 415.782 123.97C414.312 124.12 413.032 123.02 411.602 122.68C409.814 122.427 407.998 122.875 406.532 123.93C405.087 124.979 403.51 125.833 401.842 126.47C399.784 126.937 397.632 126.741 395.692 125.91C394.837 125.635 394.052 125.178 393.392 124.57C393.045 124.275 392.775 123.899 392.606 123.475C392.437 123.052 392.374 122.593 392.422 122.14Z" fill="#263238"/>
<path d="M423.392 121L395.852 121.63C396.779 119.762 398.153 118.151 399.852 116.94C403.429 114.17 407.789 112.599 412.312 112.45C416.802 112.37 425.952 117.83 429.212 120.92C431.812 123.4 431.802 125.55 431.802 125.55C432.212 129.12 430.222 133.18 429.422 136.68C429.022 138.49 428.232 143.96 428.232 143.96C426.712 143.96 426.152 142.75 426.372 141.25L426.652 135.36C425.131 134.152 424.049 132.479 423.57 130.597C423.092 128.715 423.243 126.728 424.002 124.94C424.372 124.4 425.212 122 423.392 121Z" fill="#263238"/>
<path d="M427.123 134.91C428.393 129.99 429.523 124.73 427.903 119.91L428.713 119.85L429.063 120.09C429.832 119.804 430.672 119.771 431.461 119.997C432.25 120.222 432.946 120.693 433.448 121.341C433.951 121.99 434.233 122.782 434.253 123.602C434.274 124.422 434.032 125.227 433.563 125.9C434.381 125.868 435.183 126.138 435.815 126.657C436.447 127.177 436.866 127.911 436.993 128.72C437.026 129.853 436.75 130.973 436.193 131.96C435.639 132.945 435.314 134.042 435.243 135.17C435.224 135.735 435.403 136.289 435.75 136.735C436.098 137.181 436.591 137.491 437.143 137.61C436.891 138.189 436.447 138.664 435.886 138.955C435.326 139.246 434.682 139.336 434.063 139.21C434.498 140.159 435.191 140.967 436.063 141.54C434.303 142.81 431.833 142.47 429.853 141.54C428.635 141.089 427.624 140.207 427.013 139.06C426.607 137.7 426.645 136.246 427.123 134.91Z" fill="#263238"/>
<path d="M427.733 140.58C427.903 140.51 434.373 138.58 434.173 145.2C433.973 151.82 427.393 150.25 427.383 150.06C427.373 149.87 427.733 140.58 427.733 140.58Z" fill="#FFBE9D"/>
<path d="M428.896 147.62C428.896 147.62 429.016 147.7 429.206 147.8C429.482 147.91 429.79 147.91 430.066 147.8C430.498 147.539 430.854 147.168 431.098 146.726C431.342 146.284 431.465 145.785 431.456 145.28C431.485 144.716 431.39 144.153 431.176 143.63C431.122 143.422 431.018 143.231 430.873 143.072C430.729 142.914 430.548 142.793 430.346 142.72C430.215 142.681 430.075 142.689 429.949 142.742C429.823 142.794 429.719 142.889 429.656 143.01C429.556 143.2 429.596 143.33 429.566 143.34C429.536 143.35 429.426 143.22 429.486 142.95C429.525 142.789 429.621 142.647 429.756 142.55C429.846 142.482 429.95 142.434 430.06 142.408C430.17 142.382 430.284 142.379 430.396 142.4C430.665 142.461 430.915 142.591 431.12 142.777C431.324 142.962 431.478 143.198 431.566 143.46C431.834 144.038 431.955 144.674 431.916 145.31C431.929 145.898 431.769 146.477 431.456 146.974C431.143 147.472 430.691 147.867 430.156 148.11C429.984 148.149 429.807 148.152 429.634 148.118C429.462 148.083 429.299 148.012 429.156 147.91C428.906 147.78 428.876 147.63 428.896 147.62Z" fill="#EB996E"/>
<path d="M434.422 134.91C434.422 134.91 434.602 134.66 434.522 134.14C434.447 133.782 434.293 133.446 434.072 133.156C433.85 132.865 433.567 132.627 433.242 132.46C432.297 132.044 431.276 131.826 430.242 131.82C429.655 131.838 429.073 131.715 428.542 131.463C428.012 131.211 427.549 130.836 427.192 130.37C426.614 129.322 426.396 128.114 426.572 126.93C426.702 125.82 426.962 124.8 427.082 123.93C427.322 122.999 427.28 122.018 426.962 121.11C426.987 122.036 426.91 122.961 426.732 123.87C426.562 124.72 426.262 125.7 426.102 126.87C425.886 128.168 426.118 129.502 426.762 130.65C427.146 131.24 427.711 131.689 428.372 131.93C428.962 132.134 429.579 132.252 430.202 132.28C431.198 132.26 432.188 132.426 433.122 132.77C433.414 132.91 433.675 133.107 433.89 133.349C434.104 133.591 434.268 133.874 434.372 134.18C434.411 134.421 434.428 134.666 434.422 134.91Z" fill="#455A64"/>
<path d="M435.936 132C435.936 132 436.076 131.81 436.126 131.4C436.16 130.902 436.069 130.403 435.861 129.949C435.653 129.495 435.335 129.1 434.936 128.8C434.553 128.526 434.117 128.335 433.656 128.24C433.21 128.161 432.782 127.998 432.396 127.76C432.222 127.615 432.083 127.433 431.99 127.227C431.896 127.021 431.851 126.796 431.856 126.57C431.856 126.07 431.856 125.57 431.856 125.01C431.802 123.65 431.38 122.33 430.636 121.19C430.481 120.93 430.263 120.712 430.003 120.557C429.743 120.402 429.449 120.313 429.146 120.3C428.716 120.3 428.536 120.52 428.556 120.53C428.576 120.54 428.776 120.45 429.136 120.53C429.392 120.575 429.633 120.679 429.841 120.833C430.05 120.988 430.219 121.189 430.336 121.42C430.734 122.115 431.021 122.867 431.186 123.65C431.29 124.113 431.347 124.585 431.356 125.06C431.356 125.54 431.356 126.06 431.356 126.63C431.354 126.93 431.419 127.228 431.547 127.499C431.675 127.771 431.863 128.011 432.096 128.2C432.544 128.469 433.04 128.649 433.556 128.73C433.938 128.785 434.304 128.92 434.63 129.127C434.956 129.334 435.234 129.608 435.446 129.93C435.817 130.554 435.988 131.276 435.936 132Z" fill="#455A64"/>
<path d="M396.859 115.71C396.859 115.71 397.359 116.05 398.219 115.62C398.695 115.346 399.107 114.974 399.429 114.53C399.833 113.97 400.338 113.492 400.919 113.12C401.683 112.668 402.561 112.446 403.447 112.48C404.334 112.513 405.192 112.802 405.919 113.31C406.749 113.88 407.489 114.69 408.459 115.31C408.959 115.666 409.528 115.911 410.129 116.03C410.766 116.116 411.415 116.034 412.009 115.79C413.179 115.33 414.099 114.58 415.109 114.18C416.085 113.769 417.131 113.548 418.189 113.53C420.001 113.483 421.778 114.038 423.239 115.11C424.225 115.831 425.052 116.746 425.669 117.8C426.109 118.56 426.269 119.02 426.309 119C426.349 118.98 426.309 118.88 426.229 118.65C426.128 118.327 426.001 118.013 425.849 117.71C425.275 116.58 424.455 115.592 423.449 114.82C421.946 113.655 420.091 113.034 418.189 113.06C417.068 113.064 415.957 113.285 414.919 113.71C413.829 114.15 412.919 114.9 411.819 115.31C411.312 115.527 410.755 115.599 410.209 115.52C409.68 115.418 409.178 115.203 408.739 114.89C407.839 114.28 407.079 113.48 406.179 112.89C405.332 112.295 404.315 111.99 403.279 112.02C402.381 112.046 401.505 112.308 400.739 112.78C400.134 113.185 399.617 113.709 399.219 114.32C398.933 114.755 398.562 115.129 398.129 115.42C397.752 115.661 397.304 115.763 396.859 115.71Z" fill="#455A64"/>
<path d="M358.162 203.23L323.992 176.23L319.122 171.12C319.122 171.12 307.482 160.25 306.502 159.06C305.362 157.69 304.422 157.91 303.952 158.36C303.202 159.07 303.452 160.51 304.392 161.71C304.722 162.13 310.112 168.5 310.112 168.5C309.236 168.209 308.34 167.979 307.432 167.81C305.482 167.4 302.682 168.57 300.432 170.54C298.182 172.51 297.762 173.27 298.492 174.17C298.637 174.332 298.817 174.461 299.017 174.545C299.218 174.63 299.435 174.669 299.652 174.66C300.37 174.665 301.064 174.405 301.602 173.93C305.202 170.81 307.822 171.93 307.822 171.93L308.462 172.6C308.462 172.6 304.912 172.87 303.692 175.02C303.514 175.327 303.398 175.667 303.352 176.02C302.856 176.44 302.477 176.982 302.254 177.593C302.031 178.204 301.971 178.862 302.08 179.503C302.189 180.144 302.463 180.746 302.876 181.249C303.288 181.751 303.825 182.138 304.432 182.37C304.714 182.512 305.032 182.564 305.345 182.522C305.657 182.479 305.949 182.342 306.182 182.13C306.361 181.846 306.471 181.524 306.502 181.19C306.527 181.017 306.567 180.846 306.622 180.68L308.672 182.3C308.672 182.3 313.462 185.7 315.382 187.42L344.002 218.53C344.944 219.552 346.079 220.376 347.342 220.955C348.605 221.534 349.971 221.855 351.36 221.901C352.748 221.947 354.132 221.715 355.431 221.221C356.729 220.726 357.916 219.978 358.922 219.02C360.005 217.984 360.853 216.727 361.408 215.336C361.964 213.944 362.214 212.449 362.142 210.952C362.07 209.455 361.677 207.991 360.991 206.659C360.304 205.327 359.34 204.157 358.162 203.23Z" fill="#FFBE9D"/>
<path d="M322.575 176.67C322.267 177.005 321.864 177.236 321.419 177.33C320.975 177.425 320.512 177.38 320.095 177.2C319.235 176.91 318.505 176.33 317.665 175.98C315.175 174.92 312.125 175.98 309.665 174.78C309.315 174.62 308.955 174.31 309.035 173.94C309.115 173.57 309.535 173.47 309.875 173.41L318.705 171.72" fill="#FFBE9D"/>
<path d="M318.722 171.72C318.387 171.7 318.05 171.727 317.722 171.8C317.102 171.89 316.212 172.03 315.112 172.22L311.232 172.91L310.122 173.11C309.653 173.125 309.208 173.322 308.882 173.66C308.796 173.785 308.75 173.933 308.75 174.085C308.75 174.237 308.796 174.385 308.882 174.51C309.029 174.709 309.221 174.87 309.442 174.98C309.842 175.169 310.261 175.317 310.692 175.42C312.293 175.636 313.907 175.743 315.522 175.74C316.207 175.78 316.881 175.925 317.522 176.17C318.076 176.415 318.617 176.689 319.142 176.99C319.532 177.236 319.972 177.394 320.429 177.453C320.887 177.512 321.352 177.47 321.792 177.33C322.422 177.06 322.552 176.66 322.532 176.67C322.292 176.869 322.022 177.027 321.732 177.14C321.318 177.234 320.889 177.241 320.472 177.16C320.056 177.079 319.661 176.912 319.312 176.67C318.789 176.344 318.248 176.047 317.692 175.78C317.024 175.498 316.315 175.326 315.592 175.27C314 175.249 312.41 175.132 310.832 174.92C310.443 174.829 310.064 174.699 309.702 174.53C309.372 174.36 309.162 174.08 309.292 173.93C309.422 173.78 309.812 173.66 310.192 173.59L311.302 173.37L315.152 172.58C316.252 172.34 317.152 172.15 317.742 172C318.079 171.946 318.408 171.852 318.722 171.72Z" fill="#EB996E"/>
<path d="M308.592 172.57C308.18 172.173 307.685 171.872 307.142 171.69C306.548 171.539 305.921 171.581 305.352 171.81C304.649 172.106 303.995 172.507 303.412 173C302.813 173.515 302.163 173.968 301.472 174.35C300.888 174.669 300.228 174.825 299.562 174.8C299.334 174.789 299.112 174.726 298.912 174.615C298.713 174.504 298.542 174.348 298.412 174.16C298.311 174.027 298.252 173.867 298.242 173.7C298.242 173.7 298.332 173.85 298.512 174.08C298.645 174.234 298.809 174.357 298.994 174.442C299.178 174.527 299.379 174.57 299.582 174.57C300.198 174.558 300.8 174.389 301.332 174.08C301.998 173.691 302.627 173.243 303.212 172.74C303.81 172.231 304.485 171.819 305.212 171.52C305.853 171.275 306.559 171.257 307.212 171.47C307.634 171.609 308.015 171.85 308.322 172.17C308.542 172.41 308.612 172.56 308.592 172.57Z" fill="#EB996E"/>
<path d="M304 161.24C304.397 161.627 304.758 162.049 305.08 162.5L307.6 165.6L310.17 168.66C310.537 169.066 310.871 169.501 311.17 169.96C310.727 169.625 310.321 169.242 309.96 168.82C309.25 168.07 308.31 167.02 307.31 165.82C306.31 164.62 305.45 163.49 304.85 162.65C304.513 162.215 304.228 161.741 304 161.24Z" fill="#EB996E"/>
<path d="M308.35 175.23C308.193 175.301 308.029 175.355 307.86 175.39C307.648 175.443 307.45 175.539 307.278 175.674C307.105 175.808 306.963 175.977 306.86 176.17C306.808 176.303 306.791 176.448 306.81 176.589C306.829 176.731 306.885 176.866 306.97 176.98C307.191 177.263 307.443 177.522 307.72 177.75C308.081 178.034 308.326 178.439 308.41 178.89C308.425 179.138 308.383 179.387 308.285 179.616C308.188 179.845 308.039 180.048 307.85 180.21C307.663 180.366 307.446 180.482 307.212 180.551C306.978 180.62 306.732 180.64 306.49 180.61C306.043 180.57 305.617 180.396 305.27 180.11C304.745 179.625 304.294 179.066 303.93 178.45C303.674 178.039 303.485 177.59 303.37 177.12C303.31 176.78 303.37 176.59 303.37 176.59C303.37 176.59 303.37 176.78 303.49 177.09C303.639 177.528 303.852 177.943 304.12 178.32C304.492 178.897 304.939 179.422 305.45 179.88C305.753 180.131 306.129 180.275 306.522 180.289C306.914 180.304 307.301 180.188 307.62 179.96C307.766 179.838 307.883 179.685 307.961 179.512C308.039 179.339 308.076 179.15 308.07 178.96C308.003 178.587 307.8 178.253 307.5 178.02C307.208 177.768 306.949 177.479 306.73 177.16C306.624 177.008 306.56 176.831 306.544 176.647C306.528 176.463 306.562 176.277 306.64 176.11C306.763 175.891 306.935 175.704 307.144 175.565C307.352 175.426 307.591 175.339 307.84 175.31C308.004 175.251 308.177 175.224 308.35 175.23Z" fill="#EB996E"/>
<path d="M306.4 180.33C306.4 180.33 306.56 180.42 306.67 180.72C306.737 180.934 306.753 181.161 306.719 181.383C306.684 181.605 306.599 181.816 306.47 182C306.264 182.265 305.992 182.472 305.682 182.6C305.371 182.728 305.033 182.773 304.7 182.73C303.91 182.611 303.196 182.196 302.7 181.57C302.189 180.955 301.882 180.197 301.82 179.4C301.785 178.862 301.871 178.322 302.07 177.821C302.268 177.319 302.576 176.868 302.97 176.5C303.2 176.3 303.35 176.22 303.36 176.24C302.978 176.652 302.658 177.116 302.41 177.62C302.147 178.231 302.058 178.903 302.153 179.561C302.248 180.22 302.524 180.839 302.95 181.35C303.402 181.923 304.05 182.308 304.77 182.43C305.054 182.471 305.343 182.44 305.612 182.341C305.881 182.241 306.121 182.076 306.31 181.86C306.43 181.704 306.515 181.525 306.56 181.333C306.605 181.142 306.608 180.943 306.57 180.75C306.48 180.48 306.38 180.34 306.4 180.33Z" fill="#EB996E"/>
<path d="M314.391 180.94C314.391 180.94 314.561 180.68 315.011 180.43C315.627 180.116 316.329 180.011 317.011 180.13L316.841 180.37C316.633 180.047 316.443 179.713 316.271 179.37C315.62 178.22 315.308 176.91 315.371 175.59C315.641 176.839 316.043 178.056 316.571 179.22C316.741 179.56 316.931 179.88 317.111 180.17L317.311 180.49L316.951 180.41C316.324 180.286 315.675 180.345 315.081 180.58C314.651 180.79 314.421 181 314.391 180.94Z" fill="#EB996E"/>
<path d="M305.171 170.12C305.261 170.12 305.401 170.76 305.031 171.47C304.661 172.18 304.031 172.47 304.031 172.39C304.031 172.31 304.431 171.95 304.741 171.32C305.051 170.69 305.081 170.12 305.171 170.12Z" fill="#EB996E"/>
<path d="M356.614 221.19L376.344 207.53C376.344 207.53 374.614 260.43 374.614 260.92C374.614 260.92 371.004 262.35 371.614 266.13L372.614 271.46C394.344 276.46 415.874 279.69 437.784 271.62L440.274 229.48L448.004 178L430.374 170.5L427.374 163.5L409.114 183.17L404.444 170.47L404.574 165.68L400.154 170.48L378.754 174L352.094 195.61L343.354 188.54L330.164 206.86L345.164 222C348.963 223.025 352.997 222.74 356.614 221.19Z" fill="#8ABD97"/>
<path d="M406.43 180.84C405.859 181.164 405.409 181.666 405.15 182.27C404.877 182.964 404.745 183.705 404.76 184.45C404.809 185.467 404.667 186.485 404.34 187.45L404.12 187.97L403.9 187.45C403.308 185.965 402.84 184.433 402.5 182.87C401.75 179.63 401.27 176.66 400.94 174.51C400.721 173.356 400.597 172.185 400.57 171.01C400.89 172.14 401.137 173.289 401.31 174.45C401.72 176.58 402.26 179.53 403.01 182.75C403.34 184.284 403.785 185.792 404.34 187.26H403.9C404.209 186.362 404.365 185.419 404.36 184.47C404.372 183.681 404.552 182.903 404.89 182.19C405.096 181.715 405.446 181.316 405.89 181.05C406.23 180.83 406.42 180.82 406.43 180.84Z" fill="#263238"/>
<path d="M429.384 172.93C429.223 173.245 429.021 173.538 428.784 173.8C428.364 174.34 427.784 175.11 426.984 176.05C425.444 177.93 423.304 180.5 420.904 183.32L417.084 187.78L416.794 188.12L416.684 187.68C416.134 185.51 415.684 183.68 415.404 182.38C415.284 181.74 414.924 181.38 414.574 181.38C414.403 181.371 414.233 181.421 414.094 181.52C414.094 181.52 414.164 181.26 414.574 181.23C414.696 181.229 414.818 181.252 414.931 181.298C415.044 181.345 415.147 181.413 415.234 181.5C415.444 181.738 415.595 182.022 415.674 182.33C416.044 183.61 416.554 185.42 417.134 187.59L416.734 187.49L420.504 183C422.904 180.18 425.094 177.65 426.704 175.83C427.504 174.92 428.164 174.19 428.624 173.69C428.845 173.407 429.1 173.151 429.384 172.93Z" fill="#263238"/>
<path d="M403.006 255.74C402.962 255.516 402.946 255.288 402.956 255.06C402.956 254.57 402.956 253.93 402.956 253.14C402.956 251.47 402.956 249.05 402.956 246.06C403.026 240.06 403.306 231.83 403.956 222.74C404.606 213.65 405.586 205.43 406.406 199.51C406.816 196.51 407.176 194.16 407.456 192.51L407.776 190.62C407.815 190.398 407.865 190.177 407.926 189.96C407.955 190.182 407.955 190.408 407.926 190.63C407.866 191.12 407.786 191.76 407.696 192.54C407.476 194.26 407.176 196.64 406.806 199.54C406.086 205.47 405.196 213.67 404.516 222.76C403.836 231.85 403.516 240.08 403.326 246.05C403.256 248.99 403.206 251.39 403.166 253.12C403.166 253.913 403.146 254.553 403.106 255.04C403.088 255.275 403.055 255.509 403.006 255.74Z" fill="#263238"/>
<path d="M397.999 267.88C397.561 266.444 397.404 264.936 397.539 263.44C397.486 261.946 397.641 260.452 397.999 259C398.141 260.48 398.141 261.97 397.999 263.45C397.939 265.89 398.099 267.86 397.999 267.88Z" fill="#263238"/>
<path d="M423.366 253.33C422.855 253.576 422.323 253.777 421.776 253.93C420.776 254.29 419.216 254.77 417.336 255.32C412.42 256.737 407.433 257.895 402.396 258.79C397.362 259.68 392.285 260.31 387.186 260.68C385.186 260.81 383.636 260.89 382.536 260.91C381.97 260.957 381.402 260.957 380.836 260.91C381.393 260.8 381.958 260.737 382.526 260.72L387.156 260.33C391.046 259.97 396.426 259.33 402.306 258.33C408.186 257.33 413.456 256 417.236 255L421.716 253.78C422.255 253.592 422.806 253.442 423.366 253.33Z" fill="#263238"/>
<path d="M376.284 219.65C376.144 219.65 376.054 212.29 376.084 203.22C376.114 194.15 376.264 186.79 376.404 186.79C376.544 186.79 376.634 194.15 376.604 203.22C376.574 212.29 376.434 219.65 376.284 219.65Z" fill="#263238"/>
<g opacity="0.3">
<path d="M410.813 184.94C411.353 184.921 411.884 185.084 412.319 185.403C412.755 185.722 413.07 186.179 413.213 186.7C413.413 187.77 413.263 188.9 413.543 189.96C413.823 191.02 414.793 192.05 415.863 191.83C416.5 191.62 417.042 191.191 417.393 190.62C419.493 187.777 421.177 184.649 422.393 181.33C422.393 181.41 416.853 187.69 416.853 187.69C416.648 186.102 416.23 184.548 415.613 183.07C415.433 182.59 415.213 181.77 414.753 181.56C414.003 181.21 413.003 182.31 412.503 182.98C411.992 183.657 411.412 184.281 410.773 184.84" fill="black"/>
</g>
<g opacity="0.3">
<path d="M401.781 179.23C401.881 182.746 402.556 186.222 403.781 189.52C403.887 189.856 404.073 190.161 404.321 190.41C404.448 190.542 404.615 190.628 404.796 190.655C404.977 190.682 405.161 190.649 405.321 190.56C405.725 189.885 406.06 189.171 406.321 188.43C406.831 187 408.911 186.87 408.911 186.87C408.564 185.255 408.11 183.665 407.551 182.11C407.451 181.854 407.272 181.635 407.04 181.486C406.809 181.337 406.536 181.265 406.261 181.28C405.901 181.4 405.579 181.615 405.329 181.901C405.079 182.188 404.911 182.536 404.841 182.91C404.531 185.47 404.571 186.65 404.191 187.55C403.191 184.81 402.431 181.55 401.791 179.14" fill="black"/>
</g>
<g opacity="0.3">
<path d="M417.12 255C417.357 254.83 417.558 254.615 417.71 254.367C417.863 254.119 417.964 253.843 418.009 253.556C418.054 253.268 418.041 252.974 417.97 252.692C417.9 252.409 417.774 252.143 417.6 251.91C417.228 251.455 416.743 251.107 416.194 250.9C415.644 250.693 415.05 250.634 414.47 250.73C413.315 250.931 412.228 251.419 411.31 252.15C410.36 252.84 409.49 253.62 408.49 254.23C406.04 255.74 403.06 256.08 400.18 256.13C397.305 256.011 394.424 256.138 391.57 256.51C388.75 257.06 385.93 258.51 384.57 261.05C384.56 261 409.15 259.25 417.12 255Z" fill="black"/>
</g>
<path d="M448.002 178C448.002 178 455.442 183.3 457.242 188.1C459.042 192.9 465.692 225.87 466.772 231.5C468.142 238.58 468.182 247.34 457.992 250.67C454.202 251.9 430.992 250.01 430.992 250.01L431.752 233.52L444.282 233.99C444.282 233.99 443.532 232.88 445.332 231.54L441.332 210.09C441.332 210.09 442.802 187.31 442.982 186.77C443.162 186.23 448.002 178 448.002 178Z" fill="#8ABD97"/>
<path d="M448.399 178.57C446.198 179.476 444.211 180.834 442.567 182.557C440.924 184.279 439.661 186.328 438.859 188.57C438.914 187.876 439.097 187.197 439.399 186.57C440.726 183.337 443.227 180.725 446.399 179.26C447.019 178.912 447.697 178.678 448.399 178.57Z" fill="#263238"/>
<path d="M452.464 237.33C452.384 237.33 452.214 236.78 451.714 236.01C451.048 235.01 450.179 234.161 449.164 233.52C448.167 232.851 447.038 232.404 445.854 232.21C444.944 232.08 444.364 232.21 444.344 232.1C444.822 231.857 445.364 231.77 445.894 231.85C447.167 231.945 448.394 232.369 449.454 233.08C450.532 233.76 451.42 234.703 452.034 235.82C452.322 236.27 452.472 236.795 452.464 237.33Z" fill="#263238"/>
<path d="M439 197.06C439.152 197.489 439.266 197.931 439.34 198.38C439.55 199.38 439.8 200.57 440.11 202.03C440.73 205.12 441.55 209.39 442.42 214.11C443.29 218.83 444.06 223.11 444.59 226.22C444.83 227.7 445.03 228.93 445.18 229.9C445.278 230.347 445.328 230.803 445.33 231.26C445.176 230.831 445.059 230.389 444.98 229.94C444.78 228.94 444.53 227.75 444.22 226.29C443.6 223.2 442.78 218.93 441.91 214.21C441.04 209.49 440.27 205.21 439.74 202.1C439.5 200.62 439.3 199.39 439.15 198.42C439.052 197.973 439.002 197.517 439 197.06Z" fill="#263238"/>
<path d="M431.006 250C430.967 249.574 430.967 249.146 431.006 248.72C431.006 247.81 431.006 246.64 431.086 245.23C431.176 242.23 431.326 238.14 431.536 233.49V233.24H431.796L433.856 233.32L444.316 233.77H444.386L444.436 233.82C445.993 235.088 447.178 236.754 447.866 238.64C448.05 239.161 448.194 239.696 448.296 240.24C448.344 240.429 448.36 240.625 448.346 240.82C448.286 240.82 448.166 240.03 447.636 238.73C446.89 236.931 445.696 235.354 444.166 234.15L444.296 234.2L433.836 233.84L431.776 233.75L432.036 233.51C431.826 238.15 431.606 242.28 431.426 245.23C431.326 246.64 431.246 247.81 431.186 248.72C431.174 249.152 431.113 249.581 431.006 250Z" fill="#263238"/>
<path d="M412.69 230.06L403 210.28C402.677 209.622 402.176 209.069 401.554 208.682C400.931 208.294 400.213 208.09 399.48 208.09H375.07C374.863 208.089 374.66 208.142 374.48 208.244C374.3 208.346 374.149 208.493 374.043 208.67C373.937 208.848 373.879 209.05 373.875 209.257C373.871 209.464 373.921 209.668 374.02 209.85L390.52 240.67C390.75 241.093 391.09 241.446 391.503 241.692C391.917 241.939 392.389 242.069 392.87 242.07H418.16L412.69 230.06Z" fill="#455A64"/>
<path d="M374.18 210H374.67H376.06H381.2L398.13 209.86C398.913 209.853 399.685 210.039 400.38 210.4C401.02 210.808 401.538 211.382 401.88 212.06C402.59 213.41 403.18 214.82 403.8 216.06L407.04 222.96L409.25 227.59C409.5 228.1 409.71 228.51 409.88 228.84C409.942 228.99 410.022 229.131 410.12 229.26C410.088 229.1 410.034 228.945 409.96 228.8C409.82 228.46 409.63 228.04 409.41 227.52C408.9 226.35 408.19 224.76 407.33 222.82C406.47 220.88 405.33 218.48 404.18 215.89C403.57 214.58 403 213.21 402.27 211.8C401.893 211.051 401.319 210.418 400.61 209.97C399.853 209.566 399.008 209.356 398.15 209.36C391.51 209.36 385.54 209.55 381.15 209.64L376.02 209.78L374.62 209.84C374.466 209.871 374.318 209.925 374.18 210Z" fill="#263238"/>
<path d="M389.21 214.33C389.094 214.373 388.99 214.442 388.905 214.532C388.82 214.622 388.758 214.73 388.722 214.848C388.686 214.966 388.678 215.091 388.699 215.213C388.719 215.335 388.767 215.45 388.84 215.55C388.974 215.759 389.172 215.919 389.404 216.008C389.636 216.096 389.891 216.107 390.13 216.04C390.291 216.004 390.439 215.925 390.557 215.81C390.675 215.695 390.759 215.55 390.8 215.39C390.816 215.148 390.752 214.908 390.618 214.705C390.485 214.503 390.289 214.35 390.06 214.27C389.776 214.22 389.484 214.241 389.21 214.33Z" fill="white"/>
<path d="M431.491 234.19L425.431 233.6C425.431 233.6 422.681 230.48 421.601 229.54C420.521 228.6 414.341 225.54 414.341 225.54C414.341 225.54 411.131 222.13 410.711 222.18C410.291 222.23 408.971 222.64 409.541 224.33C410.082 226.011 410.793 227.632 411.661 229.17L399.451 230.91C399.069 230.958 398.703 231.089 398.378 231.295C398.053 231.5 397.777 231.775 397.571 232.1C397.301 232.55 397.221 233.02 397.831 233.23C400.04 233.739 402.277 234.12 404.531 234.37L402.131 234.05C402.131 234.05 401.901 236.33 403.501 237.21C404.116 237.485 404.691 237.842 405.211 238.27C405.353 239.289 405.714 240.265 406.271 241.13C407.011 241.9 414.331 244.62 414.331 244.62C414.331 244.62 418.901 245.4 421.111 245.02L431.011 246.53L431.491 234.19Z" fill="#FFBE9D"/>
<path d="M410.484 229.39C411.646 229.47 412.812 229.47 413.974 229.39C415.14 229.462 416.311 229.378 417.454 229.14C416.302 228.941 415.131 228.877 413.964 228.95C412.787 228.886 411.608 229.035 410.484 229.39Z" fill="#EB996E"/>
<path d="M412.776 234.62C411.095 234.23 409.369 234.075 407.646 234.16C406.226 234.16 404.946 234.16 404.016 234.16C403.515 234.125 403.012 234.145 402.516 234.22C402.993 234.394 403.498 234.475 404.006 234.46C404.946 234.53 406.226 234.56 407.646 234.57C410.476 234.58 412.756 234.73 412.776 234.62Z" fill="#EB996E"/>
<path d="M413.25 238.63C413.25 238.5 411.45 238.63 409.25 238.54C407.05 238.45 405.25 238.1 405.25 238.23C406.525 238.725 407.882 238.98 409.25 238.98C410.593 239.116 411.951 238.998 413.25 238.63Z" fill="#EB996E"/>
<path d="M413.051 243.2C413.171 243.2 413.291 242.71 413.321 242.08C413.351 241.45 413.271 240.95 413.151 240.94C413.031 240.93 412.911 241.44 412.881 242.06C412.851 242.68 412.931 243.2 413.051 243.2Z" fill="#EB996E"/>
<path d="M413.503 237.7C413.623 237.7 413.643 237.27 413.803 236.82C413.963 236.37 414.193 236.05 414.113 235.95C414.033 235.85 413.583 236.11 413.393 236.68C413.203 237.25 413.393 237.73 413.503 237.7Z" fill="#EB996E"/>
<path d="M414.25 232.15C414.38 232.15 414.47 231.88 414.58 231.57C414.69 231.26 414.79 230.99 414.7 230.91C414.61 230.83 414.31 231.03 414.17 231.42C414.03 231.81 414.13 232.16 414.25 232.15Z" fill="#EB996E"/>
</svg>
