<svg width="500" height="500" viewBox="0 0 500 500" fill="none" xmlns="http://www.w3.org/2000/svg">
<path d="M500 382.4H0V382.65H500V382.4Z" fill="#EBEBEB"/>
<path d="M85.5809 391.92H52.4609V392.17H85.5809V391.92Z" fill="#EBEBEB"/>
<path d="M213.671 389.21H171.141V389.46H213.671V389.21Z" fill="#EBEBEB"/>
<path d="M112.659 395.43H93.4688V395.68H112.659V395.43Z" fill="#EBEBEB"/>
<path d="M449.902 399.53H434.672V399.78H449.902V399.53Z" fill="#EBEBEB"/>
<path d="M425.759 399.53H391.469V399.78H425.759V399.53Z" fill="#EBEBEB"/>
<path d="M331.83 392.33H308V392.58H331.83V392.33Z" fill="#EBEBEB"/>
<path d="M237.001 337.8H43.9209C42.4066 337.8 40.9542 337.198 39.8834 336.128C38.8125 335.057 38.2109 333.604 38.2109 332.09V60.66C38.2241 59.1543 38.8315 57.7147 39.9009 56.6547C40.9703 55.5947 42.4152 54.9999 43.9209 55H237.001C238.515 55 239.968 55.6016 241.039 56.6724C242.109 57.7433 242.711 59.1956 242.711 60.71V332.09C242.711 333.604 242.109 335.057 241.039 336.128C239.968 337.198 238.515 337.8 237.001 337.8ZM43.9209 55.2C42.4737 55.2026 41.0864 55.7787 40.0631 56.8021C39.0397 57.8255 38.4636 59.2127 38.4609 60.66V332.09C38.4636 333.537 39.0397 334.924 40.0631 335.948C41.0864 336.971 42.4737 337.547 43.9209 337.55H237.001C238.448 337.547 239.835 336.971 240.859 335.948C241.882 334.924 242.458 333.537 242.461 332.09V60.66C242.458 59.2127 241.882 57.8255 240.859 56.8021C239.835 55.7787 238.448 55.2026 237.001 55.2H43.9209Z" fill="#EBEBEB"/>
<path d="M453.31 337.8H260.21C258.696 337.797 257.246 337.195 256.175 336.125C255.105 335.054 254.503 333.604 254.5 332.09V60.66C254.516 59.1551 255.124 57.7171 256.193 56.6576C257.262 55.5981 258.705 55.0025 260.21 55H453.31C454.812 55.0052 456.252 55.6022 457.317 56.6617C458.382 57.7212 458.987 59.1578 459 60.66V332.09C459 333.601 458.401 335.05 457.335 336.121C456.268 337.191 454.821 337.795 453.31 337.8ZM260.21 55.2C258.763 55.2026 257.375 55.7787 256.352 56.8021C255.329 57.8255 254.753 59.2127 254.75 60.66V332.09C254.753 333.537 255.329 334.924 256.352 335.948C257.375 336.971 258.763 337.547 260.21 337.55H453.31C454.757 337.547 456.145 336.971 457.168 335.948C458.191 334.924 458.767 333.537 458.77 332.09V60.66C458.767 59.2127 458.191 57.8255 457.168 56.8021C456.145 55.7787 454.757 55.2026 453.31 55.2H260.21Z" fill="#EBEBEB"/>
<path d="M307.497 196.37H415.367V88.21L307.497 88.21V196.37Z" fill="#F0F0F0"/>
<path d="M307.501 88.22H305.641V196.38H307.501V88.22Z" fill="#E0E0E0"/>
<path d="M317.032 189.54H405.852V95.04L317.032 95.04V189.54Z" fill="#FAFAFA"/>
<path d="M352 169H380.13C386.23 169 390.31 164.06 389.24 158L383.77 126.67C383.162 123.639 381.547 120.902 379.187 118.905C376.827 116.908 373.86 115.768 370.77 115.67H342.71C336.61 115.67 332.53 120.61 333.6 126.67L339.07 158C339.673 161.021 341.278 163.75 343.624 165.746C345.971 167.742 348.922 168.889 352 169Z" fill="#F0F0F0"/>
<path d="M104.969 229.22H80.9688V377.27H104.969V229.22Z" fill="#F0F0F0"/>
<path d="M210.282 377.28H83.4219V382.39H210.282V377.28Z" fill="#F0F0F0"/>
<path d="M104.971 377.28H212.391L212.391 229.23H104.971L104.971 377.28Z" fill="#F5F5F5"/>
<path d="M109.29 332.75H208.07V306.31H109.29V332.75Z" fill="#F0F0F0"/>
<path d="M109.29 367.35H208.07V340.91H109.29V367.35Z" fill="#F0F0F0"/>
<path d="M196.377 304.69H120.977C120.325 304.69 119.797 305.218 119.797 305.87V307.14C119.797 307.792 120.325 308.32 120.977 308.32H196.377C197.029 308.32 197.557 307.792 197.557 307.14V305.87C197.557 305.218 197.029 304.69 196.377 304.69Z" fill="#F5F5F5"/>
<path d="M196.377 339.3H120.977C120.325 339.3 119.797 339.828 119.797 340.48V341.75C119.797 342.402 120.325 342.93 120.977 342.93H196.377C197.029 342.93 197.557 342.402 197.557 341.75V340.48C197.557 339.828 197.029 339.3 196.377 339.3Z" fill="#F5F5F5"/>
<path d="M109.29 263.82H208.07V237.38H109.29V263.82Z" fill="#F0F0F0"/>
<path d="M109.29 298.16H208.07V271.72H109.29V298.16Z" fill="#F0F0F0"/>
<path d="M196.377 235.77H120.977C120.325 235.77 119.797 236.298 119.797 236.95V238.22C119.797 238.872 120.325 239.4 120.977 239.4H196.377C197.029 239.4 197.557 238.872 197.557 238.22V236.95C197.557 236.298 197.029 235.77 196.377 235.77Z" fill="#F5F5F5"/>
<path d="M196.377 270.09H120.977C120.325 270.09 119.797 270.618 119.797 271.27V272.54C119.797 273.192 120.325 273.72 120.977 273.72H196.377C197.029 273.72 197.557 273.192 197.557 272.54V271.27C197.557 270.618 197.029 270.09 196.377 270.09Z" fill="#F5F5F5"/>
<path d="M208.499 80.06H73.7891V198.32H208.499V80.06Z" fill="#E6E6E6"/>
<path d="M222.942 75.46H65.0722C64.8967 75.46 64.7229 75.4947 64.5609 75.5622C64.3989 75.6297 64.2518 75.7285 64.1282 75.8531C64.0046 75.9777 63.9068 76.1255 63.8406 76.288C63.7743 76.4505 63.7409 76.6245 63.7422 76.8C63.7422 77.1528 63.8823 77.4911 64.1318 77.7405C64.3812 77.9899 64.7195 78.13 65.0722 78.13H222.942C223.296 78.13 223.635 77.9902 223.886 77.7411C224.137 77.4919 224.28 77.1537 224.282 76.8C224.282 76.4446 224.141 76.1038 223.89 75.8525C223.638 75.6012 223.298 75.46 222.942 75.46Z" fill="#E6E6E6"/>
<path d="M214.221 80.06H76.4609V198.32H214.221V80.06Z" fill="#F0F0F0"/>
<path d="M208.499 198.32H73.7891V202.11H212.439L208.499 198.32Z" fill="#E6E6E6"/>
<path d="M223.742 198.32H85.9922L89.9222 202.11H227.682L223.742 198.32Z" fill="#F0F0F0"/>
<path d="M206.219 190.32V88.06L84.4688 88.06V190.32H206.219Z" fill="#FAFAFA"/>
<path d="M112.109 190.32L159.069 88.06H181.249L134.279 190.32H112.109Z" fill="white"/>
<path d="M139.039 190.32L186.009 88.06H194.649L147.689 190.32H139.039Z" fill="white"/>
<path d="M206.219 190.32V88.06H205.199V190.32H206.219Z" fill="#E6E6E6"/>
<g opacity="0.4">
<path d="M84.5591 73.07H70.7891V170.66H84.5591V73.07Z" fill="#F0F0F0"/>
<path d="M89.9253 73.07H79.1953V170.66H89.9253V73.07Z" fill="#E6E6E6"/>
<path d="M98.3325 73.07H84.5625V170.66H98.3325V73.07Z" fill="#F0F0F0"/>
<path d="M103.699 73.07H92.9688V170.66H103.699V73.07Z" fill="#E6E6E6"/>
<path d="M112.098 73.07H98.3281V170.66H112.098V73.07Z" fill="#F0F0F0"/>
</g>
<g opacity="0.4">
<path d="M201.096 73.07H193.156V170.66H201.096V73.07Z" fill="#F0F0F0"/>
<path d="M204.18 73.07H198V170.66H204.18V73.07Z" fill="#E6E6E6"/>
<path d="M209.026 73.07H201.086V170.66H209.026V73.07Z" fill="#F0F0F0"/>
<path d="M212.117 73.07H205.938V170.66H212.117V73.07Z" fill="#E6E6E6"/>
<path d="M216.963 73.07H209.023V170.66H216.963V73.07Z" fill="#F0F0F0"/>
</g>
<path d="M356.852 269.21C356.735 270.657 357.048 272.105 357.754 273.374C358.46 274.642 359.525 275.673 360.817 276.335C362.108 276.998 363.567 277.263 365.008 277.097C366.45 276.931 367.81 276.341 368.917 275.402C370.024 274.463 370.827 273.217 371.226 271.821C371.624 270.426 371.6 268.944 371.157 267.562C370.713 266.18 369.87 264.96 368.734 264.058C367.597 263.155 366.219 262.609 364.772 262.49C362.831 262.332 360.907 262.951 359.422 264.211C357.937 265.471 357.013 267.269 356.852 269.21Z" fill="#E0E0E0"/>
<path d="M377.255 280.9C381.271 280.309 384.048 276.574 383.457 272.558C382.866 268.542 379.132 265.765 375.115 266.356C371.099 266.947 368.323 270.682 368.914 274.698C369.505 278.714 373.239 281.491 377.255 280.9Z" fill="#E0E0E0"/>
<path d="M381.719 274.55C381.602 275.997 381.916 277.446 382.621 278.714C383.327 279.982 384.393 281.013 385.684 281.675C386.975 282.338 388.434 282.603 389.876 282.437C391.317 282.271 392.677 281.681 393.784 280.742C394.891 279.803 395.694 278.557 396.093 277.162C396.492 275.766 396.468 274.284 396.024 272.902C395.581 271.52 394.737 270.301 393.601 269.398C392.464 268.495 391.086 267.949 389.639 267.83C388.678 267.749 387.71 267.859 386.791 268.154C385.872 268.448 385.02 268.921 384.284 269.545C383.548 270.17 382.943 270.933 382.503 271.792C382.063 272.651 381.796 273.588 381.719 274.55Z" fill="#E0E0E0"/>
<path d="M343.204 273.06C343.086 274.507 343.4 275.956 344.106 277.224C344.811 278.492 345.877 279.523 347.168 280.185C348.459 280.848 349.918 281.113 351.36 280.947C352.802 280.781 354.162 280.191 355.268 279.252C356.375 278.313 357.179 277.067 357.577 275.671C357.976 274.276 357.952 272.794 357.508 271.412C357.065 270.03 356.222 268.811 355.085 267.908C353.949 267.005 352.57 266.459 351.124 266.34C349.183 266.182 347.259 266.801 345.774 268.061C344.289 269.321 343.364 271.119 343.204 273.06Z" fill="#E0E0E0"/>
<path d="M400.716 280.895C404.732 280.304 407.509 276.569 406.918 272.553C406.327 268.537 402.592 265.76 398.576 266.351C394.56 266.942 391.784 270.677 392.375 274.693C392.965 278.709 396.7 281.486 400.716 280.895Z" fill="#E0E0E0"/>
<path d="M345.391 273.032C348.476 270.394 348.838 265.754 346.199 262.669C343.561 259.584 338.921 259.222 335.836 261.86C332.751 264.499 332.389 269.139 335.027 272.224C337.666 275.309 342.306 275.671 345.391 273.032Z" fill="#E0E0E0"/>
<path d="M322.923 271.39C322.805 272.837 323.119 274.286 323.824 275.554C324.53 276.822 325.596 277.853 326.887 278.515C328.178 279.178 329.637 279.443 331.079 279.277C332.52 279.111 333.881 278.521 334.987 277.582C336.094 276.643 336.897 275.397 337.296 274.001C337.695 272.606 337.671 271.124 337.227 269.742C336.784 268.36 335.94 267.14 334.804 266.238C333.668 265.335 332.289 264.789 330.843 264.67C328.902 264.512 326.977 265.131 325.492 266.391C324.007 267.651 323.083 269.449 322.923 271.39Z" fill="#E0E0E0"/>
<path d="M314.531 273.37C314.531 273.37 315.791 303.44 364.111 303.44C412.431 303.44 413.691 273.37 413.691 273.37H314.531Z" fill="#F0F0F0"/>
<path d="M441.26 303.44H432.07V382.39H441.26V303.44Z" fill="#E6E6E6"/>
<path d="M443.707 303.44H438.297V382.39H443.707V303.44Z" fill="#F0F0F0"/>
<path d="M402.159 303.44H392.969V382.39H402.159V303.44Z" fill="#E6E6E6"/>
<path d="M403.879 303.44H398.469V382.39H403.879V303.44Z" fill="#F0F0F0"/>
<path d="M314.931 313.02H445.391V303.45H314.931V313.02Z" fill="#F0F0F0"/>
<path d="M275.057 303.44H265.867V382.39H275.057V303.44Z" fill="#E6E6E6"/>
<path d="M276.777 303.44H271.367V382.39H276.777V303.44Z" fill="#F0F0F0"/>
<path d="M264.23 313.02H311V303.45H264.23V313.02Z" fill="#E6E6E6"/>
<path d="M314.151 303.44H304.961V382.39H314.151V303.44Z" fill="#E6E6E6"/>
<path d="M316.613 303.44H311.203V382.39H316.613V303.44Z" fill="#F0F0F0"/>
<path d="M249.999 427.56C357.082 427.56 443.889 422.492 443.889 416.24C443.889 409.988 357.082 404.92 249.999 404.92C142.917 404.92 56.1094 409.988 56.1094 416.24C56.1094 422.492 142.917 427.56 249.999 427.56Z" fill="#F5F5F5"/>
<path d="M355.483 406.31C355.484 408.308 354.776 410.242 353.485 411.768C352.194 413.293 350.404 414.311 348.433 414.64C324.171 418.733 299.395 418.733 275.133 414.64C273.17 414.302 271.39 413.28 270.109 411.756C268.828 410.231 268.128 408.302 268.133 406.31V325.31H355.523L355.483 406.31Z" fill="#8ABD97"/>
<path opacity="0.3" d="M268.078 326.77V338.14C273.338 340.09 290.608 341.52 311.778 341.52C332.948 341.52 350.248 340.09 355.478 338.14V326.77H268.078Z" fill="black"/>
<path d="M357.119 335.44C357.119 338.01 337.279 340.09 311.779 340.09C286.279 340.09 266.439 338.01 266.439 335.44L265.609 325.34H357.999L357.119 335.44Z" fill="#8ABD97"/>
<path d="M311.779 329.98C337.278 329.98 357.949 327.903 357.949 325.34C357.949 322.777 337.278 320.7 311.779 320.7C286.28 320.7 265.609 322.777 265.609 325.34C265.609 327.903 286.28 329.98 311.779 329.98Z" fill="#8ABD97"/>
<path opacity="0.3" d="M311.779 329.98C337.278 329.98 357.949 327.903 357.949 325.34C357.949 322.777 337.278 320.7 311.779 320.7C286.28 320.7 265.609 322.777 265.609 325.34C265.609 327.903 286.28 329.98 311.779 329.98Z" fill="black"/>
<path opacity="0.2" d="M279.796 400.61C278.898 400.607 278.037 400.249 277.402 399.614C276.767 398.979 276.409 398.118 276.406 397.22V350.78C276.409 349.882 276.767 349.021 277.402 348.386C278.037 347.751 278.898 347.393 279.796 347.39C280.694 347.395 281.553 347.754 282.188 348.389C282.822 349.023 283.181 349.883 283.186 350.78V397.22C283.181 398.117 282.822 398.977 282.188 399.611C281.553 400.246 280.694 400.605 279.796 400.61Z" fill="black"/>
<path opacity="0.2" d="M343.773 400.61C342.875 400.607 342.014 400.249 341.379 399.614C340.743 398.979 340.385 398.118 340.383 397.22V350.78C340.385 349.882 340.743 349.021 341.379 348.386C342.014 347.751 342.875 347.393 343.773 347.39C344.67 347.395 345.529 347.754 346.164 348.389C346.799 349.023 347.158 349.883 347.163 350.78V397.22C347.158 398.117 346.799 398.977 346.164 399.611C345.529 400.246 344.67 400.605 343.773 400.61Z" fill="black"/>
<path opacity="0.2" d="M322.437 400.61C321.539 400.605 320.68 400.246 320.046 399.611C319.411 398.977 319.052 398.117 319.047 397.22V350.78C319.052 349.883 319.411 349.023 320.046 348.389C320.68 347.754 321.539 347.395 322.437 347.39C323.335 347.393 324.196 347.751 324.831 348.386C325.466 349.021 325.824 349.882 325.827 350.78V397.22C325.824 398.118 325.466 398.979 324.831 399.614C324.196 400.249 323.335 400.607 322.437 400.61Z" fill="black"/>
<path opacity="0.2" d="M301.117 400.61C300.219 400.605 299.36 400.246 298.725 399.611C298.091 398.977 297.732 398.117 297.727 397.22V350.78C297.732 349.883 298.091 349.023 298.725 348.389C299.36 347.754 300.219 347.395 301.117 347.39C302.015 347.393 302.876 347.751 303.511 348.386C304.146 349.021 304.504 349.882 304.507 350.78V397.22C304.504 398.118 304.146 398.979 303.511 399.614C302.876 400.249 302.015 400.607 301.117 400.61Z" fill="black"/>
<path d="M192.882 139.16C192.882 140.078 192.609 140.975 192.1 141.738C191.59 142.501 190.865 143.096 190.017 143.447C189.169 143.798 188.236 143.89 187.336 143.711C186.436 143.532 185.61 143.09 184.961 142.441C184.312 141.792 183.87 140.965 183.691 140.065C183.512 139.165 183.604 138.232 183.955 137.384C184.306 136.537 184.901 135.812 185.664 135.302C186.427 134.792 187.324 134.52 188.242 134.52C189.472 134.52 190.652 135.009 191.523 135.879C192.393 136.749 192.882 137.929 192.882 139.16Z" fill="#263238"/>
<path d="M184.51 139.83C184.464 139.831 184.42 139.82 184.381 139.797C184.342 139.774 184.31 139.74 184.29 139.7C183.983 139.137 183.79 138.518 183.723 137.881C183.655 137.243 183.713 136.598 183.895 135.983C184.077 135.367 184.378 134.794 184.781 134.295C185.184 133.796 185.681 133.382 186.245 133.075C186.808 132.768 187.426 132.576 188.064 132.508C188.702 132.44 189.347 132.499 189.962 132.68C190.577 132.862 191.151 133.163 191.649 133.566C192.148 133.969 192.563 134.467 192.87 135.03C192.899 135.089 192.905 135.157 192.887 135.22C192.868 135.283 192.826 135.336 192.77 135.37C192.741 135.386 192.709 135.396 192.676 135.399C192.644 135.403 192.61 135.4 192.579 135.391C192.547 135.381 192.518 135.366 192.492 135.345C192.467 135.325 192.445 135.299 192.43 135.27C191.874 134.249 190.935 133.49 189.821 133.161C188.706 132.832 187.506 132.959 186.485 133.515C185.464 134.071 184.705 135.009 184.376 136.124C184.047 137.239 184.174 138.439 184.73 139.46C184.745 139.489 184.755 139.521 184.759 139.553C184.763 139.586 184.76 139.619 184.75 139.651C184.741 139.682 184.726 139.712 184.705 139.737C184.684 139.763 184.659 139.784 184.63 139.8C184.592 139.819 184.551 139.829 184.51 139.83Z" fill="#263238"/>
<path d="M180.003 160.36C179.099 160.356 178.214 160.102 177.446 159.626C176.677 159.149 176.056 158.469 175.651 157.661C175.246 156.853 175.073 155.949 175.151 155.048C175.229 154.148 175.555 153.286 176.093 152.56C176.476 152.046 176.957 151.613 177.508 151.286C178.059 150.958 178.669 150.742 179.303 150.65C179.335 150.644 179.368 150.645 179.4 150.653C179.432 150.661 179.462 150.675 179.488 150.694C179.515 150.714 179.537 150.739 179.553 150.767C179.569 150.796 179.579 150.827 179.583 150.86C179.592 150.925 179.574 150.991 179.535 151.043C179.496 151.095 179.438 151.13 179.373 151.14C178.223 151.308 177.188 151.927 176.494 152.859C175.8 153.791 175.505 154.96 175.673 156.11C175.841 157.26 176.46 158.295 177.392 158.989C178.324 159.683 179.493 159.978 180.643 159.81C180.709 159.799 180.777 159.816 180.831 159.855C180.886 159.894 180.922 159.954 180.933 160.02C180.944 160.086 180.927 160.154 180.888 160.209C180.849 160.263 180.789 160.299 180.723 160.31C180.484 160.342 180.244 160.358 180.003 160.36Z" fill="#263238"/>
<path d="M205.21 167.92C204.272 167.919 203.354 167.644 202.57 167.13C202.514 167.093 202.475 167.036 202.46 166.971C202.445 166.906 202.456 166.837 202.49 166.78C202.528 166.726 202.586 166.688 202.651 166.675C202.716 166.662 202.784 166.675 202.84 166.71C203.814 167.343 205 167.562 206.137 167.32C207.273 167.078 208.267 166.395 208.9 165.42C209.532 164.445 209.752 163.259 209.51 162.123C209.268 160.986 208.584 159.993 207.61 159.36C207.554 159.323 207.515 159.266 207.5 159.201C207.485 159.136 207.496 159.067 207.53 159.01C207.568 158.956 207.626 158.918 207.691 158.905C207.756 158.892 207.824 158.905 207.88 158.94C208.964 159.646 209.724 160.752 209.994 162.018C210.264 163.283 210.021 164.603 209.32 165.69C208.973 166.231 208.523 166.697 207.994 167.061C207.465 167.425 206.868 167.68 206.24 167.81C205.901 167.881 205.556 167.918 205.21 167.92Z" fill="#263238"/>
<path d="M185.638 153.63C189.261 153.63 192.198 150.693 192.198 147.07C192.198 143.447 189.261 140.51 185.638 140.51C182.015 140.51 179.078 143.447 179.078 147.07C179.078 150.693 182.015 153.63 185.638 153.63Z" fill="#263238"/>
<path d="M191.799 162.052C195.197 158.655 195.197 153.146 191.799 149.749C188.402 146.351 182.893 146.351 179.496 149.749C176.098 153.146 176.098 158.655 179.496 162.052C182.893 165.45 188.402 165.45 191.799 162.052Z" fill="#263238"/>
<path d="M186.565 176.58C191.878 176.58 196.185 172.273 196.185 166.96C196.185 161.647 191.878 157.34 186.565 157.34C181.252 157.34 176.945 161.647 176.945 166.96C176.945 172.273 181.252 176.58 186.565 176.58Z" fill="#263238"/>
<path d="M205.553 169.822C206.773 164.651 203.57 159.47 198.4 158.25C193.229 157.029 188.047 160.232 186.827 165.403C185.607 170.574 188.809 175.755 193.98 176.975C199.151 178.196 204.332 174.993 205.553 169.822Z" fill="#263238"/>
<path d="M228.09 187.46C228.09 188.24 228.09 189.23 228.16 190.13C228.23 191.03 228.23 191.99 228.29 192.92C228.42 194.78 228.55 196.66 228.75 198.53C229.11 202.283 229.614 206.02 230.26 209.74C230.43 210.66 230.58 211.6 230.77 212.52L231.21 214.79C231.32 215.15 231.21 215.08 231.07 215.07C230.93 215.06 231.07 215.25 231.66 215.25C233.17 215.099 234.641 214.675 236 214C236.8 213.64 237.62 213.25 238.44 212.83C239.26 212.41 240.09 211.93 240.84 211.51L243.76 214.88C243.064 215.678 242.322 216.436 241.54 217.15C240.77 217.883 239.955 218.568 239.1 219.2C238.204 219.874 237.258 220.479 236.27 221.01C235.146 221.624 233.941 222.075 232.69 222.35C231.919 222.518 231.129 222.585 230.34 222.55C229.378 222.494 228.434 222.257 227.56 221.85C226.63 221.413 225.803 220.787 225.13 220.01C224.553 219.335 224.081 218.576 223.73 217.76C223.459 217.136 223.238 216.49 223.07 215.83L222.68 214.37C222.4 213.37 222.17 212.42 221.93 211.44C220.995 207.509 220.274 203.53 219.77 199.52C219.52 197.52 219.32 195.52 219.2 193.47C219.14 192.47 219.09 191.47 219.06 190.41C219.03 189.35 219.06 188.41 219.06 187.22L228.09 187.46Z" fill="#FFB573"/>
<path d="M223.241 176.68C231.771 183.21 231.431 195.52 231.431 195.52L216.171 199.17C216.171 199.17 211.491 186.79 213.391 182.26C215.371 177.54 218.441 173 223.241 176.68Z" fill="#8ABD97"/>
<path opacity="0.7" d="M223.241 176.68C231.771 183.21 231.431 195.52 231.431 195.52L216.171 199.17C216.171 199.17 211.491 186.79 213.391 182.26C215.371 177.54 218.441 173 223.241 176.68Z" fill="white"/>
<path d="M240.273 212.66L242.793 208.42L249.113 215.18C249.113 215.18 244.583 218.08 239.883 216.01L240.273 212.66Z" fill="#FFB573"/>
<path d="M245.899 206.39L254.009 211.17L249.109 215.18L242.789 208.42L245.899 206.39Z" fill="#FFB573"/>
<path d="M175.492 408.86L184.212 409.7L189.632 389.27L180.902 388.43L175.492 408.86Z" fill="#FFB573"/>
<path d="M130.789 391.69L138.619 395.79L147.929 377.33L140.099 373.23L130.789 391.69Z" fill="#FFB573"/>
<path d="M140.712 392.2L133.712 385.09C133.595 384.965 133.437 384.888 133.267 384.873C133.097 384.859 132.928 384.907 132.792 385.01L126.362 389.74C126.206 389.865 126.078 390.022 125.986 390.2C125.895 390.378 125.842 390.574 125.83 390.773C125.819 390.973 125.85 391.173 125.921 391.36C125.992 391.548 126.101 391.718 126.242 391.86C128.722 394.3 130.042 395.35 133.122 398.48C135.022 400.4 138.922 404.93 141.542 407.59C144.162 410.25 146.922 407.8 146.072 406.46C142.252 400.46 141.612 396.69 141.372 393.64C141.328 393.097 141.095 392.587 140.712 392.2Z" fill="#263238"/>
<path d="M185.57 407.05H175C174.811 407.052 174.627 407.115 174.478 407.231C174.328 407.346 174.22 407.508 174.17 407.69L171.91 416C171.853 416.197 171.844 416.405 171.883 416.607C171.922 416.809 172.007 416.999 172.133 417.161C172.258 417.324 172.42 417.454 172.606 417.543C172.791 417.631 172.995 417.675 173.2 417.67C176.91 417.67 178.67 417.67 183.3 417.67H197.47C201.32 417.67 202.13 413.78 200.53 413.42C193.39 411.84 189.27 409.66 187.07 407.58C186.653 407.223 186.118 407.034 185.57 407.05Z" fill="#263238"/>
<path opacity="0.2" d="M189.623 389.28L186.833 399.81H177.883L180.893 388.44L189.623 389.28Z" fill="black"/>
<path opacity="0.2" d="M140.089 373.23L147.929 377.34L143.129 386.85L135.289 382.74L140.089 373.23Z" fill="black"/>
<path d="M220.664 175.42C220.664 175.42 224.524 177.11 211.584 228.31L175.644 225.2C177.514 210.63 178.304 201.61 173.914 170.98C179.038 170.38 184.198 170.149 189.354 170.29C194.821 170.373 200.274 170.844 205.674 171.7C210.73 172.686 215.733 173.928 220.664 175.42Z" fill="#8ABD97"/>
<path opacity="0.7" d="M220.664 175.42C220.664 175.42 224.524 177.11 211.584 228.31L175.644 225.2C177.514 210.63 178.304 201.61 173.914 170.98C179.038 170.38 184.198 170.149 189.354 170.29C194.821 170.373 200.274 170.844 205.674 171.7C210.73 172.686 215.733 173.928 220.664 175.42Z" fill="white"/>
<path d="M189.351 170C189.351 170 187.351 170 184.901 170C183.451 172.23 189.571 178.74 197.351 185.14C199.231 179.31 202.191 179.33 202.191 179.33L189.351 170Z" fill="white"/>
<path d="M205.663 171.57C205.663 171.57 206.573 171.7 208.753 172.2C210.193 174.43 211.003 180.01 206.753 184.87C205.083 178.87 202.203 179.41 202.203 179.41L205.663 171.57Z" fill="white"/>
<path d="M192.552 152.05C193.132 157.39 193.322 167.05 189.352 170.29C189.352 170.29 193.592 174.63 202.192 179.41C208.432 175.09 205.672 171.7 205.672 171.7C199.932 169.8 200.462 165.47 201.832 161.47L192.552 152.05Z" fill="#FFB573"/>
<path opacity="0.2" d="M196.343 155.9L201.833 161.47C201.496 162.396 201.242 163.349 201.073 164.32C198.873 163.81 195.673 161.51 195.633 159.15C195.671 158.033 195.912 156.932 196.343 155.9Z" fill="black"/>
<path d="M213.171 134.63C216.851 137.89 217.931 145.83 214.431 151.22C213.38 145.756 212.957 140.19 213.171 134.63Z" fill="#263238"/>
<path d="M191.428 140.84C190.788 149.63 190.338 153.34 194.138 158.41C199.858 166.04 210.798 164.89 214.048 156.47C216.978 148.88 217.528 135.78 209.458 131.16C207.685 130.125 205.676 129.562 203.623 129.525C201.57 129.489 199.541 129.98 197.732 130.951C195.923 131.922 194.394 133.341 193.29 135.073C192.186 136.804 191.545 138.79 191.428 140.84Z" fill="#FFB573"/>
<path d="M190.264 147.92C196.764 147.67 200.364 139.17 198.734 135.58C206.104 139.42 217.264 142.44 216.024 137.5C214.354 130.83 206.284 125.94 196.354 129.5C190.604 132 185.684 137.5 190.264 147.92Z" fill="#263238"/>
<path d="M188.284 147.91C188.562 149.591 189.488 151.095 190.864 152.1C192.704 153.41 194.384 151.95 194.514 149.82C194.634 147.89 193.824 144.89 191.664 144.43C191.191 144.336 190.702 144.362 190.241 144.505C189.781 144.649 189.364 144.905 189.028 145.251C188.692 145.597 188.448 146.022 188.318 146.486C188.188 146.95 188.176 147.44 188.284 147.91Z" fill="#FFB573"/>
<path d="M211.58 228.31C211.58 228.31 219.71 281.36 215.18 315.44C211.75 341.19 189.62 396.75 189.62 396.75L175.25 396.36C175.25 396.36 190.09 342.51 193.16 321.36C198.41 285.14 185.26 226.07 185.26 226.07L211.58 228.31Z" fill="#263238"/>
<path opacity="0.2" d="M197.561 239.18L189.891 251.27C192.2 265.605 193.666 280.063 194.281 294.57C205.061 275.27 200.001 249.39 197.561 239.18Z" fill="black"/>
<path d="M191.865 397.55L173.805 397.06L174.905 391.25L193.565 391.36L191.865 397.55Z" fill="#8ABD97"/>
<path d="M203.722 227.74C203.722 227.74 197.722 286.48 184.012 318.44C172.922 344.24 146.482 385.51 146.482 385.51L135.922 379.33C135.922 379.33 152.922 333.44 161.312 316.24C181.782 274.07 162.742 240.24 175.642 225.24L203.722 227.74Z" fill="#263238"/>
<path d="M147.634 386.41L134.164 379.02L136.354 373.26L150.704 381.36L147.634 386.41Z" fill="#8ABD97"/>
<path d="M175.281 223.05L173.381 226.13C173.241 226.36 173.511 226.65 173.931 226.68L211.621 229.94C211.941 229.94 212.231 229.83 212.261 229.63L212.871 226.44C212.871 226.22 212.641 226.01 212.291 225.98L175.891 222.83C175.779 222.813 175.665 222.824 175.558 222.863C175.452 222.901 175.356 222.965 175.281 223.05Z" fill="#8ABD97"/>
<path d="M179.82 227.54L178.82 227.46C178.63 227.46 178.49 227.33 178.51 227.21L179.33 223.07C179.33 222.94 179.54 222.86 179.73 222.88L180.73 222.96C180.93 222.96 181.07 223.09 181.04 223.21L180.23 227.35C180.19 227.47 180 227.56 179.82 227.54Z" fill="#263238"/>
<path d="M208.853 230.05L207.853 229.97C207.653 229.97 207.513 229.84 207.543 229.72L208.363 225.58C208.363 225.46 208.563 225.37 208.753 225.39L209.753 225.47C209.943 225.47 210.083 225.6 210.063 225.72L209.243 229.86C209.223 230 209.003 230.07 208.853 230.05Z" fill="#263238"/>
<path d="M194.335 228.8L193.335 228.71C193.145 228.71 193.005 228.58 193.025 228.46L193.845 224.32C193.845 224.2 194.045 224.11 194.245 224.13L195.245 224.22C195.435 224.22 195.575 224.35 195.555 224.47L194.735 228.61C194.715 228.73 194.535 228.81 194.335 228.8Z" fill="#263238"/>
<path d="M205.199 145.21C205.099 145.92 205.399 146.55 205.859 146.61C206.319 146.67 206.779 146.15 206.859 145.44C206.939 144.73 206.649 144.1 206.189 144.04C205.729 143.98 205.289 144.5 205.199 145.21Z" fill="#263238"/>
<path d="M213.219 146.29C213.129 147 213.429 147.63 213.889 147.69C214.349 147.75 214.809 147.23 214.889 146.52C214.969 145.81 214.689 145.18 214.229 145.12C213.769 145.06 213.319 145.58 213.219 146.29Z" fill="#263238"/>
<path d="M214 145.13L215.78 144.87C215.78 144.87 214.74 146.08 214 145.13Z" fill="#263238"/>
<path d="M210.068 147.07C210.485 148.773 211.131 150.411 211.988 151.94C211.593 152.15 211.156 152.272 210.709 152.296C210.262 152.32 209.814 152.246 209.398 152.08L210.068 147.07Z" fill="#ED893E"/>
<path d="M205.244 154.2C203.838 153.742 202.658 152.766 201.944 151.47C201.927 151.429 201.925 151.382 201.94 151.339C201.954 151.297 201.985 151.261 202.024 151.24C202.067 151.219 202.116 151.216 202.161 151.231C202.206 151.246 202.243 151.278 202.264 151.32C202.709 152.099 203.331 152.762 204.08 153.256C204.829 153.749 205.683 154.059 206.574 154.16C206.62 154.16 206.663 154.178 206.695 154.21C206.727 154.242 206.744 154.285 206.744 154.33C206.744 154.375 206.727 154.418 206.695 154.45C206.663 154.482 206.62 154.5 206.574 154.5C206.121 154.45 205.675 154.349 205.244 154.2Z" fill="#263238"/>
<path d="M201.551 141.1C201.493 141.076 201.442 141.038 201.401 140.99C201.368 140.958 201.342 140.92 201.324 140.878C201.306 140.836 201.297 140.791 201.297 140.745C201.297 140.699 201.306 140.654 201.324 140.612C201.342 140.57 201.368 140.532 201.401 140.5C201.891 140.062 202.48 139.749 203.118 139.589C203.755 139.429 204.422 139.426 205.061 139.58C205.105 139.593 205.146 139.614 205.181 139.642C205.216 139.671 205.246 139.706 205.267 139.746C205.288 139.787 205.302 139.83 205.306 139.876C205.31 139.921 205.305 139.967 205.291 140.01C205.266 140.099 205.206 140.173 205.125 140.218C205.045 140.263 204.95 140.275 204.861 140.25C204.335 140.133 203.789 140.143 203.267 140.278C202.745 140.414 202.264 140.672 201.861 141.03C201.818 141.063 201.767 141.087 201.714 141.099C201.66 141.111 201.605 141.111 201.551 141.1Z" fill="#263238"/>
<path d="M216.594 143.23C216.542 143.21 216.494 143.179 216.454 143.14C216.103 142.729 215.661 142.406 215.162 142.197C214.664 141.989 214.123 141.901 213.584 141.94C213.538 141.95 213.491 141.95 213.445 141.941C213.4 141.932 213.356 141.912 213.319 141.885C213.281 141.858 213.249 141.822 213.226 141.782C213.203 141.741 213.189 141.696 213.184 141.65C213.17 141.559 213.192 141.465 213.246 141.39C213.301 141.315 213.383 141.265 213.474 141.25C214.127 141.191 214.784 141.289 215.391 141.537C215.998 141.784 216.538 142.172 216.964 142.67C217.013 142.728 217.041 142.8 217.045 142.875C217.05 142.95 217.03 143.025 216.988 143.088C216.946 143.151 216.886 143.199 216.815 143.225C216.744 143.25 216.666 143.252 216.594 143.23Z" fill="#263238"/>
<path d="M224.501 218.68C225.149 216.663 226.187 214.793 227.557 213.177C228.927 211.561 230.602 210.231 232.486 209.263C234.37 208.294 236.427 207.706 238.538 207.533C240.649 207.359 242.774 207.603 244.791 208.25C246.808 208.897 248.678 209.936 250.294 211.306C251.91 212.676 253.24 214.351 254.208 216.235C255.177 218.119 255.765 220.175 255.939 222.287C256.112 224.398 255.869 226.523 255.221 228.54L249.001 248L218.281 238.13L224.501 218.68Z" fill="#8ABD97"/>
<path opacity="0.3" d="M224.501 218.68C225.149 216.663 226.187 214.793 227.557 213.177C228.927 211.561 230.602 210.231 232.486 209.263C234.37 208.294 236.427 207.706 238.538 207.533C240.649 207.359 242.774 207.603 244.791 208.25C246.808 208.897 248.678 209.936 250.294 211.306C251.91 212.676 253.24 214.351 254.208 216.235C255.177 218.119 255.765 220.175 255.939 222.287C256.112 224.398 255.869 226.523 255.221 228.54L249.001 248L218.281 238.13L224.501 218.68Z" fill="black"/>
<path d="M194.188 208.94L188.568 226.44C188.486 226.691 188.454 226.957 188.475 227.22C188.496 227.484 188.569 227.741 188.69 227.976C188.811 228.212 188.977 228.421 189.179 228.591C189.382 228.762 189.616 228.891 189.868 228.97L218.268 238.09L224.508 218.67C225.817 214.6 228.689 211.217 232.491 209.263C236.294 207.309 240.717 206.945 244.788 208.25L214.478 198.51C210.404 197.208 205.98 197.574 202.176 199.53C198.373 201.485 195.5 204.869 194.188 208.94Z" fill="#8ABD97"/>
<path d="M209.434 222.21L217.264 197.84C217.291 197.753 217.299 197.66 217.287 197.57C217.276 197.479 217.244 197.392 217.196 197.314C217.148 197.236 217.083 197.17 217.007 197.119C216.931 197.068 216.845 197.035 216.754 197.02L208.754 195.84L207.754 199L213.584 200.87L206.984 221.41L209.434 222.21Z" fill="#263238"/>
<path d="M205.268 220.87C205.087 221.435 205.078 222.04 205.241 222.61C205.404 223.181 205.733 223.689 206.185 224.073C206.637 224.456 207.193 224.697 207.782 224.765C208.371 224.833 208.967 224.724 209.495 224.454C210.022 224.183 210.458 223.762 210.746 223.244C211.035 222.726 211.163 222.134 211.115 221.543C211.067 220.952 210.845 220.388 210.478 219.923C210.11 219.458 209.612 219.112 209.048 218.93C208.672 218.809 208.276 218.762 207.883 218.794C207.49 218.826 207.106 218.935 206.755 219.116C206.404 219.296 206.092 219.543 205.837 219.845C205.581 220.146 205.388 220.494 205.268 220.87Z" fill="#263238"/>
<path d="M219.754 241L259.154 253.65C259.297 253.697 259.448 253.714 259.598 253.702C259.748 253.69 259.894 253.649 260.028 253.58C260.162 253.511 260.281 253.417 260.378 253.302C260.475 253.187 260.548 253.054 260.594 252.91C260.642 252.767 260.661 252.616 260.649 252.465C260.638 252.315 260.596 252.168 260.527 252.034C260.458 251.9 260.363 251.781 260.248 251.684C260.132 251.587 259.998 251.514 259.854 251.47L218.274 238.12C218.088 238.698 218.14 239.326 218.417 239.866C218.695 240.407 219.175 240.814 219.754 241Z" fill="#8ABD97"/>
<path opacity="0.2" d="M219.754 241L235.854 246.17C235.997 246.217 236.149 246.235 236.3 246.223C236.45 246.211 236.597 246.169 236.732 246.101C236.867 246.032 236.987 245.937 237.085 245.822C237.183 245.707 237.257 245.574 237.304 245.43C237.395 245.141 237.369 244.827 237.23 244.558C237.091 244.288 236.852 244.084 236.564 243.99L218.274 238.12C218.088 238.698 218.14 239.326 218.417 239.866C218.695 240.407 219.175 240.814 219.754 241Z" fill="black"/>
<path d="M178.14 185.1L177.59 185.71L176.97 186.42C176.55 186.9 176.13 187.42 175.73 187.91C174.91 188.91 174.13 189.98 173.4 191.06C170.378 195.337 167.999 200.033 166.34 205C165.94 206.24 165.57 207.48 165.28 208.75C165.18 209.12 165.17 209.27 165.12 209.44C165.112 209.587 165.112 209.733 165.12 209.88C165.104 210.036 165.104 210.194 165.12 210.35C165.12 210.53 165.46 210.95 166.28 211.35C167.265 211.793 168.304 212.109 169.37 212.29C171.942 212.699 174.546 212.87 177.15 212.8C179.87 212.8 182.63 212.56 185.39 212.27C188.15 211.98 190.95 211.62 193.66 211.21L194.75 215.54C189.168 217.357 183.425 218.632 177.6 219.35C174.532 219.749 171.431 219.816 168.35 219.55C166.588 219.385 164.858 218.974 163.21 218.33C162.221 217.934 161.292 217.402 160.45 216.75C159.457 215.972 158.64 214.994 158.05 213.88C157.034 211.79 156.762 209.416 157.28 207.15C157.52 205.62 157.87 204.15 158.28 202.61C159.064 199.654 160.108 196.773 161.4 194C162.694 191.221 164.202 188.546 165.91 186C166.77 184.73 167.69 183.5 168.65 182.29C169.14 181.69 169.65 181.1 170.15 180.51L170.96 179.64C171.25 179.33 171.48 179.08 171.88 178.7L178.14 185.1Z" fill="#FFB573"/>
<path d="M191.48 212.13L198.48 208.42L198.79 215.94C198.79 215.94 193.79 218.01 190.93 215.73L191.48 212.13Z" fill="#FFB573"/>
<path d="M204.252 207.85L203.202 214.78L198.802 215.94L198.492 208.42L204.252 207.85Z" fill="#FFB573"/>
<path d="M173.908 171C169.498 171.78 163.328 184.42 163.328 184.42L174.438 194.42C174.438 194.42 183.268 184.78 182.798 179.04C182.398 174.19 179.518 170 173.908 171Z" fill="#8ABD97"/>
<path opacity="0.7" d="M173.908 171C169.498 171.78 163.328 184.42 163.328 184.42L174.438 194.42C174.438 194.42 183.268 184.78 182.798 179.04C182.398 174.19 179.518 170 173.908 171Z" fill="white"/>
<path d="M144.154 396.06C144.038 396.075 143.92 396.075 143.804 396.06C142.694 396 141.514 394.3 140.904 393.3C140.885 393.272 140.875 393.239 140.875 393.205C140.875 393.171 140.885 393.138 140.904 393.11C140.922 393.08 140.95 393.057 140.982 393.045C141.015 393.032 141.05 393.031 141.084 393.04C141.444 393.11 144.554 393.81 144.944 394.86C144.985 394.974 144.995 395.097 144.974 395.216C144.953 395.335 144.901 395.447 144.824 395.54C144.664 395.782 144.428 395.965 144.154 396.06ZM141.424 393.52C142.314 394.89 143.194 395.71 143.824 395.75C143.968 395.753 144.109 395.718 144.235 395.65C144.362 395.582 144.468 395.482 144.544 395.36C144.587 395.316 144.617 395.261 144.629 395.2C144.642 395.14 144.636 395.077 144.614 395.02C144.374 394.38 142.504 393.78 141.424 393.52Z" fill="#8ABD97"/>
<path d="M143.831 393.3C142.909 393.554 141.941 393.595 141.001 393.42C140.971 393.411 140.945 393.394 140.924 393.371C140.903 393.348 140.888 393.32 140.881 393.29C140.867 393.264 140.859 393.235 140.859 393.205C140.859 393.175 140.867 393.146 140.881 393.12C140.961 393.05 142.781 391.27 144.051 391.36C144.208 391.362 144.362 391.402 144.501 391.474C144.64 391.547 144.76 391.652 144.851 391.78C144.96 391.897 145.027 392.047 145.042 392.206C145.056 392.366 145.017 392.525 144.931 392.66C144.643 392.987 144.257 393.212 143.831 393.3ZM141.421 393.14C142.421 393.28 144.291 393.03 144.681 392.46C144.741 392.37 144.791 392.23 144.611 392C144.55 391.912 144.47 391.84 144.376 391.79C144.282 391.739 144.177 391.712 144.071 391.71C143.201 391.65 141.941 392.67 141.421 393.14Z" fill="#8ABD97"/>
<path d="M189.303 408.39C188.336 408.367 187.374 408.243 186.433 408.02C186.4 408.008 186.371 407.986 186.351 407.958C186.331 407.929 186.32 407.895 186.32 407.86C186.32 407.825 186.331 407.791 186.351 407.762C186.371 407.734 186.4 407.712 186.433 407.7C186.863 407.49 190.693 405.7 191.653 406.38C191.739 406.439 191.808 406.52 191.852 406.615C191.896 406.711 191.914 406.816 191.903 406.92C191.898 407.115 191.849 407.307 191.759 407.48C191.669 407.654 191.54 407.804 191.383 407.92C190.756 408.29 190.028 408.454 189.303 408.39ZM187.033 407.79C188.163 408 190.263 408.28 191.133 407.63C191.244 407.542 191.336 407.432 191.401 407.306C191.467 407.18 191.505 407.042 191.513 406.9C191.522 406.856 191.517 406.81 191.499 406.769C191.481 406.728 191.451 406.694 191.413 406.67C190.873 406.3 188.613 407.09 187.003 407.79H187.033Z" fill="#8ABD97"/>
<path d="M186.462 408C186.426 408.01 186.388 408.01 186.352 408C186.328 407.977 186.31 407.949 186.299 407.918C186.289 407.886 186.286 407.853 186.292 407.82C186.292 407.66 187.202 403.89 189.292 404.13C189.812 404.2 189.952 404.45 189.982 404.66C190.112 405.66 187.702 407.55 186.552 408.03L186.462 408ZM189.082 404.43C187.762 404.43 186.992 406.63 186.732 407.51C187.982 406.85 189.732 405.28 189.622 404.67C189.622 404.62 189.622 404.48 189.232 404.44L189.082 404.43Z" fill="#8ABD97"/>
<path d="M206 144.05L207.77 143.79C207.77 143.79 206.72 145 206 144.05Z" fill="#263238"/>
<path d="M267.532 227.71L228.812 235.71C228.149 235.834 227.465 235.695 226.904 235.321C226.344 234.947 225.951 234.369 225.812 233.71L224.002 225.31L223.352 222.21L224.492 218.67C224.65 218.162 224.841 217.664 225.062 217.18C225.086 217.103 225.12 217.029 225.162 216.96C225.8 215.503 226.66 214.154 227.712 212.96L229.712 212.54L262.912 205.65C263.574 205.526 264.258 205.665 264.819 206.039C265.38 206.413 265.772 206.991 265.912 207.65L269.442 224.65C269.586 225.308 269.467 225.997 269.11 226.569C268.753 227.141 268.187 227.551 267.532 227.71Z" fill="#8ABD97"/>
<path opacity="0.3" d="M265.61 206.75L246.93 225.75L242.93 224.13L227.37 217.82L225.18 216.93C225.818 215.473 226.679 214.124 227.73 212.93L229.73 212.51L262.93 205.62C263.438 205.518 263.965 205.572 264.443 205.773C264.921 205.975 265.327 206.315 265.61 206.75Z" fill="black"/>
<path d="M265.608 206.75L242.928 224.16L241.448 225.3L227.198 218.23L225.078 217.23C225.103 217.153 225.137 217.079 225.178 217.01C225.817 215.553 226.677 214.204 227.728 213.01L229.728 212.59L262.928 205.7C263.429 205.59 263.95 205.632 264.427 205.818C264.904 206.005 265.315 206.33 265.608 206.75Z" fill="#8ABD97"/>
<path opacity="0.2" d="M265.608 206.75L242.928 224.16L241.448 225.3L227.198 218.23L225.078 217.23C225.103 217.153 225.137 217.079 225.178 217.01C225.817 215.553 226.677 214.204 227.728 213.01L229.728 212.59L262.928 205.7C263.429 205.59 263.95 205.632 264.427 205.818C264.904 206.005 265.315 206.33 265.608 206.75Z" fill="white"/>
<path d="M314.805 262.78L303.005 275.5C302.539 275.996 301.897 276.288 301.217 276.312C300.537 276.336 299.875 276.091 299.375 275.63L270.435 248.68C269.937 248.216 269.643 247.573 269.619 246.892C269.594 246.211 269.841 245.549 270.305 245.05L282.145 232.33C282.374 232.081 282.651 231.879 282.959 231.738C283.266 231.596 283.599 231.517 283.938 231.505C284.276 231.493 284.614 231.548 284.931 231.667C285.248 231.786 285.538 231.968 285.785 232.2L314.715 259.15C315.09 259.499 315.352 259.952 315.468 260.451C315.584 260.949 315.548 261.472 315.365 261.95C315.24 262.264 315.049 262.547 314.805 262.78Z" fill="#8ABD97"/>
<path opacity="0.3" d="M315.321 262L289.001 257.71L282.891 231.71C283.357 231.495 283.877 231.423 284.384 231.503C284.891 231.583 285.363 231.812 285.741 232.16L314.671 259.11C315.064 259.466 315.337 259.935 315.454 260.452C315.57 260.969 315.524 261.51 315.321 262Z" fill="black"/>
<path d="M315.321 262L289.691 254.36L282.891 231.8C283.357 231.585 283.877 231.513 284.384 231.593C284.891 231.673 285.363 231.902 285.741 232.25L314.671 259.2C315.046 259.549 315.308 260.002 315.424 260.501C315.539 261 315.504 261.522 315.321 262Z" fill="#8ABD97"/>
<path opacity="0.2" d="M315.321 262L289.691 254.36L282.891 231.8C283.357 231.585 283.877 231.513 284.384 231.593C284.891 231.673 285.363 231.902 285.741 232.25L314.671 259.2C315.046 259.549 315.308 260.002 315.424 260.501C315.539 261 315.504 261.522 315.321 262Z" fill="white"/>
<path d="M325.089 283.73L338.089 298.91C338.337 299.2 338.524 299.538 338.637 299.903C338.75 300.268 338.788 300.653 338.748 301.033C338.708 301.413 338.59 301.78 338.403 302.114C338.216 302.447 337.963 302.738 337.659 302.97L309.419 324.97C308.944 325.256 308.38 325.355 307.837 325.247C307.293 325.14 306.809 324.835 306.479 324.39L296.309 312.79C296.118 312.567 295.959 312.318 295.839 312.05C295.65 311.682 295.571 311.268 295.612 310.856C295.653 310.445 295.811 310.054 296.069 309.73L321.069 283.62C321.459 283.197 321.975 282.911 322.54 282.803C323.105 282.695 323.69 282.771 324.209 283.02C324.544 283.199 324.843 283.44 325.089 283.73Z" fill="#8ABD97"/>
<path opacity="0.3" d="M324.208 283.05L317.998 310.67L295.878 312.08C295.689 311.712 295.61 311.298 295.651 310.886C295.692 310.475 295.85 310.084 296.108 309.76L321.108 283.65C321.495 283.236 322.004 282.955 322.561 282.847C323.117 282.74 323.694 282.811 324.208 283.05Z" fill="black"/>
<path d="M324.212 283.05L313.802 312.36L295.862 312.08C295.673 311.712 295.595 311.298 295.635 310.886C295.676 310.475 295.835 310.084 296.092 309.76L321.092 283.65C321.481 283.232 321.993 282.948 322.554 282.84C323.115 282.732 323.696 282.806 324.212 283.05Z" fill="#8ABD97"/>
<path opacity="0.2" d="M324.212 283.05L313.802 312.36L295.862 312.08C295.673 311.712 295.595 311.298 295.635 310.886C295.676 310.475 295.835 310.084 296.092 309.76L321.092 283.65C321.481 283.232 321.993 282.948 322.554 282.84C323.115 282.732 323.696 282.806 324.212 283.05Z" fill="white"/>
</svg>
