<svg width="24" height="24" viewBox="0 0 24 24" fill="none" xmlns="http://www.w3.org/2000/svg">
<path d="M6 17.5C6 18.3284 6.67157 19 7.5 19C8.32843 19 9 18.3284 9 17.5V15C9 13.8954 9.89543 13 11 13H13C14.1046 13 15 13.8954 15 15V17.5C15 18.3284 15.6716 19 16.5 19C17.3284 19 18 18.3284 18 17.5V11C18 10.3705 17.7036 9.77771 17.2 9.4L13.2 6.4C12.4889 5.86667 11.5111 5.86667 10.8 6.4L6.8 9.4C6.29639 9.77771 6 10.3705 6 11V17.5ZM6 21C4.89543 21 4 20.1046 4 19V10C4 9.37049 4.29639 8.77771 4.8 8.4L10.8 3.9C11.5111 3.36667 12.4889 3.36667 13.2 3.9L19.2 8.4C19.7036 8.77771 20 9.37049 20 10V19C20 20.1046 19.1046 21 18 21H15C13.8954 21 13 20.1046 13 19V16C13 15.4477 12.5523 15 12 15C11.4477 15 11 15.4477 11 16V19C11 20.1046 10.1046 21 9 21H6Z" fill="#616161"/>
</svg>
