<svg width="750" height="500" viewBox="0 0 750 500" fill="none" xmlns="http://www.w3.org/2000/svg">
<path d="M666.947 150.27L657.377 196.62L651.217 190.61L640.737 198.09L632.727 188.14L614.767 201.2L599.417 175.53L582.297 185.56L575.507 176.2L553.767 188.45L547.227 174.44L562.467 100.63L644.167 117.5L666.947 150.27Z" fill="#EBEBEB"/>
<path d="M644.169 117.5L666.949 150.27L638.609 144.42L644.169 117.5Z" fill="#DBDBDB"/>
<path d="M655.338 205.88L641.308 273.88L531.258 251.16L545.188 183.71L551.728 197.71L573.478 185.46L580.258 194.82L597.388 184.8L612.728 210.47L630.698 197.41L638.698 207.35L649.188 199.88L655.338 205.88Z" fill="#EBEBEB"/>
<path d="M497.826 197.91L385.676 204.85L376.766 60.89L460.046 55.73L490.616 81.38L497.826 197.91Z" fill="#EBEBEB"/>
<path d="M460.047 55.73L490.617 81.38L461.737 83.17L460.047 55.73Z" fill="#DBDBDB"/>
<path d="M428.996 152.6L428.556 149.35C427.426 142.62 429.266 135.09 435.116 127.22C440.396 120.22 443.256 115.22 442.936 109.54C442.576 103.14 438.326 99.0999 430.416 99.4199C425.895 99.6546 421.553 101.259 417.966 104.02L414.516 96.2899C418.516 93.0399 425.516 90.6399 432.166 90.2899C446.596 89.4899 453.616 98.0299 454.166 107.56C454.646 116.09 450.226 122.5 444.606 129.99C439.446 136.82 437.756 142.45 438.486 148.82L438.796 152.08L428.996 152.6ZM427.216 170.31C426.956 165.67 429.906 162.23 434.296 161.99C438.686 161.75 441.886 164.83 442.146 169.48C442.386 173.87 439.696 177.41 435.056 177.67C430.626 177.92 427.426 174.7 427.176 170.31H427.216Z" fill="#DBDBDB"/>
<path d="M148.48 128.11L137.2 123L135.63 126.45C135.398 126.943 135.036 127.364 134.584 127.667C134.131 127.97 133.604 128.144 133.06 128.17C132.44 128.19 131.822 128.25 131.21 128.35C130.673 128.43 130.124 128.362 129.622 128.154C129.12 127.947 128.684 127.606 128.36 127.17L126.15 124.08L116.08 131.3L118.29 134.39C118.597 134.836 118.778 135.357 118.813 135.897C118.849 136.438 118.737 136.978 118.49 137.46C118.205 138.01 117.948 138.574 117.72 139.15C117.522 139.658 117.189 140.102 116.757 140.435C116.326 140.768 115.812 140.977 115.27 141.04L111.5 141.41L112.71 153.74L116.5 153.36C117.044 153.317 117.589 153.422 118.077 153.665C118.565 153.908 118.977 154.28 119.27 154.74C119.43 155 119.6 155.25 119.78 155.5C119.96 155.75 120.14 155.99 120.33 156.23C120.675 156.65 120.897 157.157 120.971 157.696C121.045 158.234 120.969 158.782 120.75 159.28L119.17 162.76L130.46 167.88L132.03 164.41C132.264 163.917 132.628 163.498 133.082 163.197C133.537 162.895 134.065 162.724 134.61 162.7C135.223 162.675 135.834 162.615 136.44 162.52C136.977 162.44 137.526 162.508 138.028 162.716C138.53 162.923 138.966 163.264 139.29 163.7L141.5 166.79L151.58 159.57L149.37 156.48C149.053 156.038 148.866 155.516 148.831 154.974C148.796 154.431 148.913 153.889 149.17 153.41C149.449 152.863 149.699 152.302 149.92 151.73C150.112 151.218 150.443 150.77 150.876 150.437C151.309 150.103 151.826 149.896 152.37 149.84L156.16 149.46L154.94 137.13L151.15 137.5C150.61 137.547 150.067 137.445 149.582 137.203C149.096 136.961 148.687 136.59 148.4 136.13C148.23 135.87 148.06 135.62 147.88 135.37C147.7 135.12 147.52 134.87 147.33 134.64C146.987 134.215 146.767 133.704 146.693 133.163C146.619 132.622 146.694 132.071 146.91 131.57L148.48 128.11ZM142.08 139.52C143.249 141.152 143.909 143.094 143.974 145.1C144.04 147.107 143.509 149.088 142.449 150.793C141.388 152.498 139.846 153.85 138.018 154.678C136.189 155.506 134.156 155.774 132.175 155.446C130.194 155.119 128.355 154.212 126.89 152.839C125.425 151.466 124.4 149.69 123.944 147.735C123.489 145.779 123.623 143.733 124.331 141.854C125.039 139.976 126.288 138.349 127.92 137.18C130.108 135.613 132.829 134.979 135.485 135.418C138.14 135.857 140.512 137.332 142.08 139.52Z" fill="#EBEBEB"/>
<path d="M658.38 291.71L650.86 296.05L652.19 298.35C652.389 298.68 652.488 299.06 652.475 299.445C652.463 299.83 652.339 300.203 652.12 300.52C651.89 300.88 651.67 301.25 651.47 301.64C651.306 301.985 651.046 302.276 650.722 302.478C650.397 302.68 650.022 302.785 649.64 302.78H647V311.47H649.66C650.042 311.465 650.417 311.57 650.742 311.772C651.066 311.974 651.326 312.265 651.49 312.61C651.69 313 651.91 313.37 652.14 313.73C652.359 314.047 652.483 314.42 652.495 314.805C652.507 315.19 652.409 315.57 652.21 315.9L650.88 318.2L658.4 322.54L659.74 320.23C659.934 319.902 660.216 319.635 660.553 319.459C660.89 319.282 661.27 319.203 661.65 319.23H662.93C663.31 319.204 663.689 319.284 664.026 319.46C664.363 319.637 664.645 319.903 664.84 320.23L666.18 322.55L673.69 318.21L672.36 315.9C672.171 315.568 672.078 315.19 672.092 314.809C672.106 314.427 672.227 314.057 672.44 313.74C672.67 313.38 672.89 313 673.09 312.62C673.254 312.275 673.514 311.984 673.838 311.782C674.163 311.58 674.538 311.475 674.92 311.48H677.58V302.79H674.9C674.518 302.795 674.143 302.69 673.818 302.488C673.494 302.286 673.234 301.995 673.07 301.65C672.87 301.27 672.65 300.89 672.42 300.53C672.207 300.213 672.086 299.843 672.072 299.461C672.058 299.08 672.151 298.702 672.34 298.37L673.67 296.06L666.16 291.72L664.82 294C664.626 294.328 664.344 294.595 664.007 294.771C663.67 294.948 663.29 295.027 662.91 295H662.27H661.63C661.249 295.026 660.868 294.946 660.53 294.769C660.191 294.593 659.907 294.327 659.71 294L658.38 291.71ZM662.27 300.01C663.679 300.008 665.057 300.424 666.229 301.206C667.402 301.987 668.316 303.099 668.856 304.401C669.396 305.702 669.538 307.134 669.264 308.517C668.989 309.899 668.311 311.168 667.315 312.165C666.318 313.161 665.049 313.839 663.667 314.114C662.284 314.388 660.852 314.246 659.551 313.706C658.249 313.166 657.137 312.252 656.356 311.079C655.574 309.907 655.158 308.529 655.16 307.12C655.159 306.185 655.342 305.26 655.698 304.396C656.055 303.532 656.579 302.747 657.239 302.086C657.899 301.425 658.684 300.9 659.547 300.542C660.41 300.184 661.335 300 662.27 300V300.01Z" fill="#EBEBEB"/>
<path d="M171.298 91.16L164.408 96.44L165.998 98.55C166.236 98.8506 166.381 99.213 166.419 99.5942C166.456 99.9753 166.383 100.359 166.208 100.7C166.017 101.089 165.85 101.49 165.708 101.9C165.585 102.261 165.364 102.581 165.069 102.823C164.773 103.065 164.417 103.22 164.038 103.27L161.398 103.61L162.518 112.22L165.158 111.88C165.543 111.826 165.934 111.882 166.288 112.042C166.642 112.201 166.944 112.457 167.158 112.78C167.399 113.128 167.66 113.462 167.938 113.78C168.196 114.063 168.367 114.415 168.431 114.792C168.495 115.17 168.449 115.558 168.298 115.91L167.298 118.37L175.298 121.7L176.298 119.24C176.447 118.887 176.692 118.583 177.005 118.362C177.318 118.141 177.686 118.012 178.068 117.99L178.708 117.92L179.338 117.82C179.709 117.75 180.091 117.783 180.443 117.915C180.796 118.048 181.105 118.274 181.338 118.57L182.968 120.7L189.858 115.42L188.248 113.31C188.016 113.005 187.873 112.641 187.836 112.26C187.799 111.878 187.869 111.494 188.038 111.15C188.228 110.763 188.395 110.366 188.538 109.96C188.662 109.599 188.883 109.279 189.178 109.037C189.473 108.795 189.83 108.64 190.208 108.59L192.848 108.25L191.728 99.64L189.088 99.98C188.705 100.035 188.314 99.98 187.96 99.8226C187.607 99.6652 187.304 99.4113 187.088 99.09C186.838 98.73 186.578 98.39 186.298 98.09C186.065 97.8006 185.915 97.4538 185.862 97.0861C185.809 96.7184 185.856 96.3432 185.998 96L186.998 93.54L178.998 90.21L177.998 92.67C177.848 93.0215 177.603 93.3244 177.29 93.5451C176.978 93.7657 176.61 93.8955 176.228 93.92L175.588 93.98L174.998 94C174.628 94.0697 174.246 94.0367 173.894 93.9044C173.541 93.7722 173.231 93.5458 172.998 93.25L171.298 91.16ZM176.228 98.89C177.621 98.7109 179.036 98.9484 180.294 99.5725C181.553 100.197 182.598 101.179 183.298 102.397C183.998 103.614 184.322 105.012 184.229 106.413C184.136 107.814 183.63 109.157 182.775 110.271C181.92 111.385 180.754 112.221 179.425 112.673C178.095 113.125 176.661 113.174 175.304 112.812C173.947 112.451 172.727 111.695 171.799 110.641C170.871 109.587 170.276 108.282 170.088 106.89C169.963 105.961 170.023 105.017 170.265 104.111C170.506 103.205 170.924 102.357 171.495 101.613C172.065 100.87 172.777 100.246 173.59 99.7789C174.402 99.3116 175.299 99.0095 176.228 98.89Z" fill="#EBEBEB"/>
<path d="M119.818 316.78C120.193 307.113 120.06 297.433 119.418 287.78C117.987 267.847 114.947 248.063 110.328 228.62C107.788 217.68 104.668 206.92 101.408 196.17C101.308 195.84 100.788 195.93 100.878 196.27C110.948 234.17 119.208 273.27 118.638 312.67C118.478 323.67 117.198 334.52 116.158 345.48C116.158 345.77 116.608 345.89 116.678 345.59C118.748 336.18 119.428 326.36 119.818 316.78Z" fill="#EBEBEB"/>
<path d="M100.874 196.24C100.874 196.24 85.6343 234.94 89.0443 244C92.4543 253.06 99.4943 255 99.4943 255C99.4943 255 90.1643 268.32 96.6843 280.81C103.204 293.3 117.684 292.71 118.684 306.87C118.654 306.94 119.454 247.73 100.874 196.24Z" fill="#EBEBEB"/>
<path d="M116.995 282.49C117.019 282.425 117.019 282.354 116.995 282.29C114.995 255.869 110.037 229.756 102.215 204.44C102.215 204.37 102.065 204.39 102.085 204.44C105.105 215.773 107.771 227.153 110.085 238.58C108.036 236.639 105.533 235.243 102.805 234.52C102.805 234.52 102.725 234.58 102.805 234.6C105.671 235.65 108.248 237.363 110.325 239.6C110.765 241.85 111.205 244.09 111.615 246.34C108.205 242.53 103.485 240.64 98.7548 238.84C98.7441 238.844 98.735 238.852 98.7286 238.862C98.7222 238.872 98.7188 238.883 98.7188 238.895C98.7187 238.907 98.7222 238.918 98.7286 238.928C98.735 238.937 98.7441 238.945 98.7548 238.95C103.685 240.95 108.585 243.53 111.925 247.78C113.085 254.2 114.105 260.643 114.985 267.11C112.523 264.53 109.365 262.721 105.895 261.9C105.785 261.9 105.725 262.03 105.835 262.06C109.4 263.11 112.582 265.173 114.995 268H115.055C115.355 270.267 115.641 272.543 115.915 274.83C114.01 273.218 111.859 271.922 109.545 270.99C109.485 270.99 109.445 271.06 109.545 271.08C111.907 272.103 114.07 273.535 115.935 275.31C115.935 275.31 115.985 275.31 116.015 275.31C116.265 277.48 116.515 279.65 116.735 281.82C113.301 277.669 108.844 274.484 103.805 272.58C103.784 272.58 103.763 272.588 103.748 272.603C103.733 272.618 103.725 272.639 103.725 272.66C103.725 272.681 103.733 272.701 103.748 272.716C103.763 272.731 103.784 272.74 103.805 272.74C108.781 274.933 113.152 278.299 116.545 282.55C116.582 282.596 116.632 282.631 116.689 282.649C116.747 282.667 116.808 282.667 116.865 282.65C117.195 285.98 117.495 289.31 117.735 292.65C117.735 292.7 117.815 292.7 117.815 292.65C117.555 289.297 117.281 285.91 116.995 282.49Z" fill="white"/>
<path d="M104.743 230.71C101.983 228.992 98.8305 228.008 95.5834 227.85C95.5675 227.85 95.5523 227.856 95.541 227.868C95.5298 227.879 95.5234 227.894 95.5234 227.91C95.5234 227.926 95.5298 227.941 95.541 227.953C95.5523 227.964 95.5675 227.97 95.5834 227.97C98.7227 228.565 101.769 229.574 104.643 230.97C104.763 231 104.853 230.79 104.743 230.71Z" fill="white"/>
<path d="M106.6 271.68C104.479 270.463 102.143 269.665 99.7201 269.33C99.6401 269.33 99.6301 269.44 99.7201 269.46C102.086 269.935 104.375 270.736 106.52 271.84C106.61 271.89 106.69 271.73 106.6 271.68Z" fill="white"/>
<path d="M159.898 244.67C153.451 249.127 147.53 254.3 142.248 260.09C136.801 266.221 132.6 273.354 129.878 281.09C124.086 297.208 120.972 314.166 120.658 331.29C120.464 340.773 121.374 350.247 123.368 359.52C123.385 359.587 123.426 359.646 123.484 359.684C123.543 359.721 123.613 359.735 123.681 359.722C123.749 359.71 123.81 359.671 123.85 359.615C123.891 359.558 123.908 359.489 123.898 359.42C121.416 343.056 121.511 326.405 124.178 310.07C126.798 294.07 130.908 276.65 141.088 263.64C146.628 256.55 153.538 250.98 160.368 245.22C160.728 244.9 160.268 244.41 159.898 244.67Z" fill="#EBEBEB"/>
<path d="M122.898 319.75C126.568 313.814 130.881 308.301 135.758 303.31C143.388 295.68 149.808 290.26 150.808 285.22C151.808 280.18 143.168 276.46 143.168 276.46C143.168 276.46 153.718 278.36 156.608 273.93C159.498 269.5 160.888 243.84 160.888 243.84C160.888 243.84 141.688 257.55 132.738 276.77C123.788 295.99 122.898 319.75 122.898 319.75Z" fill="#EBEBEB"/>
<path d="M153.999 267.91C152.735 267.722 151.453 267.678 150.179 267.78C150.029 267.78 150.039 268.04 150.179 268.05C151.439 268.05 152.709 267.99 153.969 268.05C153.984 268.046 153.997 268.039 154.007 268.028C154.017 268.017 154.024 268.004 154.027 267.989C154.031 267.975 154.03 267.96 154.025 267.946C154.02 267.932 154.011 267.919 153.999 267.91Z" fill="white"/>
<path d="M140.209 292.8C138.182 292.841 136.177 293.241 134.289 293.98C134.289 293.98 134.289 294.08 134.289 294.07C136.289 293.6 138.219 293.41 140.199 293.07C140.225 293.059 140.247 293.04 140.263 293.017C140.279 292.994 140.288 292.966 140.289 292.938C140.29 292.91 140.283 292.882 140.269 292.858C140.255 292.833 140.234 292.813 140.209 292.8Z" fill="white"/>
<path d="M136.07 284.2C135.228 284.193 134.388 284.267 133.56 284.42C133.545 284.426 133.531 284.436 133.522 284.449C133.513 284.463 133.508 284.479 133.508 284.495C133.508 284.511 133.513 284.527 133.522 284.541C133.531 284.554 133.545 284.564 133.56 284.57C134.398 284.618 135.239 284.581 136.07 284.46C136.104 284.46 136.138 284.446 136.162 284.422C136.186 284.397 136.2 284.364 136.2 284.33C136.2 284.295 136.186 284.262 136.162 284.238C136.138 284.214 136.104 284.2 136.07 284.2Z" fill="white"/>
<path d="M66.605 271.89C72.8542 274.009 78.8426 276.83 84.455 280.3C90.2784 284 95.3284 288.796 99.325 294.42C107.734 306.125 114.172 319.127 118.385 332.91C120.735 340.542 122.184 348.422 122.705 356.39C122.694 356.442 122.666 356.488 122.625 356.521C122.584 356.554 122.533 356.572 122.48 356.572C122.427 356.572 122.376 356.554 122.335 356.521C122.294 356.488 122.266 356.442 122.255 356.39C120.49 342.574 116.569 329.121 110.635 316.52C104.805 304.17 97.455 291.03 86.215 282.85C80.095 278.4 73.215 275.48 66.355 272.4C65.995 272.28 66.245 271.77 66.605 271.89Z" fill="#EBEBEB"/>
<path d="M113.907 324.1C109.563 320.147 104.797 316.683 99.6972 313.77C91.7572 309.36 85.3072 306.46 83.3372 302.61C81.3672 298.76 87.4972 293.76 87.4972 293.76C87.4972 293.76 79.3972 297.76 76.0372 294.81C72.6772 291.86 65.6172 271.46 65.6172 271.46C65.6172 271.46 84.3272 278.11 95.9972 291.6C107.667 305.09 113.907 324.1 113.907 324.1Z" fill="#EBEBEB"/>
<path d="M98.3775 305.32C96.538 305.192 94.6909 305.419 92.9375 305.99C92.9375 305.99 92.9375 306.08 92.9375 306.07C94.7264 305.763 96.5337 305.576 98.3475 305.51C98.4775 305.51 98.5075 305.33 98.3775 305.32Z" fill="white"/>
<path d="M82.059 283.92C81.2199 283.851 80.3753 283.898 79.549 284.06C79.459 284.06 79.489 284.22 79.549 284.21C80.379 284.12 81.189 284.15 82.009 284.13C82.0345 284.131 82.0595 284.123 82.0798 284.108C82.1001 284.092 82.1145 284.07 82.1204 284.045C82.1263 284.021 82.1234 283.995 82.1122 283.972C82.101 283.949 82.0822 283.93 82.059 283.92Z" fill="white"/>
<path d="M138.035 382.18H95.8047L101.825 338.07L103.365 326.76H130.475L132.015 338.07L138.035 382.18Z" fill="#DBDBDB"/>
<path d="M132.018 338.07H101.828L103.368 326.76H130.478L132.018 338.07Z" fill="#C7C7C7"/>
<path d="M134.344 322.84H99.4844V332.42H134.344V322.84Z" fill="#DBDBDB"/>
<path d="M68.9609 382.18L144.971 381.94L220.981 381.85L373.001 381.68L525.021 381.85L601.031 381.94L677.041 382.18L601.031 382.43L525.021 382.51L373.001 382.68L220.981 382.51L144.971 382.42L68.9609 382.18Z" fill="#263238"/>
<path d="M374.998 456.71C533.36 456.71 661.738 442.643 661.738 425.29C661.738 407.937 533.36 393.87 374.998 393.87C216.636 393.87 88.2578 407.937 88.2578 425.29C88.2578 442.643 216.636 456.71 374.998 456.71Z" fill="#EBEBEB"/>
<path d="M308.25 420.09C305.92 420.88 239.11 421.09 236.55 419.51C235.55 418.91 234.98 409.18 234.55 397.4C234.46 394.86 234.39 392.23 234.33 389.57L229 353.93L273.67 353.64L277.88 389.29L277.71 397.13C277.71 397.13 303.33 408.48 305.95 410.54C308.57 412.6 310.58 419.3 308.25 420.09Z" fill="#EB9481"/>
<path d="M308.255 420.09C305.925 420.88 239.115 421.09 236.555 419.51C235.375 418.77 234.735 404.56 234.375 389.57L277.835 389.29L277.665 397.13C277.665 397.13 303.285 408.48 305.905 410.54C308.525 412.6 310.585 419.3 308.255 420.09Z" fill="white"/>
<path d="M308.255 420.09C305.925 420.88 239.115 421.09 236.555 419.51C235.555 418.91 234.985 409.18 234.555 397.4L277.625 397.13C277.625 397.13 303.245 408.48 305.865 410.54C308.485 412.6 310.585 419.3 308.255 420.09Z" fill="#A6A6A6"/>
<path d="M307.284 417.42C296.084 417.18 250.884 417.29 239.794 417.91C239.704 417.91 239.704 417.97 239.794 417.98C250.894 418.45 296.094 417.98 307.284 417.6C307.524 417.59 307.524 417.42 307.284 417.42Z" fill="#263238"/>
<path d="M301.592 408.15C300.346 408.122 299.109 408.353 297.957 408.828C296.806 409.303 295.765 410.012 294.902 410.91C293.328 412.513 292.439 414.664 292.422 416.91C292.422 416.98 292.542 416.98 292.552 416.91C292.924 414.698 294.001 412.665 295.623 411.115C297.245 409.565 299.325 408.581 301.552 408.31C301.573 408.315 301.596 408.312 301.614 408.301C301.633 408.289 301.647 408.271 301.652 408.25C301.657 408.229 301.654 408.206 301.643 408.188C301.631 408.169 301.613 408.155 301.592 408.15Z" fill="#263238"/>
<path d="M282 398.23C277.52 398.18 272.33 399.78 269.55 403.46C269.45 403.6 269.65 403.75 269.78 403.68C273.695 401.614 277.818 399.971 282.08 398.78C282.146 398.762 282.203 398.721 282.241 398.663C282.278 398.606 282.294 398.537 282.284 398.47C282.274 398.402 282.24 398.34 282.187 398.296C282.135 398.252 282.069 398.229 282 398.23Z" fill="#263238"/>
<path d="M285.482 399.56C280.992 399.56 275.802 401.12 273.032 404.79C272.922 404.94 273.122 405.09 273.262 405.02C277.17 402.947 281.291 401.301 285.552 400.11C285.617 400.092 285.673 400.052 285.711 399.995C285.748 399.939 285.764 399.872 285.755 399.805C285.747 399.738 285.715 399.676 285.664 399.631C285.614 399.586 285.549 399.561 285.482 399.56Z" fill="#263238"/>
<path d="M288.946 400.9C284.466 400.9 279.276 402.45 276.496 406.13C276.396 406.27 276.596 406.42 276.726 406.35C280.64 404.284 284.763 402.641 289.026 401.45C289.092 401.432 289.149 401.39 289.186 401.333C289.224 401.276 289.239 401.207 289.229 401.14C289.219 401.072 289.185 401.01 289.133 400.966C289.081 400.922 289.014 400.898 288.946 400.9Z" fill="#263238"/>
<path d="M292.411 402.24C287.921 402.19 282.73 403.79 279.96 407.47C279.85 407.61 280.061 407.76 280.191 407.69C284.104 405.622 288.227 403.98 292.49 402.79C292.556 402.772 292.613 402.73 292.651 402.673C292.688 402.616 292.704 402.547 292.694 402.48C292.684 402.412 292.65 402.35 292.597 402.306C292.545 402.262 292.479 402.238 292.411 402.24Z" fill="#263238"/>
<path d="M242.617 407.26C237.617 407.26 237.617 415.11 242.617 415.08C247.617 415.05 247.657 407.23 242.617 407.26Z" fill="#263238"/>
<path d="M286.817 386.25C284.547 384.37 281.687 386.25 280.297 388.18C277.983 391.591 276.604 395.55 276.297 399.66C276.297 399.75 276.367 399.79 276.437 399.79C276.455 399.875 276.492 399.954 276.547 400.021C276.602 400.088 276.672 400.141 276.751 400.175C276.831 400.209 276.917 400.224 277.003 400.218C277.09 400.212 277.173 400.185 277.247 400.14C280.427 397.93 284.107 395.95 286.517 392.82C287.887 391 289.007 388 286.817 386.25ZM281.357 395.79C279.817 396.92 278.227 397.97 276.727 399.16C277.527 396.92 278.217 394.66 279.237 392.5C279.708 391.464 280.249 390.462 280.857 389.5C281.857 388.01 286.217 384.25 286.677 389.12C286.937 391.79 283.187 394.45 281.357 395.79Z" fill="#263238"/>
<path d="M265.137 401.36C269.037 401.94 273.067 400.82 276.897 400.21C276.98 400.188 277.057 400.147 277.122 400.091C277.186 400.034 277.236 399.963 277.268 399.883C277.301 399.803 277.313 399.717 277.306 399.632C277.299 399.546 277.272 399.463 277.227 399.39C277.241 399.379 277.253 399.364 277.261 399.348C277.269 399.331 277.274 399.313 277.274 399.295C277.274 399.277 277.269 399.258 277.261 399.242C277.253 399.226 277.241 399.211 277.227 399.2C274.15 396.455 270.404 394.569 266.367 393.73C264.007 393.28 260.667 393.93 260.367 396.86C260.007 399.62 262.857 401 265.137 401.36ZM262.417 398.82C259.417 394.98 265.147 394.65 266.867 395.05C267.983 395.329 269.079 395.683 270.147 396.11C272.334 397.017 274.474 398.035 276.557 399.16C274.657 399.35 272.787 399.69 270.897 399.95C268.637 400.25 264.097 400.93 262.417 398.82Z" fill="#263238"/>
<path d="M163.32 189.2C163.32 189.2 215.19 277.44 216.58 283.64C218.71 293.16 230 387.17 230 387.17L284 386.17C284 386.17 274.7 303.28 265.89 275.97C259.55 256.3 213.77 191.06 213.77 191.06L163.32 189.2Z" fill="#37474F"/>
<path d="M279.096 377.93C271.346 377.87 243.876 377.56 233.556 378.52C233.476 378.52 233.486 378.66 233.556 378.67C237.106 379.18 271.336 378.39 279.086 378.14C279.102 378.146 279.12 378.148 279.137 378.146C279.154 378.144 279.17 378.138 279.185 378.128C279.199 378.119 279.211 378.106 279.219 378.091C279.228 378.076 279.233 378.059 279.234 378.042C279.234 378.025 279.231 378.007 279.224 377.992C279.217 377.976 279.206 377.962 279.193 377.951C279.18 377.94 279.164 377.933 279.147 377.929C279.13 377.925 279.113 377.926 279.096 377.93Z" fill="#263238"/>
<path d="M172.17 197.3C175.57 202.63 179.17 207.85 182.63 213.14C186.09 218.43 189.57 223.72 193 229C199.84 239.667 206.507 250.403 213 261.21C216.169 266.219 218.88 271.504 221.1 277C223.127 282.497 224.65 288.167 225.65 293.94C226.71 299.73 227.41 305.58 228.06 311.43C228.727 317.65 229.424 323.873 230.15 330.1C231.57 342.84 232.994 355.58 234.42 368.32C234.59 369.88 234.76 371.44 234.92 373.01C234.92 373.24 234.53 373.28 234.5 373.01C232.91 360.36 231.59 347.66 230.15 335.01C229.43 328.697 228.714 322.387 228 316.08C227.33 310.21 226.69 304.33 225.78 298.5C224.945 292.745 223.675 287.062 221.98 281.5C220.113 275.74 217.611 270.206 214.52 265C208.27 254.21 201.65 243.61 195.03 233C188.41 222.39 181.61 211.69 174.63 201.21C173.77 199.92 172.9 198.63 172 197.36C171.93 197.29 172.11 197.2 172.17 197.3Z" fill="#263238"/>
<path d="M180.324 425.29C177.864 425.14 114.324 399.4 112.564 396.96C112.485 396.816 112.451 396.653 112.464 396.49C112.464 394.3 116.874 386.66 120.554 376.62C120.784 375.98 122.424 373 124.694 368.99C131.004 358 142.004 339.07 142.004 339.07L183.534 355.57L163.654 385.32L160.564 392.52C160.564 392.52 180.054 412.67 181.694 415.52C183.334 418.37 182.774 425.43 180.324 425.29Z" fill="#EB9481"/>
<path d="M180.324 425.29C177.864 425.14 114.324 399.4 112.564 396.96C112.485 396.816 112.451 396.653 112.464 396.49C112.464 394.3 116.874 386.66 120.554 376.62C120.784 375.98 122.424 373 124.694 368.99L163.694 385.32L160.604 392.52C160.604 392.52 180.094 412.67 181.734 415.52C183.374 418.37 182.774 425.43 180.324 425.29Z" fill="white"/>
<path d="M180.32 425.29C177.86 425.14 114.32 399.4 112.56 396.96C111.88 396.03 114.72 387.36 120.56 376.62L160.56 392.53C160.56 392.53 180.05 412.66 181.7 415.53C183.35 418.4 182.77 425.43 180.32 425.29Z" fill="#A6A6A6"/>
<path d="M180.425 422.45C170.135 418.03 128.195 401.17 117.685 397.59C117.595 397.59 117.575 397.59 117.685 397.65C127.795 402.25 169.865 418.77 180.385 422.65C180.585 422.7 180.645 422.54 180.425 422.45Z" fill="#263238"/>
<path d="M178.624 411.72C177.483 411.219 176.25 410.96 175.004 410.96C173.757 410.96 172.525 411.219 171.384 411.72C169.332 412.618 167.706 414.273 166.844 416.34C166.844 416.4 166.934 416.45 166.964 416.39C168.143 414.473 169.911 412.989 172.004 412.162C174.097 411.334 176.402 411.207 178.574 411.8C178.591 411.795 178.605 411.785 178.614 411.77C178.624 411.755 178.627 411.737 178.624 411.72Z" fill="#263238"/>
<path d="M164.195 395.18C160.065 393.45 154.645 392.99 150.695 395.36C150.545 395.45 150.695 395.66 150.825 395.65C155.229 395.203 159.667 395.227 164.065 395.72C164.133 395.727 164.201 395.71 164.257 395.671C164.313 395.631 164.352 395.573 164.368 395.507C164.384 395.441 164.375 395.371 164.343 395.311C164.312 395.251 164.259 395.204 164.195 395.18Z" fill="#263238"/>
<path d="M166.906 397.72C162.776 395.99 157.356 395.53 153.406 397.9C153.256 397.99 153.406 398.2 153.536 398.19C157.939 397.738 162.378 397.762 166.776 398.26C166.844 398.267 166.912 398.25 166.968 398.211C167.023 398.172 167.063 398.113 167.079 398.047C167.095 397.981 167.086 397.911 167.054 397.851C167.023 397.791 166.97 397.744 166.906 397.72Z" fill="#263238"/>
<path d="M169.622 400.26C165.482 398.53 160.062 398.07 156.122 400.44C155.962 400.53 156.122 400.74 156.242 400.73C160.645 400.278 165.084 400.302 169.482 400.8C169.551 400.812 169.622 400.797 169.681 400.759C169.739 400.721 169.782 400.662 169.799 400.594C169.817 400.526 169.808 400.454 169.776 400.393C169.743 400.331 169.688 400.284 169.622 400.26Z" fill="#263238"/>
<path d="M172.333 402.8C168.193 401.07 162.783 400.61 158.833 402.97C158.673 403.07 158.833 403.28 158.953 403.27C163.356 402.818 167.795 402.842 172.193 403.34C172.262 403.352 172.333 403.337 172.392 403.299C172.45 403.261 172.493 403.202 172.51 403.134C172.528 403.066 172.519 402.994 172.487 402.933C172.454 402.871 172.399 402.823 172.333 402.8Z" fill="#263238"/>
<path d="M124.281 388.77C119.611 386.91 116.711 394.18 121.401 396.04C126.091 397.9 129.001 390.63 124.281 388.77Z" fill="#263238"/>
<path d="M173.142 385.88C171.732 383.29 168.402 383.93 166.372 385.22C162.952 387.511 160.194 390.659 158.372 394.35C158.364 394.366 158.36 394.384 158.359 394.402C158.359 394.42 158.363 394.438 158.371 394.454C158.378 394.471 158.39 394.485 158.404 394.496C158.418 394.508 158.434 394.516 158.452 394.52C158.452 394.85 158.672 395.24 159.062 395.16C162.852 394.29 167.002 393.84 170.402 391.84C172.352 390.68 174.472 388.33 173.142 385.88ZM164.492 392.67C162.642 393.14 160.782 393.52 158.952 394.06C160.466 392.236 162.071 390.491 163.762 388.83C164.594 388.037 165.48 387.302 166.412 386.63C167.862 385.63 173.342 383.78 171.942 388.47C171.172 391.06 166.702 392.11 164.492 392.67Z" fill="#263238"/>
<path d="M147.376 391.75C150.776 393.75 154.926 394.22 158.706 395.1C159.096 395.19 159.356 394.8 159.326 394.46C159.345 394.458 159.363 394.451 159.378 394.44C159.393 394.429 159.406 394.415 159.414 394.397C159.422 394.38 159.425 394.362 159.424 394.343C159.422 394.324 159.416 394.306 159.406 394.29C157.587 390.592 154.828 387.436 151.406 385.14C149.406 383.84 146.056 383.19 144.636 385.77C143.216 388.35 145.386 390.58 147.376 391.75ZM145.816 388.37C144.426 383.68 149.896 385.54 151.346 386.55C152.277 387.223 153.159 387.962 153.986 388.76C155.674 390.424 157.276 392.173 158.786 394C156.956 393.46 155.096 393.07 153.246 392.6C151.006 392 146.576 391 145.816 388.37Z" fill="#263238"/>
<path d="M166.881 383.66L120.391 364.89C120.391 364.89 178.031 280.14 178.451 273.83C178.831 268.25 153.511 219.63 152.521 205.46C151.441 190.16 158.801 178.33 166.901 170.98L214.851 191.37C214.851 191.37 209.791 199.46 201.851 203.97C201.851 203.97 226.441 260.17 225.041 277.45C223.641 294.73 166.881 383.66 166.881 383.66Z" fill="#37474F"/>
<path d="M168.942 374.82C162.222 371.93 164.192 372.66 157.432 369.82C154.132 368.44 132.432 359.41 129.092 358.66C129.022 358.66 128.972 358.76 129.042 358.8C131.932 360.57 153.812 369.22 157.142 370.54C163.952 373.22 162.022 372.38 168.862 374.98C168.872 374.994 168.885 375.005 168.901 375.012C168.916 375.018 168.934 375.021 168.951 375.02C168.967 375.018 168.984 375.012 168.998 375.003C169.012 374.993 169.023 374.98 169.031 374.965C169.039 374.95 169.042 374.933 169.041 374.916C169.041 374.899 169.036 374.882 169.027 374.868C169.018 374.853 169.005 374.841 168.99 374.833C168.975 374.825 168.959 374.82 168.942 374.82Z" fill="#263238"/>
<path d="M209.711 202.94C204.719 204.104 199.835 205.689 195.111 207.68C195.092 207.687 195.075 207.697 195.06 207.71C195.044 207.723 195.032 207.74 195.023 207.758C195.014 207.776 195.009 207.796 195.008 207.816C195.007 207.836 195.01 207.856 195.016 207.875C195.023 207.894 195.033 207.912 195.046 207.927C195.06 207.942 195.076 207.954 195.094 207.963C195.112 207.972 195.132 207.977 195.152 207.978C195.172 207.979 195.192 207.977 195.211 207.97C200.111 206.54 205.091 205.2 209.911 203.51C210.281 203.38 210.091 202.86 209.711 202.94Z" fill="#263238"/>
<path d="M204.001 201C203.535 201.829 203.124 202.687 202.771 203.57C202.425 204.24 202.212 204.97 202.141 205.72C202.141 205.87 202.341 205.9 202.431 205.81C202.932 205.21 203.337 204.535 203.631 203.81C204.041 203.02 204.461 202.24 204.851 201.43C205.121 200.84 204.311 200.46 204.001 201Z" fill="#263238"/>
<path d="M204.605 196.46C204.905 195.72 205.195 194.99 205.505 194.25C205.815 193.51 206.205 192.75 206.505 191.97C206.505 191.85 206.745 191.97 206.695 192.06C206.395 192.8 206.205 193.58 205.975 194.34C205.745 195.1 205.485 195.86 205.235 196.62C204.765 198.03 204.235 199.43 203.585 200.8C204.372 200.839 205.158 200.703 205.885 200.4C206.628 199.924 207.2 199.224 207.515 198.4C207.935 197.58 208.325 196.74 208.755 195.92C209.285 195.033 209.73 194.099 210.085 193.13C210.085 193.01 210.325 193.13 210.275 193.22C209.623 195.27 208.769 197.249 207.725 199.13C207.275 199.86 206.925 200.63 206.105 200.91C205.218 201.158 204.289 201.223 203.375 201.1C203.255 201.1 203.115 201.1 203.155 200.92C203.565 199.41 204.049 197.922 204.605 196.46Z" fill="#263238"/>
<path d="M202.562 205.8C204.272 209.41 205.772 213.01 207.362 216.61C208.952 220.21 210.362 223.69 211.792 227.27C214.652 234.49 217.212 241.85 219.462 249.27C220.572 252.95 221.602 256.66 222.522 260.4C223.535 264.128 224.277 267.925 224.742 271.76C225.143 275.589 224.804 279.46 223.742 283.16C222.639 286.818 221.224 290.375 219.512 293.79C218.462 295.95 218.112 295.66 218.612 294.57C220.042 291.47 223.792 282.08 223.522 274.19C223.303 270.413 222.72 266.666 221.782 263C220.909 259.22 219.925 255.47 218.832 251.75C216.702 244.41 214.172 237.22 211.572 230.04C210.112 226.04 208.572 222.04 207.072 218.04C205.572 214.04 204.072 210.36 202.392 205.94C202.342 205.76 202.512 205.69 202.562 205.8Z" fill="#263238"/>
<path d="M167.277 193.87C168.107 193.56 169.277 194.07 170.117 194.21C171.205 194.395 172.304 194.505 173.407 194.54C174.498 194.579 175.591 194.542 176.677 194.43C177.771 194.402 178.843 194.118 179.807 193.6C181.389 192.448 182.745 191.014 183.807 189.37C185.073 187.69 186.118 185.856 186.917 183.91C186.917 183.79 187.127 183.91 187.087 183.99C186.737 185.1 186.477 186.22 186.087 187.31C185.656 188.334 185.141 189.321 184.547 190.26C183.584 192.15 182.16 193.767 180.407 194.96C178.477 196.06 175.997 195.96 173.847 195.87C172.6 195.797 171.36 195.634 170.137 195.38C169.257 195.19 167.777 195.05 167.217 194.28C167.191 194.251 167.171 194.216 167.16 194.178C167.148 194.14 167.146 194.1 167.151 194.061C167.157 194.022 167.171 193.985 167.193 193.952C167.215 193.919 167.243 193.891 167.277 193.87Z" fill="#263238"/>
<path d="M133.664 356C141.304 344.427 148.804 332.76 156.164 321C163.524 309.24 170.784 297.39 177.944 285.45C179.654 282.6 181.624 279.76 182.724 276.6C183.924 273.17 183.244 269.84 182.164 266.48C180.124 260.35 177.74 254.341 175.024 248.48C172.344 242.57 169.454 236.76 166.614 230.93C163.774 225.1 160.804 219.34 158.614 213.26C156.614 207.45 155.804 201.43 157.364 195.41C158.924 189.39 162.284 184.07 165.794 179.06C166.714 177.74 167.664 176.43 168.594 175.06C168.664 174.96 168.814 175.06 168.744 175.18C164.874 180.4 161.104 185.93 158.834 192.06C157.673 195.082 157.024 198.275 156.914 201.51C156.895 204.793 157.404 208.059 158.424 211.18C160.304 217.26 163.274 223.01 166.044 228.73C168.814 234.45 171.774 240.37 174.504 246.26C177.32 252.188 179.823 258.26 182.004 264.45C182.934 267.2 184.004 270.08 183.924 273.03C183.854 276.26 182.314 279.17 180.714 281.89C173.714 293.74 166.544 305.45 159.244 317.09C151.944 328.73 144.434 340.37 136.834 351.89L133.954 356.24C133.804 356.42 133.544 356.21 133.664 356Z" fill="#263238"/>
<path d="M217.51 137.47C221.84 146.97 243.71 160.06 253.95 161.47C261.31 162.47 283.69 162.83 291.36 161.66C300.36 160.28 293.48 136.03 288.17 136.66C273.57 138.36 261.17 140.26 257.27 140.26C252.51 140.26 226.76 132 223.66 130.83C216.06 128 215.06 132.08 217.51 137.47Z" fill="#EB9481"/>
<path d="M217.656 140C223.136 148.11 241.346 161.37 241.346 161.37L243.876 155.77L252.246 137.25C252.246 137.25 235.516 132 224.506 129.6C223.21 129.305 221.892 129.118 220.566 129.04C213.536 128.66 212.926 133 217.656 140Z" fill="#858585"/>
<path d="M217.656 140C223.136 148.11 241.346 161.37 241.346 161.37L243.876 155.77C237.086 147.88 226.596 135.93 220.566 129.06C213.536 128.66 212.926 133 217.656 140Z" fill="#263238"/>
<path d="M238.06 157.61C239.45 154.2 245.63 140.47 247.17 137.61C247.27 137.41 247.43 137.43 247.34 137.61C244.659 144.438 241.608 151.114 238.2 157.61C238.16 157.73 238 157.69 238.06 157.61Z" fill="#263238"/>
<path d="M285.492 136.91C294.372 135.75 305.362 133.76 314.672 137.71C315.718 138.12 316.595 138.871 317.162 139.84C321.362 141.54 321.822 144.03 321.822 144.03C325.252 146.81 325.372 149.43 325.372 149.43C325.372 149.43 330.292 151.43 329.542 154.65C328.722 158.21 321.982 154.65 317.082 154.94C305.832 155.64 290.082 159.77 286.832 160.29L285.492 136.91Z" fill="#EB9481"/>
<path d="M304.784 147.39C308.074 147.165 311.375 147.165 314.664 147.39C318.246 147.839 321.79 148.558 325.264 149.54C325.287 149.548 325.311 149.547 325.333 149.536C325.355 149.526 325.371 149.507 325.379 149.485C325.387 149.462 325.386 149.438 325.375 149.416C325.365 149.394 325.347 149.378 325.324 149.37C318.797 146.809 311.692 146.09 304.784 147.29C304.624 147.27 304.624 147.4 304.784 147.39Z" fill="#263238"/>
<path d="M302.697 137C308.187 137.28 311.617 138.16 317.137 139.82V139.76C311.057 137.22 308.567 136.98 302.667 136.76C302.477 136.84 302.487 137 302.697 137Z" fill="#263238"/>
<path d="M303.586 156.64C302.156 157.31 302.506 158.06 305.236 158.69C307.966 159.32 319.316 159.51 318.916 163.47C318.516 167.43 302.506 166.93 298.036 165.53C293.566 164.13 286.836 160.29 286.836 160.29C290.006 159.76 297.446 157.75 303.586 156.64Z" fill="#EB9481"/>
<path d="M229.4 152.61C229.33 154.32 229.17 156.06 228.93 157.79C228.93 157.72 228.93 157.66 229 157.6C229.33 156.7 229.66 155.78 230.06 154.91C230.06 154.91 230.16 154.91 230.15 154.91C229.958 155.863 229.67 156.795 229.29 157.69C229.11 158.12 228.94 158.54 228.75 158.96C228.63 159.73 228.49 160.49 228.34 161.25C228.04 162.68 226.69 168.76 226.34 169.79C226.28 170 226.02 169.95 226.04 169.71C226.11 168.59 227.24 162.26 227.47 160.82C227.917 158.039 228.514 155.285 229.26 152.57C229.31 152.52 229.41 152.56 229.4 152.61Z" fill="#263238"/>
<path d="M219.003 198.08C216.333 199.45 212.893 201.58 197.393 198.53C196.393 198.33 195.453 198.09 194.473 197.8C179.943 193.44 162.473 176.35 161.523 175.14C161.523 175.14 184.613 137.71 214.143 125.94C217.793 124.49 223.833 127.29 227.143 130.78C228.333 132.03 230.923 141.22 229.933 148.66C228.943 156.1 221.663 196.71 219.003 198.08Z" fill="#858585"/>
<path d="M216.927 148.32C217.038 149.902 216.817 151.489 216.277 152.98C216.15 151.398 216.372 149.807 216.927 148.32Z" fill="white"/>
<path d="M206.851 173.81C206.915 174.597 206.888 175.389 206.771 176.17C206.675 176.957 206.484 177.729 206.201 178.47C206.132 177.68 206.159 176.884 206.281 176.1C206.383 175.318 206.575 174.549 206.851 173.81Z" fill="white"/>
<path d="M189.747 154.54C189.859 156.125 189.638 157.716 189.097 159.21C188.971 157.625 189.193 156.031 189.747 154.54Z" fill="white"/>
<path d="M223.515 172.51C223.579 173.3 223.552 174.095 223.435 174.88C223.339 175.667 223.148 176.439 222.865 177.18C222.796 176.389 222.823 175.594 222.945 174.81C223.046 174.024 223.238 173.252 223.515 172.51Z" fill="white"/>
<path d="M201.547 151.24C202.334 151.173 203.125 151.196 203.907 151.31C204.694 151.41 205.466 151.604 206.207 151.89C204.625 152.003 203.037 151.782 201.547 151.24Z" fill="white"/>
<path d="M182.125 169.65C183.707 169.539 185.294 169.76 186.785 170.3C185.203 170.427 183.612 170.205 182.125 169.65Z" fill="white"/>
<path d="M205 189.58C206.582 189.467 208.17 189.688 209.66 190.23C208.078 190.355 206.488 190.133 205 189.58Z" fill="white"/>
<path d="M176.133 182.34C177.715 182.229 179.302 182.45 180.793 182.99C179.211 183.115 177.62 182.893 176.133 182.34Z" fill="white"/>
<path d="M216.773 130.4C218.355 130.289 219.943 130.51 221.433 131.05C219.852 131.162 218.264 130.94 216.773 130.4Z" fill="white"/>
<path d="M211.126 136.78C210.621 137.388 210.043 137.932 209.406 138.4C208.787 138.879 208.116 139.288 207.406 139.62C207.908 139.016 208.479 138.472 209.106 138C209.732 137.519 210.409 137.11 211.126 136.78Z" fill="white"/>
<path d="M180.332 154.91C179.82 155.513 179.239 156.053 178.602 156.52C177.988 157.008 177.316 157.418 176.602 157.74C177.116 157.14 177.696 156.6 178.332 156.13C178.946 155.644 179.618 155.234 180.332 154.91Z" fill="white"/>
<path d="M218.785 163.09C218.273 163.695 217.693 164.239 217.055 164.71C216.44 165.196 215.768 165.606 215.055 165.93C215.566 165.324 216.147 164.781 216.785 164.31C217.403 163.829 218.074 163.419 218.785 163.09Z" fill="white"/>
<path d="M193.886 178.77C193.375 179.376 192.794 179.919 192.156 180.39C191.54 180.875 190.869 181.284 190.156 181.61C190.668 181.004 191.248 180.461 191.886 179.99C192.504 179.509 193.175 179.099 193.886 178.77Z" fill="white"/>
<path d="M228.324 141.67C227.812 142.276 227.232 142.819 226.594 143.29C225.974 143.769 225.303 144.178 224.594 144.51C225.105 143.904 225.686 143.361 226.324 142.89C226.94 142.405 227.611 141.996 228.324 141.67Z" fill="white"/>
<path d="M227.801 159.84C227.195 159.328 226.652 158.748 226.181 158.11C225.694 157.495 225.285 156.824 224.961 156.11C225.569 156.615 226.113 157.193 226.581 157.83C227.059 158.454 227.468 159.128 227.801 159.84Z" fill="white"/>
<path d="M172.301 172.36C171.695 171.848 171.152 171.268 170.681 170.63C170.2 170.012 169.79 169.341 169.461 168.63C170.067 169.141 170.61 169.722 171.081 170.36C171.566 170.976 171.975 171.647 172.301 172.36Z" fill="white"/>
<path d="M221.051 187.25C220.443 186.744 219.899 186.167 219.431 185.53C218.952 184.91 218.543 184.239 218.211 183.53C218.817 184.041 219.36 184.622 219.831 185.26C220.314 185.873 220.723 186.541 221.051 187.25Z" fill="white"/>
<path d="M196.621 144.8C196.016 144.292 195.472 143.715 195.001 143.08C194.524 142.459 194.115 141.789 193.781 141.08C194.389 141.586 194.933 142.163 195.401 142.8C195.878 143.421 196.287 144.092 196.621 144.8Z" fill="white"/>
<path d="M197.051 195.73C196.445 195.218 195.902 194.638 195.431 194C194.951 193.381 194.542 192.71 194.211 192C194.819 192.506 195.363 193.083 195.831 193.72C196.312 194.342 196.721 195.016 197.051 195.73Z" fill="white"/>
<path d="M201.205 165.69C200.605 165.176 200.065 164.595 199.595 163.96C199.107 163.347 198.697 162.675 198.375 161.96C198.977 162.472 199.518 163.052 199.985 163.69C200.471 164.305 200.881 164.976 201.205 165.69Z" fill="white"/>
<path d="M221.737 140.75C217.967 140.05 214.427 132.26 213.977 127.02C213.977 126.66 215.737 123.81 217.747 120.24C218.967 118.07 220.257 115.62 221.287 113.3C221.497 112.83 222.727 114.42 222.727 114.42L225.407 116.42L234.257 123.21C232.149 125.739 230.359 128.516 228.927 131.48C228.785 131.801 228.678 132.136 228.607 132.48C228.603 132.536 228.603 132.593 228.607 132.65C228.057 134.63 225.367 141.42 221.737 140.75Z" fill="#EB9481"/>
<path d="M228.606 132.53C228.602 132.586 228.602 132.643 228.606 132.7C228.08 132.546 227.569 132.348 227.076 132.11C217.386 127.57 221.656 114.59 221.656 114.59L225.456 116.47L234.306 123.26C232.198 125.789 230.408 128.566 228.976 131.53C228.817 131.849 228.693 132.184 228.606 132.53Z" fill="#263238"/>
<path d="M244.422 95.5801C244.422 95.5801 248.852 98.3901 248.872 103.39C248.892 108.39 246.872 113.28 246.452 113.46C246.032 113.64 244.422 95.5801 244.422 95.5801Z" fill="#263238"/>
<path d="M222.442 98.18C219.782 103.43 219.922 119.98 223.242 124.24C228.062 130.42 237.342 132.55 242.952 126.44C248.382 120.52 247.822 98.96 243.952 94.94C238.322 89 226.382 90.41 222.442 98.18Z" fill="#EB9481"/>
<path d="M236.564 111.43C236.564 111.43 236.474 111.49 236.484 111.53C236.544 112.66 236.424 113.96 235.414 114.36C235.414 114.36 235.414 114.43 235.414 114.42C236.664 114.22 236.804 112.49 236.564 111.43Z" fill="#263238"/>
<path d="M235.53 110.28C233.71 110.18 233.65 113.82 235.34 113.91C237.03 114 237.05 110.36 235.53 110.28Z" fill="#263238"/>
<path d="M242.731 111.39C242.731 111.39 242.821 111.39 242.821 111.49C242.761 112.62 242.891 113.92 243.911 114.31C243.911 114.31 243.911 114.38 243.911 114.37C242.651 114.18 242.501 112.45 242.731 111.39Z" fill="#263238"/>
<path d="M243.764 110.23C245.574 110.12 245.664 113.76 243.984 113.86C242.304 113.96 242.244 110.32 243.764 110.23Z" fill="#263238"/>
<path d="M234.392 107.51C234.87 107.374 235.341 107.214 235.802 107.03C236.327 106.935 236.806 106.668 237.162 106.27C237.249 106.125 237.285 105.955 237.265 105.787C237.245 105.618 237.17 105.462 237.052 105.34C236.782 105.134 236.461 105.005 236.123 104.964C235.786 104.924 235.444 104.974 235.132 105.11C234.457 105.291 233.873 105.715 233.492 106.3C233.416 106.439 233.382 106.598 233.393 106.756C233.404 106.914 233.46 107.066 233.555 107.193C233.649 107.321 233.779 107.418 233.927 107.474C234.076 107.531 234.237 107.543 234.392 107.51Z" fill="#263238"/>
<path d="M245.003 109.12C244.516 109.011 244.035 108.878 243.563 108.72C243.036 108.65 242.547 108.408 242.173 108.03C242.076 107.891 242.03 107.723 242.041 107.554C242.052 107.386 242.119 107.225 242.233 107.1C242.491 106.879 242.803 106.732 243.137 106.674C243.472 106.616 243.815 106.649 244.133 106.77C244.817 106.912 245.423 107.304 245.833 107.87C245.918 108.004 245.963 108.16 245.962 108.319C245.96 108.478 245.913 108.633 245.825 108.765C245.737 108.898 245.612 109.002 245.466 109.065C245.32 109.128 245.159 109.147 245.003 109.12Z" fill="#263238"/>
<path d="M234.001 122.12C234.271 122.39 234.531 122.75 234.941 122.79C235.362 122.79 235.777 122.701 236.161 122.53C236.161 122.53 236.231 122.53 236.161 122.59C235.998 122.81 235.777 122.981 235.523 123.085C235.27 123.189 234.992 123.222 234.721 123.18C234.493 123.118 234.288 122.99 234.131 122.812C233.975 122.634 233.874 122.414 233.841 122.18C233.833 122.159 233.834 122.135 233.844 122.115C233.853 122.094 233.87 122.078 233.891 122.07C233.913 122.062 233.936 122.063 233.957 122.072C233.977 122.081 233.993 122.099 234.001 122.12Z" fill="#263238"/>
<path d="M240.543 117.3C240.543 117.3 240.593 118.98 240.543 119.77C239.007 119.607 237.455 119.661 235.933 119.93C235.573 120.01 235.613 119.72 236.023 119.53C237.249 118.97 238.614 118.789 239.943 119.01C240.023 118.8 239.813 116.41 239.943 116.42C240.548 116.539 241.134 116.741 241.683 117.02C241.683 113.5 241.123 110.02 241.173 106.5C241.173 106.38 241.363 106.36 241.383 106.5C242.094 110.224 242.429 114.009 242.383 117.8C242.393 118.23 240.843 117.46 240.543 117.3Z" fill="#263238"/>
<path d="M238.294 119.17C237.895 120.219 237.156 121.103 236.194 121.68C234.684 122.29 234.194 120.92 235.714 119.68C236.511 119.277 237.403 119.101 238.294 119.17Z" fill="#263238"/>
<path d="M236.723 121.37C236.563 121.5 236.384 121.605 236.193 121.68C234.803 122.24 234.253 121.13 235.373 120.01C236.133 120.07 237.003 120.35 236.723 121.37Z" fill="#FF99BA"/>
<path d="M221.681 112.33C223.511 112.89 225.611 107.39 226.211 105.33C226.731 103.47 227.331 97.56 227.421 97.15C227.511 96.74 235.421 102.38 240.001 101.04C244.581 99.7 247.691 95.55 247.761 93.62C247.831 91.69 242.101 86.79 237.151 86.54C232.201 86.29 225.491 92.54 225.491 92.54C226.302 91.6202 227.038 90.6371 227.691 89.6C227.611 89.38 224.411 90.66 223.821 92.94C223.821 92.94 224.461 90.07 224.221 90.02C223.981 89.97 221.491 92.42 222.051 94.28C222.051 94.28 219.171 96.77 218.911 99.5C218.651 102.23 219.531 111.67 221.681 112.33Z" fill="#263238"/>
<path d="M243.284 100C241.922 100.739 240.455 101.265 238.934 101.56C237.227 101.712 235.509 101.437 233.934 100.76C232.348 100.147 230.875 99.2754 229.574 98.18C228.424 97.24 227.394 96.09 226.164 95.25C225.854 95.03 225.504 95.48 225.694 95.76C227.747 98.6586 230.678 100.819 234.054 101.92C235.623 102.431 237.297 102.527 238.913 102.197C240.529 101.868 242.032 101.124 243.274 100.04C243.274 100.04 243.304 100 243.284 100Z" fill="#263238"/>
<path d="M223.596 111.84C223.596 111.84 220.756 106.08 218.196 107.01C215.636 107.94 217.196 115.91 219.826 117.37C220.148 117.578 220.509 117.719 220.887 117.785C221.265 117.851 221.652 117.839 222.026 117.751C222.4 117.664 222.751 117.501 223.061 117.274C223.37 117.047 223.63 116.76 223.826 116.43L223.596 111.84Z" fill="#EB9481"/>
<path d="M218.706 109.28C218.706 109.28 218.646 109.28 218.706 109.36C220.526 110.44 221.266 112.36 221.706 114.36C221.624 114.148 221.496 113.957 221.332 113.799C221.168 113.642 220.971 113.522 220.757 113.448C220.542 113.374 220.313 113.347 220.087 113.37C219.861 113.393 219.642 113.464 219.446 113.58C219.386 113.58 219.446 113.69 219.446 113.69C219.804 113.634 220.17 113.691 220.494 113.852C220.819 114.013 221.085 114.271 221.256 114.59C221.543 115.124 221.771 115.687 221.936 116.27C221.996 116.46 222.326 116.41 222.296 116.2C222.726 113.71 221.326 109.94 218.706 109.28Z" fill="#263238"/>
<path d="M204.842 137.56C202.842 148.89 215.122 187.06 222.992 194.19C234.702 204.79 256.352 211.76 264.202 214.03C267.622 215.03 277.082 190.96 273.622 189.37C266.212 186 243.192 178.8 241.002 177C238.812 175.2 225.612 156.13 219.732 145.15C211.862 130.37 205.832 131.83 204.842 137.56Z" fill="#EB9481"/>
<path d="M267.794 187.25C267.794 187.25 278.014 189.86 284.604 191.87C288.284 193 294.424 195.49 296.754 197.55C300.234 200.64 312.814 215.76 309.214 218.89C305.954 221.73 296.794 207.36 296.794 207.36C296.794 207.36 307.314 221.04 302.794 223.73C298.274 226.42 290.004 208.81 290.004 208.81C290.004 208.81 300.494 223.11 295.364 225.14C291.484 226.67 283.164 211.14 283.164 211.14C283.164 211.14 292.104 223.49 288.164 225.24C283.824 227.18 275.254 213.32 275.254 213.32C264.534 216.09 258.254 213.02 254.124 210.32C253.154 209.66 267.794 187.25 267.794 187.25Z" fill="#EB9481"/>
<path d="M293.451 202.39C294.751 203.95 296.071 205.53 297.221 207.2C298.371 208.87 299.461 210.59 300.451 212.36C301.792 214.649 302.866 217.085 303.651 219.62C301.931 215.22 297.901 209.17 296.751 207.5C295.601 205.83 294.531 204.1 293.391 202.43C293.361 202.39 293.421 202.35 293.451 202.39Z" fill="#263238"/>
<path d="M287.34 206.44C289.56 208.2 294.21 214.74 296 219.13C296.08 219.31 296 219.3 295.87 219.13C294.47 216.96 288.791 208.56 287.291 206.47C287.261 206.44 287.31 206.41 287.34 206.44Z" fill="#263238"/>
<path d="M281.471 209C284.23 211.893 286.409 215.288 287.892 219C287.962 219.18 287.821 219.15 287.711 219C285.641 215.63 284.041 213 281.361 209.09C281.321 209 281.411 208.91 281.471 209Z" fill="#263238"/>
<path d="M216.003 138.39C206.873 125.48 201.413 130.26 203.243 144.28C204.963 157.39 209.553 173.01 209.553 173.01L232.553 161.85C232.553 161.85 221.813 146.66 216.003 138.39Z" fill="#858585"/>
<path d="M221.553 143.47C221.856 144.199 222.074 144.961 222.203 145.74C222.344 146.522 222.394 147.317 222.353 148.11C222.053 147.377 221.838 146.612 221.713 145.83C221.564 145.053 221.511 144.26 221.553 143.47Z" fill="white"/>
<path d="M207.922 151.32C209.39 150.723 210.969 150.45 212.552 150.52C211.822 150.82 211.061 151.035 210.282 151.16C209.505 151.308 208.712 151.362 207.922 151.32Z" fill="white"/>
<path d="M208.515 131.24C207.895 132.702 206.972 134.014 205.805 135.09C206.424 133.629 207.348 132.316 208.515 131.24Z" fill="white"/>
<path d="M228.007 157.35C227.703 158.081 227.317 158.776 226.857 159.42C226.408 160.072 225.885 160.67 225.297 161.2C225.916 159.739 226.84 158.426 228.007 157.35Z" fill="white"/>
<path d="M212.006 165.18C211.273 164.88 210.578 164.494 209.936 164.03C209.284 163.582 208.686 163.058 208.156 162.47C209.618 163.089 210.93 164.013 212.006 165.18Z" fill="white"/>
<path d="M219.008 142.28C220.238 143.97 221.508 145.62 222.768 147.28C222.448 146.44 222.168 145.59 221.928 144.73H221.988C222.238 145.39 222.528 146.04 222.768 146.73L223.128 147.73C223.159 147.798 223.185 147.868 223.208 147.94C224.208 149.23 225.208 150.52 226.128 151.84C227.258 153.42 228.348 155.02 229.448 156.62C230.548 158.22 231.658 160.21 232.848 161.82C232.958 161.96 230.848 162.82 230.618 162.93C230.388 163.04 230.268 162.85 230.488 162.78C230.708 162.71 232.388 161.68 232.408 161.66C231.308 160.04 230.038 158.55 228.888 156.98C227.738 155.41 226.598 153.84 225.488 152.25C223.238 149.01 221.178 145.65 218.938 142.4L219.008 142.28Z" fill="#263238"/>
<path d="M203.787 153.56C204.137 154.24 204.517 154.91 204.787 155.61L205.167 156.48C204.637 153.99 204.167 151.48 203.617 148.99C204.677 152.99 205.747 157.08 206.727 161.14C207.657 165.02 208.787 168.94 209.327 172.9C210.025 172.594 210.747 172.35 211.487 172.17C210.745 172.651 209.945 173.037 209.107 173.32C207.902 169.293 206.9 165.208 206.107 161.08C205.857 159.96 205.627 158.84 205.387 157.72C205.127 157.04 204.817 156.39 204.507 155.72C204.197 155.05 203.917 154.3 203.637 153.59C203.697 153.55 203.767 153.51 203.787 153.56Z" fill="#263238"/>
<path d="M209.891 169.15C213.091 167.35 226.461 160.43 229.451 159.15C229.661 159.06 229.771 159.15 229.561 159.29C223.215 162.978 216.672 166.316 209.961 169.29C209.881 169.31 209.801 169.2 209.891 169.15Z" fill="#263238"/>
<path d="M576.321 432.05H271.641L315.691 182.2H620.371L576.321 432.05Z" fill="#216432"/>
<path d="M419.967 156.32H320.258L315.688 182.2H422.397L419.967 156.32Z" fill="#216432"/>
<g opacity="0.1">
<path d="M576.321 432.05H271.641L315.691 182.2H620.371L576.321 432.05Z" fill="black"/>
<path d="M419.967 156.32H320.258L315.688 182.2H422.397L419.967 156.32Z" fill="black"/>
</g>
<path d="M309.5 166.88C308.833 164.018 308.833 161.041 309.5 158.18C310.167 161.041 310.167 164.018 309.5 166.88Z" fill="#263238"/>
<path d="M300.641 169.44C299.623 168.384 298.746 167.201 298.031 165.92C297.282 164.666 296.694 163.322 296.281 161.92C297.302 162.97 298.18 164.15 298.891 165.43C299.639 166.689 300.227 168.036 300.641 169.44Z" fill="#263238"/>
<path d="M294.241 176.09C291.431 175.235 288.855 173.747 286.711 171.74C288.113 172.147 289.457 172.732 290.711 173.48C291.992 174.199 293.178 175.076 294.241 176.09Z" fill="#263238"/>
<path d="M291.997 185.05C289.135 185.717 286.159 185.717 283.297 185.05C286.159 184.383 289.135 184.383 291.997 185.05Z" fill="#263238"/>
<path d="M294.598 193.91C293.538 194.923 292.355 195.799 291.078 196.52C289.824 197.267 288.48 197.852 287.078 198.26C288.134 197.241 289.317 196.364 290.598 195.65C291.85 194.898 293.195 194.313 294.598 193.91Z" fill="#263238"/>
<path d="M301.241 200.3C300.389 203.114 298.901 205.694 296.891 207.84C297.298 206.436 297.886 205.091 298.641 203.84C299.353 202.554 300.227 201.365 301.241 200.3Z" fill="#263238"/>
<path d="M310.198 202.51C310.547 203.933 310.715 205.395 310.698 206.86C310.72 208.325 310.552 209.787 310.198 211.21C309.84 209.788 309.672 208.326 309.698 206.86C309.681 205.395 309.849 203.933 310.198 202.51Z" fill="#263238"/>
<path d="M319.062 200C320.081 201.056 320.958 202.239 321.673 203.52C322.424 204.772 323.009 206.117 323.413 207.52C321.402 205.374 319.914 202.794 319.062 199.98V200Z" fill="#263238"/>
<path d="M325.453 193.3C326.856 193.704 328.201 194.288 329.453 195.04C330.734 195.754 331.917 196.632 332.973 197.65C331.57 197.246 330.225 196.661 328.973 195.91C327.692 195.195 326.509 194.318 325.453 193.3Z" fill="#263238"/>
<path d="M327.656 184.34C330.521 183.673 333.501 183.673 336.366 184.34C333.501 185.006 330.521 185.006 327.656 184.34Z" fill="#263238"/>
<path d="M325.098 175.48C326.157 174.468 327.34 173.594 328.618 172.88C329.868 172.121 331.213 171.533 332.618 171.13C330.472 173.14 327.892 174.629 325.078 175.48H325.098Z" fill="#263238"/>
<path d="M318.453 169.09C318.865 167.689 319.449 166.346 320.193 165.09C320.908 163.809 321.785 162.626 322.803 161.57C322.399 162.973 321.814 164.318 321.063 165.57C320.349 166.851 319.471 168.034 318.453 169.09Z" fill="#263238"/>
<path d="M575.87 432.05H270.54L227.18 191.27H532.52L575.87 432.05Z" fill="#216432"/>
<path d="M332.987 338.46C339.995 338.46 345.677 332.778 345.677 325.77C345.677 318.761 339.995 313.08 332.987 313.08C325.978 313.08 320.297 318.761 320.297 325.77C320.297 332.778 325.978 338.46 332.987 338.46Z" fill="#D8D8D8"/>
<path d="M433.307 338.46C440.316 338.46 445.997 332.778 445.997 325.77C445.997 318.761 440.316 313.08 433.307 313.08C426.299 313.08 420.617 318.761 420.617 325.77C420.617 332.778 426.299 338.46 433.307 338.46Z" fill="#E8E8E8"/>
<path d="M401.383 340.49L400.683 339.16C400.623 339.04 394.063 326.92 380.873 326.92C368.873 326.92 365.873 338.33 365.793 338.82L365.433 340.27L362.523 339.57L362.873 338.11C362.873 337.97 366.453 323.92 380.873 323.92C395.873 323.92 403.043 337.2 403.343 337.77L404.043 339.09L401.383 340.49Z" fill="#C8C9C9"/>
<path d="M555.71 324.8L555.5 323.8C556.15 323.66 556.79 323.51 557.43 323.34L557.68 324.34C557 324.51 556.37 324.66 555.71 324.8Z" fill="#263238"/>
<path d="M561.549 323.19L561.229 322.25C562.479 321.82 563.729 321.35 564.939 320.84L565.329 321.76C564.099 322.28 562.829 322.76 561.549 323.19ZM568.999 320L568.549 319.12C569.719 318.51 570.889 317.85 571.999 317.12L572.519 317.97C571.379 318.76 570.189 319.43 568.999 320ZM575.879 315.77L575.289 314.96C576.369 314.17 577.409 313.34 578.389 312.49L579.049 313.24C577.999 314.15 576.999 315 575.869 315.81L575.879 315.77ZM581.979 310.45L581.249 309.76C582.169 308.76 583.039 307.76 583.839 306.76L584.629 307.37C583.799 308.47 582.909 309.5 581.999 310.49L581.979 310.45ZM586.929 304.05L586.079 303.52C586.77 302.403 587.385 301.24 587.919 300.04L588.839 300.45C588.273 301.701 587.632 302.917 586.919 304.09L586.929 304.05ZM590.239 296.63L589.239 296.35C589.604 295.095 589.875 293.815 590.049 292.52L591.049 292.65C590.883 294.01 590.609 295.354 590.229 296.67L590.239 296.63ZM591.349 288.63H590.349V288.34C590.349 287.13 590.279 285.9 590.159 284.69L591.159 284.59C591.29 285.836 591.357 287.087 591.359 288.34L591.349 288.63ZM589.549 280.8C589.28 279.511 588.946 278.236 588.549 276.98L589.549 276.68C589.959 277.98 590.309 279.3 590.549 280.59L589.549 280.8ZM587.179 273.27C586.699 272.09 586.179 270.88 585.539 269.66L586.439 269.21C587.049 270.45 587.609 271.69 588.099 272.89L587.179 273.27ZM583.679 266.14C583.059 265.05 582.379 263.9 581.679 262.72L582.529 262.19C583.259 263.38 583.949 264.54 584.529 265.65L583.679 266.14ZM579.499 259.35C578.769 258.25 578.029 257.14 577.269 256.03L578.099 255.47C578.859 256.58 579.599 257.69 580.329 258.81L579.499 259.35ZM574.999 252.73C574.249 251.63 573.489 250.52 572.749 249.42L573.579 248.86C574.319 249.96 575.069 251.07 575.819 252.16L574.999 252.73ZM570.529 246.07C569.799 244.95 569.089 243.81 568.389 242.67L569.239 242.15C569.939 243.29 570.649 244.41 571.369 245.53L570.529 246.07ZM566.359 239.2C565.679 237.99 565.049 236.79 564.479 235.64L565.379 235.19C565.939 236.33 566.569 237.51 567.229 238.71L566.359 239.2ZM562.809 232C562.279 230.75 561.809 229.48 561.369 228.24L562.369 227.92C562.789 229.13 563.259 230.38 563.779 231.61L562.809 232ZM560.209 224.37C559.879 223.07 559.589 221.74 559.369 220.37L560.369 220.21C560.589 221.49 560.859 222.79 561.189 224.07L560.209 224.37ZM558.869 216.37C558.769 215.14 558.719 213.9 558.719 212.66V212.33H559.719V212.65C559.719 213.86 559.719 215.08 559.869 216.28L558.869 216.37ZM559.869 208.37L558.869 208.27C558.869 208 558.919 207.72 558.949 207.43C559.069 206.36 559.219 205.29 559.399 204.27L560.399 204.44C560.229 205.44 560.079 206.49 559.959 207.54C559.999 207.85 559.999 208.12 559.919 208.4L559.869 208.37ZM561.259 200.59L560.259 200.32C560.629 199 561.059 197.71 561.539 196.48L562.469 196.84C562.014 198.078 561.627 199.34 561.309 200.62L561.259 200.59ZM611.089 194.76C610.529 194.76 609.949 194.68 609.379 194.6C608.599 194.49 607.819 194.36 607.049 194.21L607.249 193.21C607.989 193.35 608.759 193.48 609.519 193.59C610.059 193.66 610.609 193.71 611.139 193.74L611.089 194.76ZM615.199 194.45L614.989 193.45C616.244 193.191 617.447 192.724 618.549 192.07L619.069 192.92C617.891 193.649 616.6 194.176 615.249 194.48L615.199 194.45ZM564.139 193.26L563.249 192.79C563.886 191.597 564.59 190.442 565.359 189.33L566.179 189.9C565.448 190.989 564.783 192.121 564.189 193.29L564.139 193.26ZM603.139 193.2C601.848 192.79 600.579 192.313 599.339 191.77L599.749 190.85C600.951 191.384 602.183 191.848 603.439 192.24L603.139 193.2ZM622.139 190.08L621.309 189.52C622.021 188.487 622.442 187.281 622.529 186.03L623.529 186.1C623.444 187.534 622.974 188.92 622.169 190.11L622.139 190.08ZM595.739 189.93C594.568 189.25 593.437 188.505 592.349 187.7L592.939 186.9C593.998 187.681 595.099 188.402 596.239 189.06L595.739 189.93ZM568.639 186.81L567.899 186.14C568.804 185.133 569.769 184.181 570.789 183.29L571.449 184.04C570.468 184.918 569.539 185.853 568.669 186.84L568.639 186.81ZM589.229 185.12C588.233 184.202 587.288 183.231 586.399 182.21L587.149 181.55C588.014 182.542 588.932 183.486 589.899 184.38L589.229 185.12ZM621.779 182.41C621.206 181.267 620.414 180.248 619.449 179.41L620.109 178.66C621.171 179.579 622.044 180.696 622.679 181.95L621.779 182.41ZM574.559 181.62L573.989 180.8C575.108 180.036 576.266 179.332 577.459 178.69L577.929 179.57C576.78 180.205 575.665 180.899 574.589 181.65L574.559 181.62ZM583.899 179.02C583.519 178.48 583.149 177.93 582.799 177.36L581.499 177.87L581.119 176.95L582.269 176.49C582.089 176.19 581.909 175.89 581.739 175.59L582.609 175.1C582.809 175.45 583.009 175.8 583.219 176.1C583.779 175.9 584.349 175.71 584.929 175.53L585.219 176.53C584.729 176.68 584.219 176.84 583.759 177.01C584.069 177.5 584.389 178.01 584.759 178.44L583.899 179.02ZM616.229 177.3C615.261 176.818 614.258 176.41 613.229 176.08L612.569 175.87L612.859 174.87L613.539 175.09C614.61 175.431 615.653 175.856 616.659 176.36L616.229 177.3ZM589.049 175.51L588.839 174.51C590.129 174.22 591.469 173.98 592.839 173.79L592.989 174.79C591.669 175 590.359 175.25 589.079 175.54L589.049 175.51ZM608.749 174.97C607.499 174.75 606.179 174.58 604.829 174.46L604.909 173.46C606.299 173.58 607.649 173.75 608.909 173.98L608.749 174.97ZM596.899 174.39L596.829 173.39C598.019 173.32 599.209 173.28 600.389 173.28H600.879V174.28H600.399C599.269 174.31 598.089 174.34 596.929 174.42L596.899 174.39ZM579.999 172C579.459 170.78 578.999 169.51 578.549 168.22L579.549 167.91C579.969 169.17 580.439 170.41 580.959 171.6L579.999 172ZM577.469 164.32C577.169 163.03 576.919 161.69 576.729 160.32L577.729 160.18C577.919 161.5 578.159 162.81 578.449 164.08L577.469 164.32ZM576.349 156.32C576.299 155.42 576.269 154.5 576.269 153.58C576.269 153.15 576.269 152.71 576.269 152.28H577.269C577.269 152.71 577.269 153.13 577.269 153.56C577.269 154.46 577.269 155.37 577.339 156.24L576.349 156.32ZM577.539 148.32L576.539 148.22C576.679 146.9 576.869 145.55 577.099 144.22L578.099 144.39C577.829 145.72 577.639 147 577.509 148.34L577.539 148.32ZM578.909 140.51L577.909 140.27C578.229 138.98 578.599 137.68 579.009 136.38L580.009 136.69C579.559 138 579.189 139.27 578.879 140.53L578.909 140.51ZM581.309 132.94L580.379 132.58C580.869 131.33 581.379 130.08 581.989 128.87L582.889 129.31C582.289 130.51 581.759 131.73 581.279 133L581.309 132.94ZM584.749 125.81L583.879 125.3C584.559 124.15 585.289 123 586.049 121.9L586.869 122.47C586.089 123.57 585.379 124.69 584.719 125.83L584.749 125.81ZM589.259 119.3L588.479 118.67C589.319 117.67 590.219 116.61 591.149 115.67L591.869 116.36C590.929 117.3 590.049 118.3 589.229 119.32L589.259 119.3ZM594.699 113.54L594.029 112.8C595.029 111.91 596.029 111.03 597.099 110.18L597.719 110.97C596.649 111.82 595.629 112.69 594.669 113.56L594.699 113.54ZM600.909 108.6L600.339 107.77C601.429 107.02 602.569 106.28 603.729 105.58L604.239 106.43C603.079 107.14 601.999 107.87 600.879 108.62L600.909 108.6ZM607.699 104.47L607.229 103.59C608.409 102.96 609.629 102.36 610.849 101.8L611.269 102.71C609.999 103.28 608.829 103.88 607.669 104.49L607.699 104.47ZM614.929 101.15L614.559 100.21C615.819 99.7198 617.089 99.2098 618.349 98.8398L618.669 99.8398C617.399 100.22 616.139 100.68 614.899 101.17L614.929 101.15Z" fill="#263238"/>
<path d="M622.641 98.6202L622.391 97.6202C623.631 97.3002 624.391 97.1602 624.391 97.1602L624.571 98.1602C624.571 98.1602 623.851 98.3102 622.641 98.6202Z" fill="#263238"/>
<path d="M640.323 92.1601C637.773 84.2601 620.693 87.1001 624.023 97.4301C627.353 107.76 642.873 100.07 640.323 92.1601Z" fill="#263238"/>
<path d="M614.729 89.0001C614.859 85.5301 619.679 82.8601 626.499 84.0901C633.319 85.3201 639.729 89.9201 639.729 89.9201C639.729 89.9201 632.999 94.0001 626.109 94.7501C619.219 95.5001 614.599 92.4601 614.729 89.0001Z" fill="#EBEBEB"/>
<path d="M639.731 89.9001C636.191 89.9001 632.661 89.8001 629.131 89.6901C625.601 89.5801 622.061 89.4001 618.531 89.1201C622.071 89.1201 625.611 89.2101 629.141 89.3201C632.671 89.4301 636.211 89.6101 639.731 89.9001Z" fill="#263238"/>
<path d="M621.578 85.9102C623.588 86.8716 625.483 88.0557 627.228 89.4402C626.222 88.9682 625.247 88.4338 624.308 87.8401C623.361 87.2505 622.45 86.6061 621.578 85.9102Z" fill="#263238"/>
<path d="M630.85 89.5698C629.041 91.0359 627.08 92.3032 625 93.3498C626.818 91.8819 628.79 90.6146 630.88 89.5698H630.85Z" fill="#263238"/>
<path d="M631.883 87.6201C632.892 88.1047 633.775 88.8166 634.463 89.7001C633.958 89.462 633.485 89.1631 633.053 88.8101C632.619 88.4593 632.226 88.0601 631.883 87.6201Z" fill="#263238"/>
<path d="M621.229 109.55C623.359 112.29 628.829 111.63 633.639 106.65C638.449 101.67 640.999 94.1802 640.999 94.1802C640.999 94.1802 633.119 94.7802 627.109 98.1802C621.099 101.58 619.089 106.8 621.229 109.55Z" fill="#EBEBEB"/>
<path d="M640.998 94.1802C638.118 96.1802 635.318 98.4002 632.508 100.55C629.698 102.7 626.948 104.92 624.258 107.21C627.138 105.21 629.938 103 632.738 100.85C635.538 98.7002 638.268 96.4802 640.998 94.1802Z" fill="#263238"/>
<path d="M628.578 108C629.113 107.028 629.59 106.027 630.008 105C630.434 103.97 630.794 102.915 631.088 101.84C630.552 102.81 630.074 103.812 629.658 104.84C629.237 105.871 628.876 106.926 628.578 108Z" fill="#263238"/>
<path d="M634 99.6399C631.66 99.5148 629.314 99.6389 627 100.01C628.166 100.08 629.334 100.08 630.5 100.01C631.673 99.9527 632.841 99.8292 634 99.6399Z" fill="#263238"/>
<path d="M635.93 100.63C636.197 100.136 636.405 99.6125 636.55 99.0699C636.698 98.5314 636.785 97.9779 636.81 97.4199C636.278 98.4099 635.977 99.5072 635.93 100.63Z" fill="#263238"/>
<path d="M640.317 92.16C639.752 92.3434 639.146 92.355 638.575 92.1935C638.003 92.032 637.493 91.7045 637.107 91.2526C636.722 90.8007 636.48 90.2446 636.411 89.6548C636.342 89.0651 636.45 88.4681 636.72 87.9396C636.991 87.411 637.412 86.9746 637.931 86.6857C638.45 86.3968 639.042 86.2683 639.634 86.3166C640.226 86.3648 640.79 86.5876 641.255 86.9567C641.721 87.3258 642.066 87.8246 642.247 88.39C642.49 89.1459 642.423 89.9671 642.061 90.6737C641.699 91.3804 641.072 91.9148 640.317 92.16Z" fill="#455A64"/>
<path d="M642.158 97.8699C641.594 98.0526 640.988 98.0638 640.417 97.9021C639.846 97.7404 639.336 97.4131 638.951 96.9616C638.566 96.5101 638.324 95.9547 638.255 95.3655C638.186 94.7763 638.293 94.1798 638.563 93.6514C638.832 93.123 639.253 92.6865 639.77 92.397C640.288 92.1076 640.88 91.9781 641.472 92.025C642.063 92.072 642.627 92.2932 643.093 92.6607C643.559 93.0283 643.905 93.5256 644.088 94.0899C644.21 94.4648 644.256 94.86 644.225 95.253C644.194 95.6459 644.086 96.0288 643.906 96.3798C643.727 96.7309 643.48 97.0432 643.18 97.2988C642.88 97.5545 642.533 97.7486 642.158 97.8699Z" fill="#455A64"/>
<path d="M314.305 95.3197C313.826 99.9129 312.08 104.283 309.262 107.941C306.444 111.6 302.665 114.403 298.346 116.039C294.027 117.674 289.339 118.078 284.804 117.204C280.27 116.33 276.067 114.213 272.665 111.09L260.195 112.92L266.435 102.14C265.008 98.6321 264.399 94.8454 264.655 91.0673C264.911 87.2892 266.024 83.6189 267.91 80.3354C269.797 77.0519 272.406 74.2415 275.542 72.1177C278.677 69.9938 282.254 68.6123 286.003 68.0782C289.752 67.5441 293.574 67.8714 297.177 69.0352C300.781 70.1991 304.072 72.1688 306.8 74.7949C309.528 77.4209 311.622 80.6342 312.923 84.1907C314.223 87.7471 314.696 91.5532 314.305 95.3197Z" fill="white"/>
<path d="M314.308 95.3199C313.839 99.9107 312.109 104.282 309.308 107.95C307.94 109.805 306.29 111.435 304.418 112.78C302.588 114.176 300.567 115.304 298.418 116.13C296.268 116.977 294.009 117.515 291.708 117.73C290.558 117.833 289.402 117.857 288.248 117.8C287.091 117.77 285.937 117.65 284.798 117.44C280.203 116.594 275.933 114.486 272.468 111.35L272.758 111.44L260.308 113.35L259.398 113.49L259.858 112.69L266.058 101.89V102.32C264.595 98.7475 263.973 94.8866 264.24 91.0355C264.507 87.1844 265.656 83.4462 267.598 80.1099C269.538 76.7841 272.205 73.9399 275.398 71.7899C278.587 69.6685 282.215 68.2966 286.009 67.777C289.804 67.2574 293.667 67.6037 297.308 68.7899C300.911 70.0157 304.195 72.0315 306.918 74.6899C309.636 77.3417 311.714 80.5776 312.994 84.1521C314.275 87.7266 314.724 91.5458 314.308 95.3199ZM314.308 95.3199C314.713 91.5644 314.248 87.7662 312.951 84.2187C311.654 80.6712 309.559 77.4691 306.828 74.8598C304.097 72.2505 300.803 70.3037 297.2 69.1698C293.597 68.0358 289.782 67.7451 286.048 68.3199C282.353 68.867 278.832 70.256 275.758 72.3799C272.711 74.5205 270.166 77.298 268.298 80.5199C266.46 83.749 265.376 87.3524 265.128 91.0599C264.885 94.7925 265.487 98.532 266.888 102L266.978 102.22L266.858 102.43L260.578 113.19L260.138 112.53L272.618 110.78H272.788L272.908 110.89C276.244 113.995 280.379 116.111 284.848 117C285.962 117.227 287.093 117.364 288.228 117.41C289.364 117.49 290.503 117.49 291.638 117.41C293.915 117.226 296.156 116.732 298.298 115.94C300.446 115.158 302.467 114.067 304.298 112.7C306.162 111.366 307.814 109.757 309.198 107.93C312.035 104.28 313.804 99.9149 314.308 95.3199Z" fill="#263238"/>
<path d="M277.34 104.35C277.321 104.019 277.37 103.688 277.484 103.376C277.598 103.065 277.775 102.78 278.004 102.54C278.233 102.3 278.509 102.11 278.814 101.981C279.12 101.852 279.448 101.787 279.78 101.79C280.459 101.79 281.11 102.06 281.59 102.54C282.07 103.02 282.34 103.671 282.34 104.35C282.34 105.029 282.07 105.68 281.59 106.16C281.11 106.64 280.459 106.91 279.78 106.91C279.448 106.913 279.12 106.849 278.814 106.719C278.509 106.59 278.233 106.4 278.004 106.16C277.775 105.92 277.598 105.635 277.484 105.324C277.37 105.013 277.321 104.681 277.34 104.35ZM278.34 98.4401L277.76 78.6001H281.76L281.18 98.4401H278.34Z" fill="#909090"/>
<path d="M286.848 104.35C286.829 104.02 286.877 103.689 286.991 103.379C287.105 103.068 287.281 102.784 287.509 102.544C287.736 102.304 288.011 102.113 288.315 101.984C288.619 101.854 288.947 101.788 289.278 101.79C289.957 101.79 290.608 102.06 291.088 102.54C291.568 103.02 291.838 103.671 291.838 104.35C291.838 105.029 291.568 105.68 291.088 106.16C290.608 106.64 289.957 106.91 289.278 106.91C288.947 106.912 288.619 106.846 288.315 106.716C288.011 106.587 287.736 106.396 287.509 106.156C287.281 105.916 287.105 105.632 286.991 105.322C286.877 105.011 286.829 104.68 286.848 104.35ZM287.848 98.4401L287.298 78.6001H291.298L290.718 98.4401H287.848Z" fill="#909090"/>
<path d="M296.348 104.35C296.329 104.019 296.378 103.688 296.492 103.376C296.606 103.065 296.783 102.78 297.012 102.54C297.241 102.3 297.516 102.11 297.822 101.981C298.127 101.852 298.456 101.787 298.788 101.79C299.467 101.79 300.118 102.06 300.598 102.54C301.078 103.02 301.348 103.671 301.348 104.35C301.348 105.029 301.078 105.68 300.598 106.16C300.118 106.64 299.467 106.91 298.788 106.91C298.456 106.913 298.127 106.849 297.822 106.719C297.516 106.59 297.241 106.4 297.012 106.16C296.783 105.92 296.606 105.635 296.492 105.324C296.378 105.013 296.329 104.681 296.348 104.35ZM297.348 98.4401L296.768 78.6001H300.768L300.198 98.4401H297.348Z" fill="#909090"/>
</svg>
