<svg width="18" height="17" viewBox="0 0 18 17" fill="none" xmlns="http://www.w3.org/2000/svg">
<path d="M6.38092 11.5243C6.1823 12.385 7.11546 13.0617 7.8718 12.6055L8.48012 12.2386C8.79957 12.0459 9.19972 12.0471 9.51806 12.2416L10.1232 12.6114C10.8787 13.0731 11.8172 12.3977 11.6194 11.5348L11.4594 10.8363C11.3767 10.4755 11.5 10.0986 11.7799 9.85654L12.3157 9.3932C12.9835 8.81559 12.6297 7.71909 11.7502 7.64077L11.0463 7.5781C10.6792 7.5454 10.3598 7.31338 10.2152 6.97432L9.91645 6.27392C9.57139 5.46481 8.42504 5.46328 8.07782 6.27147L7.7856 6.95162C7.64048 7.28941 7.3217 7.52033 6.9555 7.55293L6.2331 7.61726C5.35605 7.69535 5.00074 8.78691 5.66377 9.36631L6.22394 9.85583C6.50164 10.0985 6.62323 10.4743 6.5403 10.8337L6.38092 11.5243ZM4.84834 16.7794C4.09178 17.2358 3.15841 16.5586 3.35754 15.6978L4.31432 11.5616C4.39779 11.2007 4.27497 10.8233 3.99511 10.5806L0.784976 7.79753C0.117447 7.2188 0.473397 6.1221 1.35356 6.0457L5.59988 5.67709C5.96906 5.64505 6.29025 5.41147 6.43451 5.07014L8.07889 1.17942C8.42303 0.365149 9.57697 0.365148 9.92111 1.17941L11.5655 5.07014C11.7098 5.41147 12.0309 5.64505 12.4001 5.67709L16.6464 6.0457C17.5266 6.1221 17.8826 7.2188 17.215 7.79753L14.0049 10.5806C13.725 10.8233 13.6022 11.2007 13.6857 11.5616L14.6425 15.6978C14.8416 16.5586 13.9082 17.2358 13.1517 16.7794L9.51653 14.5866C9.19884 14.3949 8.80116 14.3949 8.48347 14.5866L4.84834 16.7794Z" fill="#5500AF" fill-opacity="0.79"/>
</svg>
